<svg width="14" height="12" viewBox="0 0 14 12" fill="none" xmlns="http://www.w3.org/2000/svg">
<path d="M4.8 0.250488L3.10036 0.501022L0 6.00138L3.10036 11.5017L4.8 11.7523L1.50036 6.00138L4.8 0.250488ZM9.15588 0.250488L10.8555 0.501022L13.9559 6.00138L10.8555 11.4989L9.15588 11.7494L12.4555 5.99853L9.15588 0.250488Z" fill="black"/>
<path d="M4.79965 0.250534L6.97758 0V6.00143H1.5L4.79965 0.250534Z" fill="#F3F3F3"/>
<path d="M4.79965 11.7495L6.97758 12V6.00146H1.5L4.79965 11.7495Z" fill="#D9D9D9"/>
<path d="M9.15645 11.7495L6.97852 12V6.00146H12.4561L9.15645 11.7495Z" fill="#BCBCBC"/>
<path d="M9.15645 0.250534L6.97852 0V6.00143H12.4561L9.15645 0.250534Z" fill="#E9E9E9"/>
</svg>
