<?xml version="1.0" encoding="UTF-8"?><svg id="Layer_2" xmlns="http://www.w3.org/2000/svg" xmlns:xlink="http://www.w3.org/1999/xlink" viewBox="0 0 1032.82 254.14"><defs><style>.cls-1{fill:none;}.cls-2{clip-path:url(#clippath);}.cls-3{fill:#fff;}.cls-4{fill:#9a2926;}.cls-5{fill:#dc2728;}.cls-6{fill:#1c1c1a;}.cls-7{fill:#555251;}</style><clipPath id="clippath"><rect class="cls-1" x="841.63" y="62.95" width="191.19" height="191.19"/></clipPath></defs><g id="Layer_1-2"><g><path class="cls-7" d="M652.19,9.44c0-.08,0-.15,.01-.22,0-.07,.01-.14,.01-.23v-.19c0-1.36-.24-2.47-.71-3.34-.47-.86-1.19-1.5-2.16-1.9-.97-.4-2.14-.6-3.52-.6-.81,0-1.58,.1-2.32,.29-.74,.19-1.4,.5-1.97,.92-.58,.42-1.08,.96-1.5,1.6-.42,.64-.75,1.42-.99,2.35-.24,.92-.36,1.97-.36,3.14,0,1.23,.12,2.31,.34,3.25,.23,.94,.56,1.75,.99,2.45s.94,1.26,1.52,1.71c.58,.45,1.26,.78,2.01,.99s1.56,.32,2.4,.32c1.44,0,2.63-.23,3.57-.69,.94-.46,1.63-1.13,2.07-2s.66-1.92,.66-3.15v-.63h2.88c-.02,.08-.02,.16,0,.24,.02,.09,.02,.18,.01,.29s-.01,.22-.01,.33c0,1.04-.12,1.98-.34,2.83-.23,.85-.6,1.62-1.09,2.29-.5,.67-1.11,1.25-1.83,1.73s-1.57,.83-2.56,1.06c-.99,.23-2.1,.35-3.32,.35s-2.37-.14-3.42-.43c-1.05-.29-2-.73-2.85-1.32-.84-.59-1.57-1.34-2.17-2.24-.6-.9-1.07-1.96-1.4-3.17-.33-1.21-.49-2.57-.49-4.09s.16-2.73,.47-3.87c.32-1.14,.76-2.16,1.32-3.06,.57-.9,1.27-1.65,2.11-2.24,.84-.59,1.79-1.05,2.85-1.37s2.24-.47,3.57-.47c1.25,0,2.36,.12,3.35,.37s1.84,.61,2.56,1.08c.72,.47,1.31,1.03,1.77,1.67,.46,.64,.81,1.38,1.05,2.2,.24,.83,.36,1.72,.36,2.68v.7c0,.11,0,.24-.03,.39h-2.88Z"/><path class="cls-7" d="M659.73,4.98h2.96c-.04,.92-.06,1.9-.07,2.95,0,1.05-.01,2.19-.01,3.44v4.23c0,1.02,.16,1.88,.47,2.58,.32,.7,.82,1.22,1.51,1.57,.69,.35,1.6,.52,2.73,.52,.81,0,1.56-.1,2.27-.29,.71-.19,1.32-.51,1.84-.96,.52-.45,.93-1.02,1.24-1.7,.31-.68,.46-1.45,.46-2.32v-3.25c0-.92,0-1.73-.01-2.42s-.01-1.29-.01-1.81,0-.98-.01-1.4c0-.41-.01-.79-.01-1.14h2.93c-.02,.75-.03,1.54-.04,2.37s-.01,1.73-.01,2.69v3.31c0,1.9,0,3.58,.01,5.05s.02,2.76,.04,3.87h-2.93c.02-.52,.03-1.01,.04-1.47,0-.46,.02-.93,.03-1.42,0-.49,.02-1.05,.04-1.68l.17,1.38-.63-.12,.69-1.15c-.25,1.04-.7,1.91-1.34,2.62-.64,.71-1.45,1.24-2.43,1.58-.98,.34-2.12,.52-3.42,.52-1.06,0-1.98-.14-2.78-.42-.8-.28-1.48-.68-2.04-1.21-.57-.53-.98-1.19-1.25-1.99-.27-.79-.4-1.72-.4-2.78,0-.71,0-1.32,.01-1.84,0-.52,.01-.99,.01-1.41s0-.83,.01-1.21c0-.38,.01-.8,.01-1.24,0-.98,0-1.91-.03-2.79-.02-.88-.04-1.77-.06-2.68Z"/><path class="cls-7" d="M697.25,20.37c.9,0,1.67-.06,2.32-.17,.64-.12,1.16-.29,1.55-.52,.39-.23,.69-.52,.88-.88,.19-.36,.29-.76,.29-1.22s-.09-.86-.27-1.19c-.18-.34-.49-.63-.94-.88-.44-.25-1.05-.46-1.83-.63-.78-.17-1.76-.33-2.95-.46-1.36-.15-2.48-.36-3.35-.63-.87-.27-1.57-.61-2.1-1.04-.53-.42-.9-.91-1.12-1.47-.22-.56-.33-1.17-.33-1.84,0-.82,.18-1.54,.53-2.16,.35-.61,.84-1.12,1.47-1.52,.62-.4,1.41-.7,2.36-.89,.95-.19,2.05-.29,3.29-.29,1,0,1.91,.06,2.73,.19,.82,.12,1.53,.33,2.11,.6s1.08,.62,1.48,1.02c.4,.4,.7,.87,.89,1.41,.19,.54,.29,1.15,.29,1.84,0,.12,0,.23-.01,.35,0,.12-.01,.23-.01,.35s0,.26-.03,.43c-.08-.02-.2-.03-.36-.04-.16,0-.33-.01-.49-.01h-1.21c-.22,0-.41,0-.56,.03,0-.13,0-.29,.01-.46,0-.17,.01-.29,.01-.35,0-.54-.08-1-.25-1.38s-.45-.71-.85-.99c-.4-.28-.92-.47-1.54-.59-.62-.12-1.38-.17-2.26-.17s-1.58,.05-2.2,.16c-.62,.11-1.13,.27-1.53,.5-.39,.23-.69,.5-.88,.82-.19,.32-.29,.71-.29,1.17,0,.38,.08,.74,.23,1.08,.15,.34,.45,.62,.88,.86,.43,.24,1.02,.45,1.77,.62,.75,.17,1.71,.33,2.88,.46,1.36,.13,2.49,.34,3.4,.62,.9,.28,1.62,.61,2.17,1.01,.55,.39,.93,.88,1.15,1.45,.22,.58,.33,1.27,.33,2.07s-.15,1.53-.45,2.17c-.3,.64-.76,1.18-1.4,1.6s-1.43,.73-2.4,.93c-.97,.2-2.12,.3-3.44,.3-1.15,0-2.17-.07-3.05-.22-.88-.14-1.64-.36-2.27-.65-.63-.29-1.17-.65-1.6-1.08s-.74-.92-.92-1.45c-.18-.54-.27-1.18-.27-1.93,0-.12,0-.22,.01-.3,0-.09,.01-.18,.01-.29v-.36c.13,.02,.27,.03,.42,.04,.14,0,.29,.02,.45,.03s.32,.01,.49,.01c.25,0,.48,0,.71-.03,.22-.02,.41-.04,.56-.06-.04,.13-.06,.26-.06,.39v.3c0,.59,.12,1.11,.34,1.54,.23,.43,.57,.78,1.01,1.04,.44,.26,1.02,.45,1.73,.58s1.53,.19,2.45,.19Z"/><path class="cls-7" d="M712.24,26.3h-2.93c.02-1,.03-1.96,.04-2.89,0-.93,.02-1.85,.03-2.76,0-.91,.01-1.82,.01-2.72V9.83c0-.78,0-1.45-.01-2.03,0-.58-.02-1.09-.03-1.54,0-.45-.01-.88-.01-1.28h2.91c-.02,.37-.03,.71-.03,1.05v1.05c0,.36-.01,.74-.04,1.12-.03,.38-.06,.84-.1,1.38l-.12-1.21,.6,.12-.72,.98c.23-.69,.53-1.33,.91-1.91,.37-.58,.86-1.08,1.47-1.5,.6-.41,1.31-.75,2.12-1.01s1.72-.39,2.73-.39c.9,0,1.74,.13,2.5,.39s1.43,.64,1.99,1.14,1.03,1.11,1.41,1.83c.38,.72,.68,1.54,.89,2.46s.32,1.95,.32,3.08c0,1.4-.17,2.66-.52,3.77-.34,1.11-.83,2.06-1.45,2.85-.62,.79-1.38,1.38-2.26,1.78-.88,.4-1.91,.6-3.08,.6-.69,0-1.36-.06-2-.19-.64-.12-1.23-.28-1.77-.47-.54-.19-1.02-.43-1.45-.72-.43-.29-.81-.6-1.12-.93s-.55-.69-.71-1.05l.69,.75-.6,.29,.2-1.18c.04,.5,.06,.95,.07,1.37,0,.41,.01,.81,.01,1.19v1.27c0,.56,0,1.11,.01,1.65,0,.55,.02,1.14,.04,1.77Zm11.11-12.75c0-1.07-.12-2.02-.35-2.85-.23-.83-.57-1.52-1.01-2.07-.44-.56-.99-.98-1.64-1.27-.65-.29-1.41-.43-2.27-.43-.79,0-1.54,.11-2.26,.33-.72,.22-1.35,.55-1.9,.98-.55,.43-.98,.99-1.29,1.68s-.47,1.5-.47,2.42l.03,6.79-.37-.89c.46,.42,1.01,.79,1.65,1.09s1.33,.55,2.07,.72c.74,.17,1.54,.26,2.4,.26s1.69-.15,2.36-.46c.67-.31,1.24-.74,1.7-1.31,.46-.57,.8-1.27,1.02-2.11s.33-1.8,.33-2.88Z"/><path class="cls-7" d="M733.24,22.27h-2.99c.02-1.21,.04-2.5,.06-3.87,.02-1.37,.03-2.99,.03-4.85s0-3.39-.03-4.72c-.02-1.32-.04-2.61-.06-3.86h2.53c0,.5-.01,1.03-.04,1.6-.03,.57-.05,1.19-.07,1.87-.02,.68-.06,1.43-.12,2.26l-.14-1.87,.58,.09-.55,1.75c.15-1.04,.39-1.93,.72-2.68,.33-.75,.75-1.36,1.28-1.84,.53-.48,1.14-.84,1.83-1.08,.69-.24,1.48-.36,2.36-.36,.63,0,1.22,.06,1.77,.17,.55,.12,1.04,.28,1.48,.49-.04,.15-.08,.34-.12,.58s-.08,.47-.13,.72c-.05,.25-.09,.49-.12,.73-.03,.24-.05,.46-.07,.65-.48-.23-.98-.4-1.51-.5-.53-.1-1.08-.16-1.65-.16-.75,0-1.43,.11-2.06,.32-.62,.21-1.16,.55-1.61,1.01-.45,.46-.8,1.07-1.05,1.83-.25,.76-.37,1.66-.37,2.69v2.43c0,.85,0,1.69,.01,2.52,0,.83,.02,1.59,.03,2.3,0,.71,.01,1.3,.01,1.78Z"/><path class="cls-7" d="M748.58,1.73c0,.19-.03,.37-.1,.53-.07,.16-.17,.31-.32,.43-.14,.12-.35,.22-.6,.27s-.6,.09-1.02,.09c-.29,0-.56-.02-.81-.06-.25-.04-.45-.1-.6-.17-.15-.08-.28-.17-.37-.29s-.16-.23-.19-.36c-.03-.12-.04-.27-.04-.45,0-.21,.03-.4,.1-.56,.07-.16,.17-.3,.3-.4,.13-.11,.34-.19,.6-.25s.6-.09,1.01-.09c.33,0,.6,.02,.83,.06,.23,.04,.42,.09,.58,.16,.15,.07,.28,.16,.37,.27,.1,.12,.16,.24,.2,.36,.04,.12,.06,.27,.06,.45Zm-.58,20.54h-2.91c.02-.71,.03-1.41,.04-2.12,0-.7,.01-1.4,.01-2.1v-7.11c0-.72,0-1.41-.01-2.07,0-.66-.02-1.31-.03-1.94-.01-.63-.01-1.29-.01-1.96h2.91c-.02,.67-.03,1.32-.04,1.96s-.02,1.28-.03,1.94c0,.66-.01,1.36-.01,2.1v4.98c0,.8,0,1.53,.01,2.21,0,.68,.02,1.36,.03,2.03,0,.67,.02,1.36,.04,2.07Z"/><path class="cls-7" d="M756.38,20.49c0-1.82,0-3.45-.01-4.88,0-1.43-.02-2.7-.03-3.83,0-1.12-.02-2.1-.04-2.93-.02-.83-.04-1.57-.06-2.2s-.04-1.19-.06-1.67h2.94c-.02,.59-.03,1.18-.03,1.74s0,1.13-.01,1.7c0,.57-.01,1.14-.01,1.71v1.93c0,.4,0,.9,.01,1.5,0,.6,.02,1.26,.03,1.99,0,.73,.02,1.5,.03,2.32,0,.82,.01,1.7,.01,2.66,0,.81-.06,1.52-.19,2.16-.12,.63-.33,1.19-.6,1.68-.28,.49-.63,.89-1.06,1.21s-.93,.56-1.5,.73c-.57,.17-1.21,.26-1.94,.26-.67,0-1.29-.06-1.87-.17-.58-.12-1.11-.32-1.61-.6,.04-.1,.07-.23,.1-.39,.03-.16,.06-.36,.09-.58,.03-.22,.05-.44,.07-.66,.02-.22,.04-.41,.06-.58,.02-.16,.04-.29,.06-.39,.38,.21,.81,.39,1.28,.53,.47,.14,.98,.22,1.54,.22,.94,0,1.64-.27,2.12-.82,.47-.55,.71-1.42,.71-2.63Zm3.31-18.76c0,.19-.03,.37-.09,.53-.06,.16-.16,.31-.32,.43s-.36,.22-.63,.27-.58,.09-.92,.09c-.36,0-.66-.02-.88-.06-.22-.04-.42-.1-.59-.17-.17-.08-.3-.17-.39-.29s-.14-.23-.17-.36c-.03-.12-.04-.27-.04-.45,0-.21,.03-.4,.09-.56,.06-.16,.16-.3,.32-.4s.36-.19,.62-.25,.61-.09,1.05-.09c.27,0,.52,.02,.76,.06s.44,.09,.59,.16,.27,.16,.36,.27c.09,.12,.15,.24,.19,.36,.04,.12,.06,.27,.06,.45Z"/><path class="cls-7" d="M768.14,1.73c0,.19-.03,.37-.1,.53-.07,.16-.17,.31-.32,.43-.14,.12-.35,.22-.6,.27s-.6,.09-1.02,.09c-.29,0-.56-.02-.81-.06-.25-.04-.45-.1-.6-.17-.15-.08-.28-.17-.37-.29s-.16-.23-.19-.36c-.03-.12-.04-.27-.04-.45,0-.21,.03-.4,.1-.56,.07-.16,.17-.3,.3-.4,.13-.11,.34-.19,.6-.25s.6-.09,1.01-.09c.33,0,.6,.02,.83,.06,.23,.04,.42,.09,.58,.16,.15,.07,.28,.16,.37,.27,.1,.12,.16,.24,.2,.36,.04,.12,.06,.27,.06,.45Zm-.58,20.54h-2.91c.02-.71,.03-1.41,.04-2.12,0-.7,.01-1.4,.01-2.1v-7.11c0-.72,0-1.41-.01-2.07,0-.66-.02-1.31-.03-1.94-.01-.63-.01-1.29-.01-1.96h2.91c-.02,.67-.03,1.32-.04,1.96s-.02,1.28-.03,1.94c0,.66-.01,1.36-.01,2.1v4.98c0,.8,0,1.53,.01,2.21,0,.68,.02,1.36,.03,2.03,0,.67,.02,1.36,.04,2.07Z"/><path class="cls-7" d="M789.38,22.27h-2.96c.04-.9,.06-1.86,.07-2.88s.02-2.15,.03-3.41c0-1.26,.01-2.64,.01-4.16,0-1.05-.16-1.93-.49-2.63s-.84-1.23-1.54-1.58c-.7-.35-1.61-.53-2.72-.53-.83,0-1.58,.11-2.27,.32-.69,.21-1.31,.53-1.86,.96s-.96,.97-1.25,1.63-.43,1.44-.43,2.36v3.17c0,.9,0,1.7,.01,2.4,0,.7,0,1.31,0,1.83,0,.52,0,.98,.01,1.38,.02,.4,.03,.79,.03,1.15h-2.93c0-.77,0-1.56,.03-2.37,.02-.81,.03-1.71,.04-2.69,0-.98,.01-2.07,.01-3.28,0-1.9,0-3.59-.03-5.06-.02-1.48-.04-2.77-.06-3.88h2.91c0,.52-.01,1.01-.03,1.48-.02,.47-.03,.94-.04,1.42s-.01,1.04-.01,1.67l-.14-1.38,.6,.12-.69,1.15c.27-1.05,.73-1.93,1.38-2.62,.65-.69,1.48-1.21,2.47-1.57,1-.35,2.12-.53,3.37-.53,1.05,0,1.98,.14,2.78,.42,.8,.28,1.47,.69,2.01,1.22,.55,.54,.95,1.21,1.22,2.03,.27,.82,.4,1.78,.4,2.89v1.8c0,.51,0,.96-.01,1.35-.01,.39-.01,.78-.01,1.15v1.17c0,1.02,0,1.97,.03,2.86,.02,.89,.04,1.78,.06,2.66Z"/><path class="cls-7" d="M794.33,4.98h2.96c-.04,.92-.06,1.9-.07,2.95,0,1.05-.01,2.19-.01,3.44v4.23c0,1.02,.16,1.88,.47,2.58,.32,.7,.82,1.22,1.51,1.57,.69,.35,1.6,.52,2.73,.52,.81,0,1.56-.1,2.27-.29,.71-.19,1.32-.51,1.84-.96,.52-.45,.93-1.02,1.24-1.7,.31-.68,.46-1.45,.46-2.32v-3.25c0-.92,0-1.73-.01-2.42s-.01-1.29-.01-1.81,0-.98-.01-1.4c0-.41-.01-.79-.01-1.14h2.93c-.02,.75-.03,1.54-.04,2.37s-.01,1.73-.01,2.69v3.31c0,1.9,0,3.58,.01,5.05s.02,2.76,.04,3.87h-2.93c.02-.52,.03-1.01,.04-1.47,0-.46,.02-.93,.03-1.42,0-.49,.02-1.05,.04-1.68l.17,1.38-.63-.12,.69-1.15c-.25,1.04-.7,1.91-1.34,2.62-.64,.71-1.45,1.24-2.43,1.58-.98,.34-2.12,.52-3.42,.52-1.06,0-1.98-.14-2.78-.42-.8-.28-1.48-.68-2.04-1.21-.57-.53-.98-1.19-1.25-1.99-.27-.79-.4-1.72-.4-2.78,0-.71,0-1.32,.01-1.84,0-.52,.01-.99,.01-1.41s0-.83,.01-1.21c0-.38,.01-.8,.01-1.24,0-.98,0-1.91-.03-2.79-.02-.88-.04-1.77-.06-2.68Z"/><path class="cls-7" d="M818.76,22.27h-2.93c.04-.88,.06-1.77,.06-2.68s0-1.81,.01-2.73,.01-1.85,.01-2.78v-6.04c0-.97,0-1.88-.01-2.75s-.02-1.73-.03-2.59-.02-1.76-.04-2.71h2.96c-.04,.9-.06,1.78-.06,2.65s0,1.74-.01,2.62c0,.88-.01,1.82-.01,2.81v8.91c0,.9,0,1.78,.01,2.65s.02,1.75,.04,2.65Z"/><path class="cls-7" d="M824.28,4.72c.67,0,1.18,.19,1.54,.56,.35,.37,.53,.9,.53,1.57s-.17,1.19-.52,1.55c-.34,.37-.86,.55-1.55,.55-.65,0-1.16-.18-1.51-.55-.36-.36-.53-.88-.53-1.55s.18-1.19,.55-1.57,.86-.56,1.5-.56Zm0,13.44c.65,0,1.16,.18,1.51,.53s.53,.88,.53,1.57-.17,1.2-.52,1.58-.85,.58-1.53,.58-1.18-.19-1.52-.58c-.35-.38-.52-.91-.52-1.58s.18-1.21,.55-1.57,.86-.53,1.5-.53Z"/></g><g><path class="cls-7" d="M9.42,22.27h-3.25c.04-1.04,.07-2.09,.09-3.15,.02-1.06,.03-2.22,.03-3.47v-4.17c0-2.28,0-4.29-.01-6.03,0-1.74-.04-3.32-.1-4.76H15.03c1.27,0,2.41,.14,3.44,.42,1.03,.28,1.89,.72,2.59,1.32,.7,.6,1.25,1.39,1.65,2.36,.4,.97,.6,2.14,.6,3.52,0,1.04-.13,1.96-.4,2.76s-.64,1.5-1.11,2.09c-.47,.58-1.06,1.06-1.77,1.44-.71,.37-1.5,.65-2.37,.83-.87,.18-1.82,.27-2.83,.27h-2.14c-.34,0-.68,0-1.04-.01-.36,0-.76-.02-1.22-.03-.46,0-.98-.01-1.55-.01v-2.53h.72c.33,0,.74,0,1.25,.01,.51,0,1.04,.02,1.61,.03,.57,0,1.17,.01,1.8,.01,1.06,0,1.97-.09,2.73-.27,.77-.18,1.4-.47,1.91-.86,.51-.39,.89-.89,1.15-1.5,.26-.6,.39-1.35,.39-2.23s-.12-1.71-.37-2.36-.62-1.17-1.12-1.57c-.5-.39-1.12-.69-1.86-.88-.74-.19-1.59-.29-2.55-.29h-1.01c-.4,0-.84,0-1.32,.01-.48,0-.95,.01-1.41,.01s-.88,0-1.25,.01-.66,.02-.85,.04l.52-1.29V7.94c0,1.94,0,3.79,.01,5.55s.02,3.39,.04,4.88,.07,2.79,.14,3.9Z"/><path class="cls-7" d="M30.34,22.27h-2.99c.02-1.21,.04-2.5,.06-3.87,.02-1.37,.03-2.99,.03-4.85s0-3.39-.03-4.72c-.02-1.32-.04-2.61-.06-3.86h2.53c0,.5-.01,1.03-.04,1.6-.03,.57-.05,1.19-.07,1.87-.02,.68-.06,1.43-.12,2.26l-.14-1.87,.58,.09-.55,1.75c.15-1.04,.39-1.93,.72-2.68,.33-.75,.75-1.36,1.28-1.84,.53-.48,1.14-.84,1.83-1.08,.69-.24,1.48-.36,2.36-.36,.63,0,1.22,.06,1.77,.17,.55,.12,1.04,.28,1.48,.49-.04,.15-.08,.34-.12,.58s-.08,.47-.13,.72c-.05,.25-.09,.49-.12,.73-.03,.24-.05,.46-.07,.65-.48-.23-.98-.4-1.51-.5-.53-.1-1.08-.16-1.65-.16-.75,0-1.43,.11-2.06,.32-.62,.21-1.16,.55-1.61,1.01-.45,.46-.8,1.07-1.05,1.83-.25,.76-.37,1.66-.37,2.69v2.43c0,.85,0,1.69,.01,2.52,0,.83,.02,1.59,.03,2.3,0,.71,.01,1.3,.01,1.78Z"/><path class="cls-7" d="M57.53,13.41c0,1.46-.22,2.77-.65,3.93-.43,1.16-1.04,2.13-1.83,2.91-.79,.78-1.72,1.37-2.81,1.77-1.08,.4-2.27,.6-3.55,.6s-2.47-.2-3.55-.6c-1.08-.4-2.01-.99-2.78-1.77-.77-.78-1.36-1.75-1.78-2.91-.42-1.16-.63-2.47-.63-3.93s.22-2.74,.65-3.84c.43-1.1,1.04-2.02,1.84-2.76,.8-.74,1.73-1.29,2.79-1.67s2.22-.56,3.47-.56,2.4,.19,3.47,.56c1.06,.37,1.99,.93,2.79,1.67,.79,.74,1.42,1.66,1.88,2.76,.46,1.1,.69,2.38,.69,3.84Zm-2.79,.12c0-1.13-.14-2.1-.43-2.92-.29-.81-.71-1.49-1.25-2.01s-1.18-.92-1.91-1.17c-.73-.25-1.54-.37-2.45-.37s-1.69,.12-2.42,.37-1.37,.63-1.91,1.15c-.55,.52-.97,1.18-1.28,1.99-.31,.81-.46,1.78-.46,2.94s.15,2.09,.46,2.92c.31,.83,.73,1.54,1.27,2.12,.54,.58,1.17,1.01,1.91,1.29,.74,.29,1.55,.43,2.43,.43s1.75-.14,2.47-.43c.73-.29,1.37-.72,1.91-1.29,.55-.58,.96-1.28,1.24-2.12,.28-.83,.42-1.8,.42-2.89Z"/><path class="cls-7" d="M64.41,15.6l.92,.23c-.36,.25-.67,.5-.91,.75-.24,.25-.41,.5-.52,.75-.11,.25-.16,.51-.16,.78,0,.36,.14,.63,.43,.81s.68,.26,1.18,.26c1.02,0,1.97-.02,2.86-.07,.89-.05,1.73-.1,2.5-.14,.78-.05,1.51-.07,2.2-.07,1.05,0,1.95,.12,2.68,.36,.73,.24,1.27,.61,1.61,1.12,.35,.51,.52,1.18,.52,2.03,0,.42-.06,.82-.17,1.21-.12,.38-.31,.74-.59,1.06-.28,.33-.65,.61-1.11,.85-.46,.24-1.04,.45-1.74,.62-.7,.17-1.51,.31-2.43,.4-.92,.1-1.98,.14-3.17,.14-1.54,0-2.83-.05-3.87-.16-1.05-.11-1.9-.25-2.56-.45-.66-.19-1.16-.42-1.48-.68s-.55-.54-.68-.85c-.12-.31-.19-.64-.19-1.01,0-.38,.1-.73,.29-1.05s.45-.59,.76-.83c.32-.24,.72-.46,1.21-.65,.49-.19,1.05-.33,1.68-.4h.89c-.69,.31-1.23,.64-1.61,1.01-.38,.37-.58,.74-.58,1.12,0,.27,.05,.51,.16,.73,.11,.22,.3,.4,.59,.53,.29,.13,.66,.26,1.12,.39,.46,.12,1.05,.21,1.78,.24,.73,.04,1.57,.06,2.53,.06,1.19,0,2.19-.04,3.01-.13,.81-.09,1.49-.23,2.01-.42s.92-.44,1.18-.73c.26-.3,.39-.64,.39-1.02s-.1-.66-.29-.89c-.19-.23-.5-.39-.92-.47-.42-.09-.96-.13-1.61-.13-.56,0-1.16,0-1.8,.01-.64,.01-1.3,.02-1.97,.03-.67,0-1.31,.03-1.93,.07-.61,.04-1.18,.06-1.7,.06-.75,0-1.37-.06-1.86-.17s-.88-.27-1.18-.47c-.3-.2-.5-.43-.6-.69-.11-.26-.16-.54-.16-.85,0-.56,.16-1.05,.47-1.48s.73-.8,1.24-1.09c.51-.3,1.02-.53,1.54-.71Zm-3.8-4.75c0-.94,.17-1.77,.52-2.5,.34-.73,.84-1.35,1.5-1.86,.65-.51,1.46-.89,2.42-1.14,.96-.25,2.06-.37,3.31-.37h9.73v2.24c-.36,0-.76,0-1.19-.01s-.89-.03-1.38-.07c-.49-.04-1-.07-1.53-.09-.53-.02-1.04-.04-1.54-.06s-.96-.04-1.4-.06-.8-.04-1.11-.06l.12-.14c.94,.08,1.75,.2,2.45,.37,.69,.17,1.28,.39,1.75,.66,.48,.27,.87,.59,1.17,.95,.3,.36,.51,.78,.65,1.25,.13,.47,.2,1,.2,1.6,0,.48-.06,.94-.19,1.38s-.33,.84-.6,1.21c-.28,.37-.63,.7-1.05,1.01-.42,.31-.93,.56-1.53,.76s-1.27,.35-2.01,.45-1.59,.14-2.53,.14c-1.36,0-2.53-.12-3.5-.36-.97-.24-1.76-.61-2.39-1.12-.62-.51-1.09-1.11-1.4-1.81-.31-.7-.46-1.49-.46-2.37Zm2.04,10.21v-.46h.66v.46h-.66Zm11.16-10.13c0-.79-.19-1.47-.58-2.04-.38-.58-.96-1.03-1.74-1.37-.78-.34-1.8-.5-3.06-.5s-2.29,.17-3.06,.52c-.78,.34-1.35,.81-1.71,1.38-.37,.58-.55,1.24-.55,1.99s.18,1.39,.53,1.93c.35,.54,.93,.95,1.74,1.25,.81,.3,1.82,.45,3.05,.45s2.27-.14,3.06-.42,1.38-.69,1.76-1.24,.56-1.19,.56-1.94Zm-10.04,5.12v-.81h.78l.03,.81h-.81Zm7.68-8.78v-.55h1.35v.58l-1.35-.03Z"/><path class="cls-7" d="M84.63,22.27h-2.99c.02-1.21,.04-2.5,.06-3.87,.02-1.37,.03-2.99,.03-4.85s0-3.39-.03-4.72c-.02-1.32-.04-2.61-.06-3.86h2.53c0,.5-.01,1.03-.04,1.6-.03,.57-.05,1.19-.07,1.87-.02,.68-.06,1.43-.12,2.26l-.14-1.87,.58,.09-.55,1.75c.15-1.04,.39-1.93,.72-2.68,.33-.75,.75-1.36,1.28-1.84,.53-.48,1.14-.84,1.83-1.08,.69-.24,1.48-.36,2.36-.36,.63,0,1.22,.06,1.77,.17,.55,.12,1.04,.28,1.48,.49-.04,.15-.08,.34-.12,.58s-.08,.47-.13,.72c-.05,.25-.09,.49-.12,.73-.03,.24-.05,.46-.07,.65-.48-.23-.98-.4-1.51-.5-.53-.1-1.08-.16-1.65-.16-.75,0-1.43,.11-2.06,.32-.62,.21-1.16,.55-1.61,1.01-.45,.46-.8,1.07-1.05,1.83-.25,.76-.37,1.66-.37,2.69v2.43c0,.85,0,1.69,.01,2.52,0,.83,.02,1.59,.03,2.3,0,.71,.01,1.3,.01,1.78Z"/><path class="cls-7" d="M110.38,22.27h-2.33c-.15,0-.28,0-.37-.03-.1-.02-.18-.06-.25-.13s-.11-.16-.13-.27c-.02-.12-.03-.27-.03-.46,0-.33,0-.7,.01-1.11,0-.41,.02-.83,.04-1.27s.04-.82,.06-1.17l.23,1.06-.72-.06,.58-1.09c-.17,1.06-.57,1.94-1.18,2.66-.61,.72-1.42,1.26-2.43,1.61-1.01,.35-2.21,.53-3.61,.53-.96,0-1.81-.1-2.55-.29-.74-.19-1.37-.48-1.9-.86-.53-.38-.92-.87-1.18-1.47-.26-.59-.39-1.32-.39-2.19,0-1.17,.26-2.11,.79-2.82s1.32-1.25,2.39-1.61,2.41-.55,4.04-.55c1.34,0,2.54,.05,3.58,.16,1.04,.11,1.88,.24,2.52,.39v1.35c-.83-.15-1.72-.26-2.69-.32-.97-.06-1.98-.09-3.04-.09-.83,0-1.54,.06-2.16,.19-.61,.12-1.12,.32-1.51,.58-.39,.26-.7,.58-.91,.98-.21,.39-.32,.86-.32,1.4,0,.48,.08,.92,.24,1.31,.16,.39,.43,.72,.79,.98s.82,.45,1.35,.56c.54,.11,1.18,.17,1.93,.17,.98,0,1.84-.11,2.59-.33,.75-.22,1.38-.55,1.88-.99,.51-.44,.89-.96,1.14-1.57,.25-.6,.37-1.26,.37-1.97,0-.48,0-.97,.01-1.48,0-.51,.02-1.01,.04-1.5,.02-.49,.03-.91,.03-1.25,0-.59-.09-1.17-.27-1.73s-.47-1.02-.86-1.4c-.39-.37-.89-.67-1.5-.89-.6-.22-1.34-.33-2.2-.33s-1.55,.09-2.17,.27c-.62,.18-1.14,.46-1.55,.82-.41,.37-.71,.82-.89,1.35s-.26,1.15-.24,1.84h-1.75c-.17,0-.34,0-.49,.01-.15,0-.31,.01-.46,.01-.02-.75,.05-1.46,.22-2.14,.16-.68,.45-1.3,.85-1.87,.4-.57,.91-1.04,1.51-1.41,.6-.37,1.32-.68,2.14-.91,.83-.23,1.76-.34,2.82-.34,1.4,0,2.58,.17,3.54,.52,.96,.35,1.74,.81,2.34,1.4s1.04,1.28,1.31,2.09c.27,.81,.4,1.66,.4,2.56,0,.69,0,1.35-.03,1.97-.02,.62-.03,1.25-.04,1.87-.01,.62-.01,1.27-.01,1.94,0,.54,0,1.06,.03,1.58,.02,.52,.04,1.01,.07,1.48,.03,.47,.07,.9,.13,1.29,.06,.39,.11,.71,.17,.94Z"/><path class="cls-7" d="M141.11,22.27h-2.88c.04-.79,.06-1.75,.07-2.89s.01-2.41,.01-3.8v-4.39c0-1.36-.29-2.38-.88-3.06s-1.56-1.02-2.92-1.02c-.71,0-1.36,.1-1.94,.3s-1.1,.51-1.54,.92c-.44,.41-.8,.93-1.07,1.55s-.4,1.38-.4,2.26v7.06c0,.59,0,1.12,.01,1.61,0,.49,.02,.97,.04,1.45h-2.76c.02-.59,.04-1.24,.06-1.94s.03-1.49,.04-2.37c0-.88,.01-1.87,.01-2.98v-3.7c0-1.4-.29-2.45-.88-3.14-.59-.69-1.59-1.04-3.01-1.04-.67,0-1.3,.1-1.9,.3s-1.12,.51-1.57,.92c-.45,.41-.8,.93-1.05,1.54-.25,.61-.37,1.37-.37,2.27v7.06c0,.64,0,1.22,.01,1.74,0,.52,.01,.96,.01,1.32h-2.79c.04-1.19,.06-2.43,.07-3.73,0-1.29,.01-2.82,.01-4.59,0-1.92,0-3.57-.01-4.96,0-1.39-.03-2.73-.07-4.01h2.88c-.02,.5-.03,.97-.04,1.41s-.02,.89-.03,1.34c0,.45-.03,.99-.07,1.63l-.14-1.29,.63,.14-.69,1.06c.29-1.02,.71-1.86,1.25-2.53,.55-.67,1.22-1.17,2.03-1.51s1.75-.5,2.82-.5c.79,0,1.52,.09,2.19,.27,.67,.18,1.23,.46,1.68,.85s.81,.87,1.08,1.45,.41,1.28,.43,2.09l-.29-1.18,.6,.12-.66,1.04c.27-1.07,.69-1.96,1.27-2.65s1.29-1.19,2.14-1.51,1.82-.47,2.89-.47c.88,0,1.68,.11,2.39,.33,.71,.22,1.31,.56,1.8,1.01,.49,.45,.86,1.02,1.11,1.71s.37,1.52,.37,2.47c0,.5,0,1.02-.01,1.57,0,.55-.02,1.08-.03,1.61s-.02,1.05-.03,1.58c0,.53-.01,1.03-.01,1.51,0,.94,.01,1.93,.04,2.96,.03,1.04,.05,1.97,.07,2.79Z"/><path class="cls-7" d="M158.84,1.73c0,.19-.03,.37-.1,.53-.07,.16-.17,.31-.32,.43-.14,.12-.35,.22-.6,.27s-.6,.09-1.02,.09c-.29,0-.56-.02-.81-.06-.25-.04-.45-.1-.6-.17-.15-.08-.28-.17-.37-.29s-.16-.23-.19-.36c-.03-.12-.04-.27-.04-.45,0-.21,.03-.4,.1-.56,.07-.16,.17-.3,.3-.4,.13-.11,.34-.19,.6-.25s.6-.09,1.01-.09c.33,0,.6,.02,.83,.06,.23,.04,.42,.09,.58,.16,.15,.07,.28,.16,.37,.27,.1,.12,.16,.24,.2,.36,.04,.12,.06,.27,.06,.45Zm-.58,20.54h-2.91c.02-.71,.03-1.41,.04-2.12,0-.7,.01-1.4,.01-2.1v-7.11c0-.72,0-1.41-.01-2.07,0-.66-.02-1.31-.03-1.94-.01-.63-.01-1.29-.01-1.96h2.91c-.02,.67-.03,1.32-.04,1.96s-.02,1.28-.03,1.94c0,.66-.01,1.36-.01,2.1v4.98c0,.8,0,1.53,.01,2.21,0,.68,.02,1.36,.03,2.03,0,.67,.02,1.36,.04,2.07Z"/><path class="cls-7" d="M189.42,22.27h-2.88c.04-.79,.06-1.75,.07-2.89s.01-2.41,.01-3.8v-4.39c0-1.36-.29-2.38-.88-3.06s-1.56-1.02-2.92-1.02c-.71,0-1.36,.1-1.94,.3s-1.1,.51-1.54,.92c-.44,.41-.8,.93-1.07,1.55s-.4,1.38-.4,2.26v7.06c0,.59,0,1.12,.01,1.61,0,.49,.02,.97,.04,1.45h-2.76c.02-.59,.04-1.24,.06-1.94s.03-1.49,.04-2.37c0-.88,.01-1.87,.01-2.98v-3.7c0-1.4-.29-2.45-.88-3.14-.59-.69-1.59-1.04-3.01-1.04-.67,0-1.3,.1-1.9,.3s-1.12,.51-1.57,.92c-.45,.41-.8,.93-1.05,1.54-.25,.61-.37,1.37-.37,2.27v7.06c0,.64,0,1.22,.01,1.74,0,.52,.01,.96,.01,1.32h-2.79c.04-1.19,.06-2.43,.07-3.73,0-1.29,.01-2.82,.01-4.59,0-1.92,0-3.57-.01-4.96,0-1.39-.03-2.73-.07-4.01h2.88c-.02,.5-.03,.97-.04,1.41s-.02,.89-.03,1.34c0,.45-.03,.99-.07,1.63l-.14-1.29,.63,.14-.69,1.06c.29-1.02,.71-1.86,1.25-2.53,.55-.67,1.22-1.17,2.03-1.51s1.75-.5,2.82-.5c.79,0,1.52,.09,2.19,.27,.67,.18,1.23,.46,1.68,.85s.81,.87,1.08,1.45,.41,1.28,.43,2.09l-.29-1.18,.6,.12-.66,1.04c.27-1.07,.69-1.96,1.27-2.65s1.29-1.19,2.14-1.51,1.82-.47,2.89-.47c.88,0,1.68,.11,2.39,.33,.71,.22,1.31,.56,1.8,1.01,.49,.45,.86,1.02,1.11,1.71s.37,1.52,.37,2.47c0,.5,0,1.02-.01,1.57,0,.55-.02,1.08-.03,1.61s-.02,1.05-.03,1.58c0,.53-.01,1.03-.01,1.51,0,.94,.01,1.93,.04,2.96,.03,1.04,.05,1.97,.07,2.79Z"/><path class="cls-7" d="M197.51,26.3h-2.93c.02-1,.03-1.96,.04-2.89,0-.93,.02-1.85,.03-2.76,0-.91,.01-1.82,.01-2.72V9.83c0-.78,0-1.45-.01-2.03,0-.58-.02-1.09-.03-1.54,0-.45-.01-.88-.01-1.28h2.91c-.02,.37-.03,.71-.03,1.05v1.05c0,.36-.01,.74-.04,1.12-.03,.38-.06,.84-.1,1.38l-.12-1.21,.6,.12-.72,.98c.23-.69,.53-1.33,.91-1.91,.37-.58,.86-1.08,1.47-1.5,.6-.41,1.31-.75,2.12-1.01s1.72-.39,2.73-.39c.9,0,1.74,.13,2.5,.39s1.43,.64,1.99,1.14,1.03,1.11,1.41,1.83c.38,.72,.68,1.54,.89,2.46s.32,1.95,.32,3.08c0,1.4-.17,2.66-.52,3.77-.34,1.11-.83,2.06-1.45,2.85-.62,.79-1.38,1.38-2.26,1.78-.88,.4-1.91,.6-3.08,.6-.69,0-1.36-.06-2-.19-.64-.12-1.23-.28-1.77-.47-.54-.19-1.02-.43-1.45-.72-.43-.29-.81-.6-1.12-.93s-.55-.69-.71-1.05l.69,.75-.6,.29,.2-1.18c.04,.5,.06,.95,.07,1.37,0,.41,.01,.81,.01,1.19v1.27c0,.56,0,1.11,.01,1.65,0,.55,.02,1.14,.04,1.77Zm11.11-12.75c0-1.07-.12-2.02-.35-2.85-.23-.83-.57-1.52-1.01-2.07-.44-.56-.99-.98-1.64-1.27-.65-.29-1.41-.43-2.27-.43-.79,0-1.54,.11-2.26,.33-.72,.22-1.35,.55-1.9,.98-.55,.43-.98,.99-1.29,1.68s-.47,1.5-.47,2.42l.03,6.79-.37-.89c.46,.42,1.01,.79,1.65,1.09s1.33,.55,2.07,.72c.74,.17,1.54,.26,2.4,.26s1.69-.15,2.36-.46c.67-.31,1.24-.74,1.7-1.31,.46-.57,.8-1.27,1.02-2.11s.33-1.8,.33-2.88Z"/><path class="cls-7" d="M218.4,22.27h-2.93c.04-.88,.06-1.77,.06-2.68s0-1.81,.01-2.73,.01-1.85,.01-2.78v-6.04c0-.97,0-1.88-.01-2.75s-.02-1.73-.03-2.59-.02-1.76-.04-2.71h2.96c-.04,.9-.06,1.78-.06,2.65s0,1.74-.01,2.62c0,.88-.01,1.82-.01,2.81v8.91c0,.9,0,1.78,.01,2.65s.02,1.75,.04,2.65Z"/><path class="cls-7" d="M231.14,22.62c-1.06,0-2.03-.12-2.92-.35-.89-.23-1.68-.58-2.37-1.05-.69-.47-1.29-1.07-1.78-1.8-.5-.73-.88-1.57-1.15-2.53-.27-.96-.4-2.04-.4-3.25,0-1.55,.21-2.9,.62-4.03s1-2.07,1.77-2.81c.77-.74,1.68-1.29,2.73-1.67s2.23-.56,3.51-.56c1.05,0,1.99,.11,2.81,.33,.81,.22,1.52,.55,2.11,.98s1.08,.94,1.45,1.53,.64,1.24,.79,1.97c.15,.73,.23,1.52,.23,2.36v1.74c0,.26-.02,.5-.06,.73-.29,0-.66,0-1.11,.01-.45,0-.98,.01-1.58,.01h-8.99c-.75,0-1.45-.02-2.1-.06l.06-1.61c.52,.02,1.13,.03,1.84,.03h6.73c.69,0,1.31,0,1.87-.01,.56,0,.99-.03,1.29-.07l-.6,.6c.04-.19,.06-.43,.07-.72s.01-.58,.01-.89c0-.75-.09-1.42-.27-2.01-.18-.59-.48-1.1-.89-1.51s-.92-.73-1.52-.95-1.35-.33-2.23-.33-1.75,.14-2.49,.42c-.74,.28-1.36,.71-1.86,1.28-.5,.58-.88,1.31-1.14,2.2-.26,.89-.39,1.95-.39,3.18,0,1.13,.13,2.12,.4,2.98s.65,1.56,1.15,2.11c.5,.56,1.12,.97,1.87,1.24,.75,.27,1.6,.4,2.56,.4,.73,0,1.38-.07,1.94-.2,.57-.13,1.03-.32,1.4-.55,.36-.23,.65-.51,.86-.83s.36-.7,.46-1.11,.15-.86,.17-1.34c.12,0,.24,0,.37,.01s.28,.01,.43,.01h1.18c.21,0,.39,0,.55-.03,.02,.52-.01,1.04-.1,1.57-.09,.53-.23,1.02-.43,1.48s-.48,.88-.85,1.27c-.37,.38-.82,.71-1.35,.98s-1.19,.47-1.97,.62c-.78,.14-1.67,.22-2.69,.22Z"/><path class="cls-7" d="M268.89,22.27h-2.88c.04-.79,.06-1.75,.07-2.89s.01-2.41,.01-3.8v-4.39c0-1.36-.29-2.38-.88-3.06s-1.56-1.02-2.92-1.02c-.71,0-1.36,.1-1.94,.3s-1.1,.51-1.54,.92c-.44,.41-.8,.93-1.07,1.55s-.4,1.38-.4,2.26v7.06c0,.59,0,1.12,.01,1.61,0,.49,.02,.97,.04,1.45h-2.76c.02-.59,.04-1.24,.06-1.94s.03-1.49,.04-2.37c0-.88,.01-1.87,.01-2.98v-3.7c0-1.4-.29-2.45-.88-3.14-.59-.69-1.59-1.04-3.01-1.04-.67,0-1.3,.1-1.9,.3s-1.12,.51-1.57,.92c-.45,.41-.8,.93-1.05,1.54-.25,.61-.37,1.37-.37,2.27v7.06c0,.64,0,1.22,.01,1.74,0,.52,.01,.96,.01,1.32h-2.79c.04-1.19,.06-2.43,.07-3.73,0-1.29,.01-2.82,.01-4.59,0-1.92,0-3.57-.01-4.96,0-1.39-.03-2.73-.07-4.01h2.88c-.02,.5-.03,.97-.04,1.41s-.02,.89-.03,1.34c0,.45-.03,.99-.07,1.63l-.14-1.29,.63,.14-.69,1.06c.29-1.02,.71-1.86,1.25-2.53,.55-.67,1.22-1.17,2.03-1.51s1.75-.5,2.82-.5c.79,0,1.52,.09,2.19,.27,.67,.18,1.23,.46,1.68,.85s.81,.87,1.08,1.45,.41,1.28,.43,2.09l-.29-1.18,.6,.12-.66,1.04c.27-1.07,.69-1.96,1.27-2.65s1.29-1.19,2.14-1.51,1.82-.47,2.89-.47c.88,0,1.68,.11,2.39,.33,.71,.22,1.31,.56,1.8,1.01,.49,.45,.86,1.02,1.11,1.71s.37,1.52,.37,2.47c0,.5,0,1.02-.01,1.57,0,.55-.02,1.08-.03,1.61s-.02,1.05-.03,1.58c0,.53-.01,1.03-.01,1.51,0,.94,.01,1.93,.04,2.96,.03,1.04,.05,1.97,.07,2.79Z"/><path class="cls-7" d="M281.5,22.62c-1.06,0-2.03-.12-2.92-.35-.89-.23-1.68-.58-2.37-1.05-.69-.47-1.29-1.07-1.78-1.8-.5-.73-.88-1.57-1.15-2.53-.27-.96-.4-2.04-.4-3.25,0-1.55,.21-2.9,.62-4.03s1-2.07,1.77-2.81c.77-.74,1.68-1.29,2.73-1.67s2.23-.56,3.51-.56c1.05,0,1.99,.11,2.81,.33,.81,.22,1.52,.55,2.11,.98s1.08,.94,1.45,1.53,.64,1.24,.79,1.97c.15,.73,.23,1.52,.23,2.36v1.74c0,.26-.02,.5-.06,.73-.29,0-.66,0-1.11,.01-.45,0-.98,.01-1.58,.01h-8.99c-.75,0-1.45-.02-2.1-.06l.06-1.61c.52,.02,1.13,.03,1.84,.03h6.73c.69,0,1.31,0,1.87-.01,.56,0,.99-.03,1.29-.07l-.6,.6c.04-.19,.06-.43,.07-.72s.01-.58,.01-.89c0-.75-.09-1.42-.27-2.01-.18-.59-.48-1.1-.89-1.51s-.92-.73-1.52-.95-1.35-.33-2.23-.33-1.75,.14-2.49,.42c-.74,.28-1.36,.71-1.86,1.28-.5,.58-.88,1.31-1.14,2.2-.26,.89-.39,1.95-.39,3.18,0,1.13,.13,2.12,.4,2.98s.65,1.56,1.15,2.11c.5,.56,1.12,.97,1.87,1.24,.75,.27,1.6,.4,2.56,.4,.73,0,1.38-.07,1.94-.2,.57-.13,1.03-.32,1.4-.55,.36-.23,.65-.51,.86-.83s.36-.7,.46-1.11,.15-.86,.17-1.34c.12,0,.24,0,.37,.01s.28,.01,.43,.01h1.18c.21,0,.39,0,.55-.03,.02,.52-.01,1.04-.1,1.57-.09,.53-.23,1.02-.43,1.48s-.48,.88-.85,1.27c-.37,.38-.82,.71-1.35,.98s-1.19,.47-1.97,.62c-.78,.14-1.67,.22-2.69,.22Z"/><path class="cls-7" d="M309.9,22.27h-2.96c.04-.9,.06-1.86,.07-2.88s.02-2.15,.03-3.41c0-1.26,.01-2.64,.01-4.16,0-1.05-.16-1.93-.49-2.63s-.84-1.23-1.54-1.58c-.7-.35-1.61-.53-2.72-.53-.83,0-1.58,.11-2.27,.32-.69,.21-1.31,.53-1.86,.96s-.96,.97-1.25,1.63-.43,1.44-.43,2.36v3.17c0,.9,0,1.7,.01,2.4,0,.7,0,1.31,0,1.83,0,.52,0,.98,.01,1.38,.02,.4,.03,.79,.03,1.15h-2.93c0-.77,0-1.56,.03-2.37,.02-.81,.03-1.71,.04-2.69,0-.98,.01-2.07,.01-3.28,0-1.9,0-3.59-.03-5.06-.02-1.48-.04-2.77-.06-3.88h2.91c0,.52-.01,1.01-.03,1.48-.02,.47-.03,.94-.04,1.42s-.01,1.04-.01,1.67l-.14-1.38,.6,.12-.69,1.15c.27-1.05,.73-1.93,1.38-2.62,.65-.69,1.48-1.21,2.47-1.57,1-.35,2.12-.53,3.37-.53,1.05,0,1.98,.14,2.78,.42,.8,.28,1.47,.69,2.01,1.22,.55,.54,.95,1.21,1.22,2.03,.27,.82,.4,1.78,.4,2.89v1.8c0,.51,0,.96-.01,1.35-.01,.39-.01,.78-.01,1.15v1.17c0,1.02,0,1.97,.03,2.86,.02,.89,.04,1.78,.06,2.66Z"/><path class="cls-7" d="M313.15,4.98c.61,0,1.26,0,1.93,.01,.67,0,1.38,.02,2.11,.03,.74,.01,1.49,.02,2.24,.03s1.53,0,2.32-.01c.79-.02,1.58-.03,2.39-.03s1.62-.02,2.45-.06c-.02,.27-.04,.54-.06,.82-.02,.28-.03,.56-.03,.85v.89c-.5-.04-1.02-.06-1.57-.06s-1.1,0-1.67-.01c-.57,0-1.15-.02-1.75-.04-.6-.02-1.19-.03-1.77-.03h-6.59v-2.39Zm2.59-3.6c.23,0,.47,0,.73,.01,.26,0,.5,.01,.73,.01h.49c.15,0,.31,0,.47-.01s.32-.01,.47-.01c-.02,1.06-.04,2.16-.07,3.31-.03,1.15-.04,2.36-.04,3.62s0,2.58-.01,3.96c0,1.37-.01,2.8-.01,4.27,0,.73,.13,1.36,.39,1.88,.26,.53,.69,.93,1.28,1.21,.59,.28,1.38,.42,2.36,.42,.77,0,1.48-.07,2.14-.22,.66-.14,1.27-.31,1.83-.5,.02,.15,.04,.32,.06,.5,.02,.18,.04,.37,.07,.55,.03,.18,.06,.36,.09,.53,.03,.17,.05,.34,.07,.5,.02,.16,.05,.32,.09,.47-.52,.1-1.01,.2-1.48,.3-.47,.11-.96,.18-1.47,.23-.51,.05-1.07,.07-1.68,.07-.94,0-1.76-.08-2.47-.25-.71-.16-1.31-.41-1.81-.75-.5-.33-.91-.74-1.24-1.22s-.57-1-.73-1.57c-.16-.57-.25-1.19-.25-1.88v-4.49c0-.84,0-1.73,.01-2.65s.01-1.85,.01-2.79,0-1.88-.01-2.82c0-.94-.01-1.84-.01-2.71Z"/><path class="cls-7" d="M346.03,22.27h-2.33c-.15,0-.28,0-.37-.03-.1-.02-.18-.06-.25-.13s-.11-.16-.13-.27c-.02-.12-.03-.27-.03-.46,0-.33,0-.7,.01-1.11,0-.41,.02-.83,.04-1.27s.04-.82,.06-1.17l.23,1.06-.72-.06,.58-1.09c-.17,1.06-.57,1.94-1.18,2.66-.61,.72-1.42,1.26-2.43,1.61-1.01,.35-2.21,.53-3.61,.53-.96,0-1.81-.1-2.55-.29-.74-.19-1.37-.48-1.9-.86-.53-.38-.92-.87-1.18-1.47-.26-.59-.39-1.32-.39-2.19,0-1.17,.26-2.11,.79-2.82s1.32-1.25,2.39-1.61,2.41-.55,4.04-.55c1.34,0,2.54,.05,3.58,.16,1.04,.11,1.88,.24,2.52,.39v1.35c-.83-.15-1.72-.26-2.69-.32-.97-.06-1.98-.09-3.04-.09-.83,0-1.54,.06-2.16,.19-.61,.12-1.12,.32-1.51,.58-.39,.26-.7,.58-.91,.98-.21,.39-.32,.86-.32,1.4,0,.48,.08,.92,.24,1.31,.16,.39,.43,.72,.79,.98s.82,.45,1.35,.56c.54,.11,1.18,.17,1.93,.17,.98,0,1.84-.11,2.59-.33,.75-.22,1.38-.55,1.88-.99,.51-.44,.89-.96,1.14-1.57,.25-.6,.37-1.26,.37-1.97,0-.48,0-.97,.01-1.48,0-.51,.02-1.01,.04-1.5,.02-.49,.03-.91,.03-1.25,0-.59-.09-1.17-.27-1.73s-.47-1.02-.86-1.4c-.39-.37-.89-.67-1.5-.89-.6-.22-1.34-.33-2.2-.33s-1.55,.09-2.17,.27c-.62,.18-1.14,.46-1.55,.82-.41,.37-.71,.82-.89,1.35s-.26,1.15-.24,1.84h-1.75c-.17,0-.34,0-.49,.01-.15,0-.31,.01-.46,.01-.02-.75,.05-1.46,.22-2.14,.16-.68,.45-1.3,.85-1.87,.4-.57,.91-1.04,1.51-1.41,.6-.37,1.32-.68,2.14-.91,.83-.23,1.76-.34,2.82-.34,1.4,0,2.58,.17,3.54,.52,.96,.35,1.74,.81,2.34,1.4s1.04,1.28,1.31,2.09c.27,.81,.4,1.66,.4,2.56,0,.69,0,1.35-.03,1.97-.02,.62-.03,1.25-.04,1.87-.01,.62-.01,1.27-.01,1.94,0,.54,0,1.06,.03,1.58,.02,.52,.04,1.01,.07,1.48,.03,.47,.07,.9,.13,1.29,.06,.39,.11,.71,.17,.94Z"/><path class="cls-7" d="M348.88,4.98c.61,0,1.26,0,1.93,.01,.67,0,1.38,.02,2.11,.03,.74,.01,1.49,.02,2.24,.03s1.53,0,2.32-.01c.79-.02,1.58-.03,2.39-.03s1.62-.02,2.45-.06c-.02,.27-.04,.54-.06,.82-.02,.28-.03,.56-.03,.85v.89c-.5-.04-1.02-.06-1.57-.06s-1.1,0-1.67-.01c-.57,0-1.15-.02-1.75-.04-.6-.02-1.19-.03-1.77-.03h-6.59v-2.39Zm2.59-3.6c.23,0,.47,0,.73,.01,.26,0,.5,.01,.73,.01h.49c.15,0,.31,0,.47-.01s.32-.01,.47-.01c-.02,1.06-.04,2.16-.07,3.31-.03,1.15-.04,2.36-.04,3.62s0,2.58-.01,3.96c0,1.37-.01,2.8-.01,4.27,0,.73,.13,1.36,.39,1.88,.26,.53,.69,.93,1.28,1.21,.59,.28,1.38,.42,2.36,.42,.77,0,1.48-.07,2.14-.22,.66-.14,1.27-.31,1.83-.5,.02,.15,.04,.32,.06,.5,.02,.18,.04,.37,.07,.55,.03,.18,.06,.36,.09,.53,.03,.17,.05,.34,.07,.5,.02,.16,.05,.32,.09,.47-.52,.1-1.01,.2-1.48,.3-.47,.11-.96,.18-1.47,.23-.51,.05-1.07,.07-1.68,.07-.94,0-1.76-.08-2.47-.25-.71-.16-1.31-.41-1.81-.75-.5-.33-.91-.74-1.24-1.22s-.57-1-.73-1.57c-.16-.57-.25-1.19-.25-1.88v-4.49c0-.84,0-1.73,.01-2.65s.01-1.85,.01-2.79,0-1.88-.01-2.82c0-.94-.01-1.84-.01-2.71Z"/><path class="cls-7" d="M387.99,0h2.93c-.02,.83-.04,1.65-.06,2.46-.02,.82-.03,1.67-.04,2.58,0,.9-.01,1.91-.01,3.04v3.87c0,1.44,0,2.76,.01,3.97,0,1.21,.02,2.33,.04,3.37,.02,1.04,.04,2.03,.06,2.99h-2.93c.04-.35,.06-.69,.07-1.02,0-.33,.01-.7,.01-1.08,0-.46,.01-.92,.04-1.38,.03-.46,.06-.95,.1-1.47l.12,1.27-.69-.12,.63-1.09c-.1,.56-.28,1.08-.56,1.58s-.61,.97-1.01,1.42c-.39,.45-.85,.83-1.37,1.15-.52,.32-1.09,.58-1.73,.78-.63,.2-1.33,.3-2.1,.3-1.11,0-2.13-.18-3.05-.55-.92-.36-1.71-.92-2.36-1.65-.65-.74-1.15-1.66-1.5-2.76-.34-1.1-.52-2.38-.52-3.84s.18-2.79,.55-3.93,.89-2.11,1.57-2.89c.68-.79,1.5-1.37,2.46-1.76,.96-.38,2.02-.58,3.19-.58,1.04,0,1.97,.12,2.79,.36,.83,.24,1.55,.6,2.19,1.07,.63,.47,1.15,1.05,1.55,1.74l-.63-.6,.55-.14-.23,.95c-.02-.5-.04-.95-.06-1.37-.02-.41-.03-.82-.03-1.24V2.63c0-.43,0-.86,.01-1.29s0-.88-.01-1.34Zm-11.22,13.75c0,1.15,.13,2.14,.39,2.98,.26,.83,.63,1.52,1.12,2.04,.49,.53,1.07,.92,1.75,1.17,.68,.25,1.45,.37,2.32,.37,.77,0,1.49-.12,2.17-.36,.68-.24,1.28-.59,1.81-1.05,.53-.46,.94-1.02,1.25-1.68,.31-.66,.46-1.42,.46-2.29v-6.7l.4,.72c-.5-.42-1.05-.78-1.66-1.08-.6-.3-1.26-.52-1.96-.66-.7-.14-1.42-.22-2.14-.22-.98,0-1.84,.15-2.58,.45-.74,.3-1.36,.72-1.86,1.28-.5,.56-.87,1.26-1.12,2.11s-.37,1.83-.37,2.92Z"/><path class="cls-7" d="M403.64,22.62c-1.06,0-2.03-.12-2.92-.35-.89-.23-1.68-.58-2.37-1.05-.69-.47-1.29-1.07-1.78-1.8-.5-.73-.88-1.57-1.15-2.53-.27-.96-.4-2.04-.4-3.25,0-1.55,.21-2.9,.62-4.03s1-2.07,1.77-2.81c.77-.74,1.68-1.29,2.73-1.67s2.23-.56,3.51-.56c1.05,0,1.99,.11,2.81,.33,.81,.22,1.52,.55,2.11,.98s1.08,.94,1.45,1.53,.64,1.24,.79,1.97c.15,.73,.23,1.52,.23,2.36v1.74c0,.26-.02,.5-.06,.73-.29,0-.66,0-1.11,.01-.45,0-.98,.01-1.58,.01h-8.99c-.75,0-1.45-.02-2.1-.06l.06-1.61c.52,.02,1.13,.03,1.84,.03h6.73c.69,0,1.31,0,1.87-.01,.56,0,.99-.03,1.29-.07l-.6,.6c.04-.19,.06-.43,.07-.72s.01-.58,.01-.89c0-.75-.09-1.42-.27-2.01-.18-.59-.48-1.1-.89-1.51s-.92-.73-1.52-.95-1.35-.33-2.23-.33-1.75,.14-2.49,.42c-.74,.28-1.36,.71-1.86,1.28-.5,.58-.88,1.31-1.14,2.2-.26,.89-.39,1.95-.39,3.18,0,1.13,.13,2.12,.4,2.98s.65,1.56,1.15,2.11c.5,.56,1.12,.97,1.87,1.24,.75,.27,1.6,.4,2.56,.4,.73,0,1.38-.07,1.94-.2,.57-.13,1.03-.32,1.4-.55,.36-.23,.65-.51,.86-.83s.36-.7,.46-1.11,.15-.86,.17-1.34c.12,0,.24,0,.37,.01s.28,.01,.43,.01h1.18c.21,0,.39,0,.55-.03,.02,.52-.01,1.04-.1,1.57-.09,.53-.23,1.02-.43,1.48s-.48,.88-.85,1.27c-.37,.38-.82,.71-1.35,.98s-1.19,.47-1.97,.62c-.78,.14-1.67,.22-2.69,.22Z"/><path class="cls-7" d="M415.98,4.72c.67,0,1.18,.19,1.54,.56,.35,.37,.53,.9,.53,1.57s-.17,1.19-.52,1.55c-.34,.37-.86,.55-1.55,.55-.65,0-1.16-.18-1.51-.55-.36-.36-.53-.88-.53-1.55s.18-1.19,.55-1.57,.86-.56,1.5-.56Zm0,13.44c.65,0,1.16,.18,1.51,.53s.53,.88,.53,1.57-.17,1.2-.52,1.58-.85,.58-1.53,.58-1.18-.19-1.52-.58c-.35-.38-.52-.91-.52-1.58s.18-1.21,.55-1.57,.86-.53,1.5-.53Z"/></g><g><rect class="cls-3" x="841.62" y="62.95" width="191.19" height="191.19"/><path class="cls-5" d="M848.33,247.45h177.8V69.65h-177.8V247.45Zm170.46-7.34h-163.13V76.98h163.13V240.11Z"/><rect class="cls-5" x="904.3" y="139.42" width="32.51" height="32.51"/><polygon class="cls-5" points="941.7 139.4 941.7 171.94 974.23 171.94 941.7 139.4"/><rect class="cls-5" x="904.3" y="102.02" width="32.51" height="32.51"/><polygon class="cls-5" points="941.7 102.02 941.7 134.55 974.23 102.02 941.7 102.02"/><polygon class="cls-5" points="889.04 191.16 883.04 191.16 875.29 201.97 875.29 191.16 870 191.16 870 214.74 875.29 214.74 875.29 204.13 883.04 214.74 889.18 214.74 880.08 202.68 889.04 191.16"/><g class="cls-2"><path class="cls-5" d="M919.6,209.35c-.61,.78-1.68,1.79-3.37,1.79-1.92,0-3.07-1.25-3.07-3.3v-8.8h-4.62v9.7c0,3.71,2.12,6.34,6.03,6.34,2.6,0,4.21-1.35,5.02-2.23v1.89h4.55v-15.71h-4.55v10.31Z"/><path class="cls-5" d="M961.46,200.69c-.94-.91-2.56-1.99-4.82-1.99-4.38,0-7.41,3.64-7.41,8.26s3,8.12,7.41,8.12c2.39,0,3.98-1.11,4.82-1.96v1.62h4.55v-15.71h-4.55v1.65Zm0,9.03c-.64,.71-1.72,1.48-3.34,1.48-2.43,0-4.15-1.75-4.15-4.31s1.72-4.31,4.15-4.31c1.62,0,2.7,.78,3.34,1.48v5.66Z"/><path class="cls-5" d="M900.74,200.69c-.94-.91-2.56-1.99-4.82-1.99-4.38,0-7.41,3.64-7.41,8.26s3,8.12,7.41,8.12c2.39,0,3.97-1.11,4.82-1.96v1.62h4.55v-15.71h-4.55v1.65Zm0,9.03c-.64,.71-1.72,1.48-3.34,1.48-2.43,0-4.15-1.75-4.15-4.31s1.72-4.31,4.15-4.31c1.62,0,2.7,.78,3.34,1.48v5.66Z"/><path class="cls-5" d="M999.89,191.16v9.67c-.81-.84-2.46-2.12-4.99-2.12-4.41,0-7.41,3.64-7.41,8.26s3.07,8.12,7.41,8.12c2.53,0,4.18-1.25,4.99-2.13v1.79h4.55v-23.59h-4.55Zm0,18.36c-.61,.78-1.75,1.69-3.5,1.69-2.43,0-4.14-1.75-4.14-4.32s1.71-4.31,4.14-4.31c1.75,0,2.9,.91,3.5,1.68v5.26Z"/><path class="cls-5" d="M978.91,198.7c-2.56,0-4.21,1.35-4.99,2.22v-1.89h-4.58v15.7h4.58v-10.31c.57-.81,1.65-1.79,3.37-1.79,1.92,0,3.03,1.25,3.03,3.3v8.8h4.62v-9.7c0-3.71-2.13-6.33-6.03-6.33"/><path class="cls-5" d="M936.24,194.63c1.55,0,2.46,.67,2.46,.67l.75-3.5s-1.25-.97-4.21-.97c-3.84,0-6.23,2.22-6.23,6.36v1.86h-2.33v3.78h2.33v11.93h4.69v-11.93h5.32v-3.78h-5.32v-1.45c0-1.99,.91-2.96,2.56-2.96"/><rect class="cls-5" x="941.65" y="191.16" width="4.68" height="23.59"/></g><rect class="cls-3" x="634.17" y="62.95" width="191.19" height="191.19"/><path class="cls-5" d="M640.87,247.45h177.8V69.65h-177.8V247.45Zm170.46-7.34h-163.13V76.98h163.13V240.11Z"/><rect class="cls-5" x="665.19" y="136.06" width="5.33" height="17.34"/><path class="cls-5" d="M692.29,146v7.41h-4.43v-6.39c0-1.09-.5-1.76-1.51-1.76-.72,0-1.24,.29-1.58,.64v7.51h-4.44v-6.39c0-1.09-.5-1.76-1.51-1.76-.75,0-1.24,.39-1.56,.77v7.38h-4.41v-11.77h4.41v1.24c.54-.6,1.66-1.49,3.4-1.49s2.95,.77,3.57,2.03c.3-.4,1.59-2.03,3.96-2.03,2.75,0,4.11,1.91,4.11,4.61"/><path class="cls-5" d="M707.49,147.46c0,3.44-2.13,6.19-5.23,6.19-1.71,0-2.8-.82-3.39-1.41v6.12h-4.49v-16.72h4.49v1.17c.6-.6,1.68-1.41,3.39-1.41,3.13,0,5.23,2.65,5.23,6.07m-4.63,.07c0-1.41-.94-2.38-2.28-2.38-.82,0-1.36,.35-1.71,.67v3.37c.35,.35,.89,.67,1.71,.67,1.34,0,2.28-.94,2.28-2.33"/><rect class="cls-5" x="709.33" y="136.06" width="4.63" height="17.34"/><path class="cls-5" d="M716.01,138.37c0-1.29,.94-2.18,2.35-2.18,1.51,0,2.33,.84,2.33,2.13s-.84,2.18-2.28,2.18-2.4-.84-2.4-2.13m.05,3.27h4.58v11.77h-4.58v-11.77Z"/><path class="cls-5" d="M722.5,147.53c0-3.34,2.16-6.14,6.07-6.14,3.3,0,4.54,1.29,4.54,1.29l-1.36,3.17s-.67-.64-2.16-.64-2.28,1.02-2.28,2.33,.84,2.31,2.28,2.31,2.16-.65,2.16-.65l1.36,3.17s-1.24,1.31-4.54,1.31c-3.91,0-6.07-2.82-6.07-6.15"/><path class="cls-5" d="M746.82,141.64v11.76h-4.49v-1.19c-.57,.6-1.66,1.44-3.42,1.44-3.12,0-5.23-2.65-5.23-6.07s2.11-6.19,5.23-6.19c1.71,0,2.85,.84,3.42,1.46v-1.21h4.49Zm-4.49,7.53v-3.32c-.35-.35-.89-.69-1.73-.69-1.34,0-2.28,.97-2.28,2.38s.94,2.33,2.28,2.33c.84,0,1.39-.35,1.73-.69"/><path class="cls-5" d="M758.17,141.56l-.29,4.36s-.27-.07-.87-.07c-1.58,0-2.8,.79-3.52,1.71v5.84h-4.56v-11.77h4.56v2.18c.87-1.31,2.18-2.43,3.69-2.43,.77,0,.99,.17,.99,.17"/><path class="cls-5" d="M770.92,148.77h-7.58c.4,1.09,1.29,1.51,2.7,1.51,2.18,0,3.29-.94,3.29-.94l1.29,2.7s-1.56,1.61-4.95,1.61c-4.19,0-6.74-2.33-6.74-6.15,0-3.54,2.25-6.12,6.22-6.12,3.64,0,5.77,2.45,5.77,6.19v1.19Zm-4.04-2.63c0-.82-.62-1.63-1.78-1.63-.87,0-1.56,.52-1.83,1.63h3.62Z"/><path class="cls-5" d="M785.58,141.64v11.76h-4.49v-1.19c-.57,.6-1.66,1.44-3.42,1.44-3.12,0-5.23-2.65-5.23-6.07s2.11-6.19,5.23-6.19c1.71,0,2.85,.84,3.42,1.46v-1.21h4.49Zm-4.49,7.53v-3.32c-.35-.35-.89-.69-1.73-.69-1.34,0-2.28,.97-2.28,2.38s.94,2.33,2.28,2.33c.84,0,1.38-.35,1.73-.69"/><path class="cls-5" d="M670.49,172.07h3.59v3.69h-3.59v8.08h-4.63v-8.08h-1.34v-3.69h1.34v-.91c0-3.22,1.93-4.91,5.08-4.91,2.48,0,3.49,.77,3.49,.77l-.62,3.39s-.62-.47-1.74-.47-1.59,.57-1.59,1.68v.45Z"/><path class="cls-5" d="M687.93,172.07v11.76h-4.49v-1.19c-.57,.6-1.66,1.44-3.42,1.44-3.12,0-5.23-2.65-5.23-6.07s2.11-6.19,5.23-6.19c1.71,0,2.85,.84,3.42,1.46v-1.21h4.49Zm-4.49,7.53v-3.32c-.35-.35-.89-.69-1.74-.69-1.34,0-2.28,.97-2.28,2.38s.94,2.33,2.28,2.33c.84,0,1.39-.35,1.74-.69"/><path class="cls-5" d="M689.76,177.96c0-3.34,2.16-6.15,6.07-6.15,3.3,0,4.54,1.29,4.54,1.29l-1.36,3.17s-.67-.64-2.15-.64-2.28,1.02-2.28,2.33,.84,2.3,2.28,2.3,2.15-.64,2.15-.64l1.36,3.17s-1.24,1.31-4.54,1.31c-3.91,0-6.07-2.83-6.07-6.15"/><path class="cls-5" d="M712.94,179.2h-7.58c.4,1.09,1.29,1.51,2.7,1.51,2.18,0,3.3-.94,3.3-.94l1.29,2.7s-1.56,1.61-4.95,1.61c-4.19,0-6.74-2.33-6.74-6.14,0-3.54,2.25-6.12,6.22-6.12,3.64,0,5.77,2.45,5.77,6.19v1.19Zm-4.04-2.63c0-.82-.62-1.63-1.78-1.63-.87,0-1.56,.52-1.83,1.63h3.62Z"/><path class="cls-5" d="M677.82,196.92v17.34h-4.46v-1.19c-.57,.6-1.68,1.43-3.45,1.43-3.12,0-5.23-2.62-5.23-6.07s2.11-6.19,5.23-6.19c1.76,0,2.88,.84,3.45,1.43v-6.76h4.46Zm-4.46,13.08v-3.27c-.35-.35-.92-.72-1.76-.72-1.34,0-2.28,.97-2.28,2.38s.94,2.33,2.28,2.33c.84,0,1.41-.37,1.76-.72"/><path class="cls-5" d="M679.9,199.23c0-1.29,.94-2.18,2.36-2.18,1.51,0,2.33,.84,2.33,2.13s-.84,2.18-2.28,2.18-2.4-.85-2.4-2.13m.05,3.27h4.58v11.77h-4.58v-11.77Z"/><path class="cls-5" d="M692.18,202.5h3.59v3.69h-3.59v8.08h-4.63v-8.08h-1.34v-3.69h1.34v-.92c0-3.22,1.93-4.91,5.08-4.91,2.48,0,3.49,.77,3.49,.77l-.62,3.39s-.62-.47-1.73-.47-1.59,.57-1.59,1.68v.45Z"/><path class="cls-5" d="M708.49,209.63h-7.58c.4,1.09,1.29,1.51,2.7,1.51,2.18,0,3.3-.94,3.3-.94l1.29,2.7s-1.56,1.61-4.95,1.61c-4.19,0-6.74-2.33-6.74-6.15,0-3.54,2.25-6.12,6.22-6.12,3.64,0,5.77,2.45,5.77,6.19v1.19Zm-4.04-2.63c0-.82-.62-1.63-1.78-1.63-.87,0-1.56,.52-1.83,1.63h3.62Z"/><path class="cls-5" d="M719.53,202.42l-.3,4.36s-.27-.07-.87-.07c-1.58,0-2.8,.79-3.52,1.71v5.84h-4.56v-11.77h4.56v2.18c.87-1.31,2.18-2.43,3.69-2.43,.77,0,.99,.17,.99,.17"/><path class="cls-5" d="M732.29,209.63h-7.58c.4,1.09,1.29,1.51,2.7,1.51,2.18,0,3.3-.94,3.3-.94l1.29,2.7s-1.56,1.61-4.95,1.61c-4.19,0-6.74-2.33-6.74-6.15,0-3.54,2.25-6.12,6.22-6.12,3.64,0,5.77,2.45,5.77,6.19v1.19Zm-4.04-2.63c0-.82-.62-1.63-1.78-1.63-.87,0-1.56,.52-1.83,1.63h3.62Z"/><path class="cls-5" d="M746.4,206.91v7.36h-4.53v-6.32c0-1.11-.57-1.83-1.61-1.83-.79,0-1.34,.44-1.66,.84v7.31h-4.51v-11.76h4.51v1.28c.54-.62,1.68-1.53,3.49-1.53,2.8,0,4.31,1.93,4.31,4.66"/><path class="cls-5" d="M754.05,214.51c-3.15,0-5.08-1.66-5.08-4.86v-3.59h-1.31v-3.57h1.31v-4.01h4.64v4.01h3.62v3.57h-3.62v2.73c0,1.09,.52,1.66,1.58,1.66,1.12,0,1.74-.5,1.74-.5l.62,3.79s-1.04,.77-3.49,.77m-2.45,.67h3.82l-1.07,4.29h-3.62l.87-4.29Z"/><path class="cls-5" d="M771.49,202.5v11.76h-4.49v-1.19c-.57,.6-1.66,1.44-3.42,1.44-3.13,0-5.23-2.65-5.23-6.07s2.11-6.19,5.23-6.19c1.71,0,2.85,.84,3.42,1.46v-1.21h4.49Zm-4.49,7.53v-3.32c-.35-.35-.89-.69-1.73-.69-1.34,0-2.28,.97-2.28,2.38s.94,2.33,2.28,2.33c.84,0,1.38-.35,1.73-.69"/><path class="cls-5" d="M773.25,212.23c0-1.39,.97-2.33,2.38-2.33,1.51,0,2.38,.89,2.38,2.28s-.89,2.33-2.33,2.33-2.43-.92-2.43-2.28"/></g><g><path class="cls-4" d="M107.9,170.68c.94-1.1,.79-2.75-.34-3.72-1.12-.96-2.78-.85-3.72,.24-.94,1.1-.79,2.75,.33,3.71,1.12,.96,2.78,.86,3.72-.24m55.4-86.43c-1.9-1.73-4.64-1.77-6.16-.11-1.51,1.66-1.21,4.39,.68,6.11,1.89,1.72,4.64,1.77,6.15,.11,1.51-1.66,1.21-4.4-.68-6.11m-48.58-2.84c-2.18,.13-3.84,1.82-3.72,3.76,.12,1.95,1.97,3.41,4.15,3.28,2.18-.14,3.84-1.82,3.72-3.76-.12-1.94-1.98-3.41-4.14-3.27m-30.1,62.33c-1.62,.11-2.85,1.54-2.74,3.2,.11,1.66,1.51,2.92,3.13,2.82,1.62-.1,2.85-1.53,2.73-3.2-.1-1.66-1.51-2.92-3.12-2.82m3.28-34.67c-1.37-1.16-3.48-.92-4.71,.54-1.23,1.46-1.13,3.58,.24,4.74,1.37,1.16,3.48,.92,4.71-.54,1.23-1.46,1.13-3.57-.24-4.74m109.68,19.58c-2.79-.38-5.36,1.74-5.77,4.73-.4,3,1.52,5.71,4.3,6.1,2.78,.37,5.36-1.74,5.77-4.73,.4-3-1.52-5.71-4.3-6.1m-19.02,63.74c-2.7,2.01-3.37,5.68-1.49,8.2,1.88,2.51,5.58,2.92,8.29,.9,2.7-2.02,3.37-5.69,1.48-8.2-1.88-2.51-5.58-2.92-8.28-.89m-60.44,31.55c-3.54-.98-7.19,1.05-8.16,4.55-.97,3.5,1.11,7.12,4.65,8.1,3.55,.98,7.2-1.05,8.16-4.55,.96-3.49-1.11-7.12-4.66-8.1m-80.18-29.65c-3.68,1.96-5.07,6.48-3.14,10.12,1.94,3.64,6.48,4.99,10.15,3.03,3.67-1.96,5.07-6.48,3.13-10.12-1.93-3.64-6.48-5-10.15-3.04m.23-124.59l-.08-.05h-6.77c-9.25,26.34-11.7,64.23-1.15,92.97,12.42,33.85,37.44,45.9,52.28,52.08,21.77,9.07,51.44,6.27,69.98-3.86,.03-.01,.06-.03,.08-.04,.02,0,.03-.02,.06-.03h0c21.52-11.28,33.68-33.82,36.47-49.51h.01c2.74-16.4,1.58-39.29-12.67-54.07-11.43-11.12-25.34-19.77-40.86-20.57h0c-14.77,.46-25.99,4.46-36.26,13.47,0,0,0,.01-.02,.02h-.01c-7.06,7.8-12.54,19.02-12.75,31.15,.57,10.54,5.76,21.83,10.81,26.45,5.06,4.62,16.8,10.54,23.92,10.6,.69,0,.13-2.14,.13-2.14-8.09-.77-7.52-2.85-7.52-2.85-.3-1.62,6.09-7.55,8.16-9.43-.59-.09-1.18-.21-1.76-.34l-3.14,2.31c-3.97,3.05-5.53,2.46-5.71-1.89-.08-1.93,.26-4.09,.35-4.94-.4-.38-.79-.76-1.17-1.17-1.68,4.06-1.59,8.19-1.58,8.2,.11,4.12-4.62,5.79-9.69,1-5.9-5.58-3.64-8.32-3.64-8.32,1.12-1.59,12.05-1.24,14.73-1.09-.4-.43-.77-.88-1.12-1.35l-4.99-.82c-5.6-.8-6.35-2.52-2.98-6.1,1.41-1.5,3.35-3.03,4.16-3.81,0-.27-.02-.55-.02-.82,0-.39,0-.78,.03-1.17-4.77,1.82-7.75,5.5-7.75,5.52-2.47,2.54-9.26,3.48-9.23-8.69,.02-8.63,5.63-7.96,5.63-7.96,2.21-.46,9.77,9.03,11.35,11.06,.05-.79,.11-1.55,.23-2.31l-3.57-5.56c-3.8-4.97-3.04-6.98,2.48-7.34,2.84-.19,6.05,.35,6.65,.32,.16-.01,.31-.03,.44-.06,.25-.28,.52-.57,.8-.84,.16-.16,.34-.32,.5-.49-5.31-2.3-10.99-1.95-11.01-1.93-3.97,.2-4.99-2.98-4.99-2.98-2.11-3.62,4.18-10.86,4.57-11.29,14.78-12.13,11.9,12.99,11.49,16.15,.59-.55,1.2-1.08,1.84-1.56l1.5-7.37c1.12-6.72,3.37-7.62,8.01-3.59,2.38,2.07,4.47,4.98,4.98,5.42,.28,.25,.55,.44,.8,.59,.67,.01,1.33,.05,1.99,.11-2.34-5.84-7.71-10.73-7.74-10.73-9.34-8.37,8.42-11.46,11.3-10.86,26.97,3.26-.42,19.81-3.48,21.61,.87,.08,1.73,.2,2.58,.35l7.05-3.98c7.27-3.89,9.61-3.28,10.07,3.86,.24,3.67-.31,7.77-.43,8.54-.04,.25-.06,.47-.06,.68,.54,.57,1.04,1.17,1.53,1.78,2.97-6.62,2.88-14.08,2.85-14.11-.25-5.14,3.88-6.16,3.88-6.16,4.86-2.48,14.79,7.61,14.79,7.61,9.16,9.65,4.73,17.4,4.73,17.4-2.64,2.61-23.51-3.77-26.11-4.58,.81,1.03,1.55,2.12,2.22,3.26l9.74,3.92c9.19,3.37,8.67,7.86,1.7,13.05-3.09,2.3-6.6,3.38-7.75,4.19-.21,1.33-.5,2.64-.85,3.92,8.81-1.52,14.15-7.29,14.15-7.33,5.07-3.66,9.08-.3,9.08-.3,6.02,3.1,4.39,18.88,4.39,18.88-8.01,32.07-25.56-5.97-27.68-11.07-.4,1.43-.87,2.81-1.43,4.15l3.51,11.12c2.24,9.35,1.6,13.94-8,12.44-4.46-.7-10.51-4.04-12.39-4.79-.79,.42-1.6,.82-2.43,1.19,2.83,2.75,11.29,7.58,15.48,8.7,9.81,2.62,10.89,7.88,10.89,7.88,2.24,7.23-14.8,16.63-14.8,16.63-19.11,6.96-20.53,.9-20.53,.9-3.06-4.28,6.55-29.29,8.33-33.82-1.3,.56-2.64,1.04-4.03,1.45-.4,.85-1.66,3.59-5.27,12.21-4.91,11.68-8.84,10.95-13.83,1.23-2.37-4.61-4.73-12.01-5.42-13.99-2.7-.84-5.29-1.93-7.75-3.22l-17.73,3.41c-12.56,2.16-11.92-5.29-10.44-9.4,2.03-5.6,6.72-13.1,7.71-15.08-1.64-3.38-2.88-6.99-3.66-10.76l-11.42-6.36c-14.04-8.85-14.44-16.23-1.03-22.45,6.18-2.87,14.27-4.53,16.93-5.33,1.07-2.3,2.3-4.53,3.65-6.66-15.41,1.54-29.72,7.18-29.74,7.25-9.72,4.32-17.37-2.25-17.37-2.25-8.88-7.29,.79-35.44,.79-35.44m31.41,122.04c4.71-7.59,30.71-15.64,34.81-17.03,2.77,18.22,11.14,27.85,4.15,34.49-6.95,6.6-21.47,1.79-23.3,1.19h0c-20.68-10.02-15.65-18.65-15.65-18.65m-34.31-58.91c5.24-3.38,37.67,11.59,42.63,13.92-9.56,9.28-14.25,23.15-14.22,23.2-3.18,8.35-10.75,8.07-10.75,8.07-9.81,1.72-14.15-5.87-17.45-17.71-3.52-12.65-.21-27.47-.21-27.47m-23.46-27.11c-4.48-1.6-9.5,1.02-11.24,5.87-1.73,4.85,.48,10.07,4.98,11.67,4.47,1.6,9.5-1.03,11.23-5.87,1.74-4.85-.48-10.06-4.96-11.66"/><path class="cls-4" d="M249.58,85.98c1.19,.29,2.03,1.43,2.54,3.41,.08,.48,.4,.74,.92,.79,.64-.04,.96-.42,.96-1.13v-8.27c0-.27-.09-.51-.25-.73-.17-.22-.41-.32-.71-.32-.45,0-.79,.35-.99,1.06-.3,.94-.58,1.59-.84,1.97-.26,.38-.8,.75-1.62,1.11v2.13Zm.07-11.54c2.85,.37,4.69,1.99,5.54,4.88,.18,.57,.53,.88,1.06,.93,.66-.05,.99-.31,.99-.79v-7.05h-7.66l.07,2.03Zm-10.57-2.03c-.79,0-1.24,.31-1.34,.92-.02,.46,.13,.76,.45,.89,.32,.14,.65,.28,.99,.43,.34,.15,.52,.45,.52,.9v19.17c0,.42-.07,.7-.22,.84-.15,.15-.4,.28-.74,.4-.34,.11-.59,.25-.75,.4-.16,.15-.24,.4-.24,.73,0,.23,.12,.44,.36,.63,.24,.2,.49,.29,.77,.29h9.15c1.19,0,1.83-.26,1.93-.79,.07-.43,.03-.72-.12-.87-.15-.15-.42-.29-.81-.43-.39-.14-.66-.27-.79-.38-.15-.11-.21-.36-.21-.75v-22.39h-8.95Z"/><path class="cls-6" d="M271.56,80.34v10.27c0,3.22-1.45,4.82-4.35,4.82-2.26,0-3.4-1.41-3.4-4.24v-10.86h-3.88v11.22c0,4.63,2.2,6.94,6.6,6.94,.97,0,1.94-.27,2.88-.82,.95-.56,1.66-1.26,2.14-2.13v2.46h3.87v-17.68h-3.87Zm11.88,17.68v-10.43c0-1.32,.39-2.43,1.19-3.32,.79-.89,1.82-1.34,3.09-1.34,2.31,0,3.47,1.32,3.47,3.96v11.12h3.88v-12.15c0-1.96-.56-3.46-1.66-4.48-1.11-1.03-2.63-1.54-4.6-1.54-2.4,0-4.23,1.06-5.48,3.16l-.07-.08v-2.58h-3.7v17.68h3.88Zm19.92-13.05c.89-1.34,2.18-2,3.88-2,1.51,0,2.7,.55,3.58,1.65,.87,1.1,1.32,2.61,1.32,4.54,0,1.7-.39,3.12-1.16,4.25-.92,1.32-2.19,1.98-3.81,1.98s-2.85-.63-3.74-1.87c-.78-1.11-1.16-2.5-1.16-4.15,0-1.8,.37-3.25,1.1-4.39m8.65-11.35v9.01c-1.15-1.85-3.12-2.78-5.91-2.78-2.14,0-3.9,.73-5.3,2.19-1.6,1.67-2.41,4.01-2.41,7.02,0,2.79,.68,5.02,2.05,6.71,1.46,1.82,3.53,2.74,6.22,2.74s4.49-.96,5.47-2.88h.07v2.39h3.68v-24.4h-3.88Zm17.43,21.02c-.85,.5-1.8,.75-2.86,.75-.87,0-1.64-.16-2.3-.48-.87-.4-1.31-1-1.31-1.77,0-1.59,1.06-2.56,3.2-2.92,.87-.11,1.74-.24,2.62-.35,.96-.16,1.69-.4,2.2-.72v2.9c0,1.11-.52,1.97-1.55,2.59m3.16-13.63c-1.27-.77-2.88-1.16-4.81-1.16-5.12,0-7.79,1.97-8.02,5.89h3.88c.16-1.85,1.46-2.77,3.9-2.77s3.66,.79,3.66,2.38c0,.97-.53,1.62-1.6,1.93l-3.7,.55c-2.19,.32-3.73,.74-4.62,1.27-1.46,.87-2.19,2.29-2.19,4.25,0,1.64,.62,2.93,1.85,3.87,1.09,.87,2.5,1.3,4.2,1.3,2.62,0,4.66-.72,6.12-2.16,.28,1.44,1.28,2.16,3.02,2.16,.79,0,1.61-.14,2.46-.43v-2.68h-.96c-.62,0-.93-.45-.93-1.33v-9.09c0-1.73-.75-3.05-2.26-3.96m7.69,2.22v10.45c0,1.59,.31,2.71,.92,3.35,.74,.77,2.06,1.16,3.97,1.16-.02,0,.82-.07,2.53-.21v-3.01c-.37,.07-.92,.1-1.66,.1-.83,0-1.36-.21-1.61-.62-.18-.29-.28-.9-.28-1.81v-9.43h3.55v-2.89h-3.55v-5.3h-3.88v5.3h-2.93v2.89h2.93Zm.56,20.33h1.88c.02,.61-.13,1.17-.43,1.67-.32,.51-.76,.83-1.35,1v1.67c1.09-.23,1.98-.73,2.67-1.51,.68-.77,1.02-1.72,1.02-2.83v-3.7h-3.79v3.7Zm13.63-23.22h-3.87v17.68h3.87v-17.68Zm0-6.72h-3.87v3.7h3.87v-3.7Zm13.6,21.02c-.85,.5-1.8,.75-2.85,.75-.87,0-1.64-.16-2.3-.48-.87-.4-1.31-1-1.31-1.77,0-1.59,1.07-2.56,3.2-2.92,.87-.11,1.74-.24,2.61-.35,.96-.16,1.7-.4,2.21-.72v2.9c0,1.11-.52,1.97-1.55,2.59m3.17-13.63c-1.27-.77-2.88-1.16-4.82-1.16-5.12,0-7.79,1.97-8.02,5.89h3.88c.16-1.85,1.46-2.77,3.9-2.77s3.66,.79,3.66,2.38c0,.97-.54,1.62-1.61,1.93l-3.69,.55c-2.19,.32-3.73,.74-4.62,1.27-1.46,.87-2.19,2.29-2.19,4.25,0,1.64,.62,2.93,1.85,3.87,1.1,.87,2.5,1.3,4.21,1.3,2.62,0,4.66-.72,6.12-2.16,.27,1.44,1.28,2.16,3.01,2.16,.8,0,1.62-.14,2.46-.43v-2.68h-.96c-.61,0-.92-.45-.92-1.33v-9.09c0-1.73-.76-3.05-2.26-3.96m28.61,12.44c-.88,1.29-2.16,1.94-3.8,1.94-1.53,0-2.75-.57-3.64-1.74-.89-1.16-1.34-2.64-1.34-4.46,0-1.93,.43-3.45,1.28-4.57,.86-1.11,2.08-1.66,3.69-1.66,1.52,0,2.75,.63,3.66,1.91,.82,1.18,1.23,2.62,1.23,4.32s-.36,3.14-1.1,4.26m-8.65,11.11v-8.84c1.17,1.86,3.15,2.78,5.95,2.78,2.47,0,4.41-.95,5.81-2.84,1.24-1.68,1.86-3.82,1.86-6.4,0-2.74-.68-4.95-2.05-6.65-1.48-1.85-3.56-2.77-6.22-2.77s-4.41,.96-5.47,2.88h-.07v-2.39h-3.7v24.22h3.88Zm33.05-15.68c0-2.48-.76-4.59-2.29-6.29-1.6-1.83-3.64-2.74-6.13-2.74s-4.64,.92-6.26,2.77c-1.53,1.78-2.29,3.97-2.29,6.58,0,2.78,.76,5.03,2.29,6.75,1.53,1.7,3.65,2.56,6.36,2.56,1.98,0,3.71-.53,5.18-1.59,1.47-1.06,2.41-2.54,2.82-4.44h-3.7c-.68,1.95-2.12,2.92-4.31,2.92-1.56,0-2.75-.52-3.6-1.56-.78-.95-1.16-2.17-1.16-3.65h13.02c.05-.43,.07-.87,.07-1.3m-11.72-4.6c.87-.88,1.97-1.32,3.29-1.32s2.33,.45,3.14,1.35c.81,.9,1.26,1.99,1.32,3.28h-9.12c.05-1.33,.5-2.43,1.37-3.31m18.49,13.73v-10.43c0-1.32,.4-2.43,1.19-3.32,.79-.89,1.82-1.34,3.1-1.34,2.31,0,3.46,1.32,3.46,3.96v11.12h3.88v-12.15c0-1.96-.55-3.46-1.66-4.48-1.1-1.03-2.63-1.54-4.59-1.54-2.41,0-4.24,1.06-5.49,3.16l-.07-.08v-2.58h-3.7v17.68h3.88Zm16.96-14.79v10.45c0,1.59,.31,2.71,.93,3.35,.73,.77,2.06,1.16,3.97,1.16-.03,0,.82-.07,2.53-.21v-3.01c-.37,.07-.92,.1-1.66,.1-.83,0-1.36-.21-1.62-.62-.18-.29-.27-.9-.27-1.81v-9.43h3.55v-2.89h-3.55v-5.3h-3.88v5.3h-2.93v2.89h2.93Zm14.06,14.79v-8.41c0-1.9,.47-3.39,1.41-4.49,.87-1.05,2-1.57,3.4-1.57,.21,0,.77,.06,1.68,.17v-3.77c-.68-.07-1.17-.1-1.47-.1-1.17,0-2.26,.4-3.28,1.22-1.03,.81-1.66,1.7-1.88,2.69h-.07v-3.42h-3.66v17.68h3.87Zm19.79-17.68v10.27c0,3.22-1.44,4.82-4.35,4.82-2.27,0-3.4-1.41-3.4-4.24v-10.86h-3.88v11.22c0,4.63,2.2,6.94,6.6,6.94,.98,0,1.94-.27,2.88-.82,.95-.56,1.66-1.26,2.14-2.13v2.46h3.87v-17.68h-3.87Z"/><path class="cls-4" d="M248.94,124.07c1.43,.11,2.15,1.13,2.15,3.04v15.47c0,1.9-.72,2.91-2.15,3.05v2.02c2.39-.02,4.42-.63,6.09-1.83,1.66-1.19,2.91-2.77,3.74-4.69,.83-1.92,1.25-3.96,1.25-6.1,0-2.26-.42-4.38-1.28-6.35-.85-1.98-2.13-3.57-3.83-4.79-1.7-1.22-3.69-1.83-5.96-1.83v2.02Zm-10.16-2.02c-1.12-.07-1.72,.26-1.82,1l.14,.27c.14,.34,.48,.6,1.04,.77,.56,.17,.84,.64,.84,1.39v19.1c0,.32-.08,.55-.22,.69-.15,.14-.39,.26-.71,.36-.32,.11-.56,.23-.75,.38-.18,.15-.27,.38-.27,.67,.05,.66,.65,.99,1.81,.99h8.55v-25.6h-8.62Z"/><path class="cls-6" d="M279.2,138.52c0-2.48-.76-4.59-2.3-6.3-1.59-1.82-3.64-2.73-6.11-2.73s-4.65,.93-6.27,2.77c-1.52,1.79-2.28,3.98-2.28,6.57,0,2.79,.76,5.04,2.28,6.75,1.53,1.71,3.65,2.57,6.37,2.57,1.98,0,3.71-.53,5.18-1.59,1.47-1.06,2.41-2.54,2.82-4.44h-3.7c-.69,1.95-2.12,2.91-4.32,2.91-1.55,0-2.75-.52-3.6-1.56-.77-.95-1.16-2.17-1.16-3.65h13.02c.05-.43,.07-.86,.07-1.29m-11.72-4.59c.87-.89,1.97-1.32,3.3-1.32s2.32,.45,3.13,1.35c.81,.9,1.25,1.99,1.32,3.28h-9.12c.04-1.33,.51-2.43,1.37-3.31m23.11-.84l-9.78,11.84v2.72h15.54v-3.12h-10.61l10.12-11.84v-2.71h-14.36v3.11h9.1Zm17.68,14.56l6.33-17.67h-4.04l-4.3,13.57h-.08l-4.48-13.57h-4.24l6.43,17.67h4.38Zm12.9-4.6c-.8-1.13-1.2-2.55-1.2-4.26s.4-3.08,1.2-4.21c.91-1.32,2.19-1.98,3.83-1.98s2.92,.65,3.83,1.98c.79,1.13,1.19,2.54,1.19,4.21s-.4,3.12-1.19,4.26c-.91,1.32-2.19,1.97-3.83,1.97s-2.92-.65-3.83-1.97m10.42,2.46c1.55-1.69,2.32-3.92,2.32-6.71s-.77-4.98-2.32-6.67c-1.62-1.75-3.81-2.63-6.58-2.63s-4.95,.86-6.53,2.58c-1.58,1.73-2.38,3.97-2.38,6.73s.78,5.02,2.33,6.71c1.61,1.75,3.81,2.64,6.58,2.64s4.97-.88,6.58-2.64m9.64-22.25h-3.87v24.4h3.87v-24.4Zm5.44,9.62v10.44c0,1.59,.31,2.71,.92,3.35,.73,.77,2.05,1.17,3.96,1.17-.02,0,.82-.08,2.54-.21v-3.01c-.37,.07-.92,.1-1.65,.1-.83,0-1.37-.2-1.62-.61-.18-.3-.27-.9-.27-1.82v-9.42h3.55v-2.9h-3.55v-5.3h-3.88v5.3h-2.94v2.9h2.94Zm19.55,11.41c-.85,.49-1.8,.74-2.86,.74-.87,0-1.64-.16-2.3-.47-.87-.4-1.31-1-1.31-1.77,0-1.59,1.07-2.56,3.2-2.92,.87-.11,1.75-.23,2.62-.34,.96-.16,1.69-.4,2.2-.72v2.89c0,1.11-.51,1.98-1.55,2.6m3.17-13.63c-1.27-.77-2.88-1.16-4.82-1.16-5.13,0-7.8,1.96-8.02,5.89h3.88c.16-1.85,1.45-2.77,3.9-2.77s3.66,.79,3.66,2.37c0,.97-.54,1.62-1.61,1.94l-3.69,.54c-2.19,.32-3.73,.74-4.61,1.27-1.46,.87-2.2,2.29-2.2,4.25,0,1.65,.62,2.93,1.85,3.87,1.1,.87,2.5,1.31,4.2,1.31,2.62,0,4.66-.72,6.12-2.17,.27,1.44,1.27,2.17,3.01,2.17,.8,0,1.62-.15,2.47-.44v-2.68h-.97c-.62,0-.92-.44-.92-1.33v-9.08c0-1.74-.75-3.06-2.26-3.96m10.36,17v-8.41c0-1.89,.47-3.38,1.41-4.48,.87-1.05,2-1.58,3.39-1.58,.21,0,.77,.06,1.69,.18v-3.77c-.69-.07-1.18-.1-1.47-.1-1.16,0-2.26,.41-3.28,1.22-1.03,.81-1.65,1.71-1.88,2.69h-.07v-3.42h-3.66v17.67h3.87Zm24.28-9.13c0-2.48-.76-4.59-2.29-6.3-1.59-1.82-3.64-2.73-6.12-2.73s-4.64,.93-6.26,2.77c-1.52,1.79-2.29,3.98-2.29,6.57,0,2.79,.76,5.04,2.29,6.75,1.53,1.71,3.65,2.57,6.37,2.57,1.98,0,3.71-.53,5.18-1.59,1.47-1.06,2.41-2.54,2.82-4.44h-3.7c-.68,1.95-2.13,2.91-4.32,2.91-1.55,0-2.75-.52-3.59-1.56-.78-.95-1.17-2.17-1.17-3.65h13.02c.04-.43,.07-.86,.07-1.29m-11.72-4.59c.87-.89,1.97-1.32,3.29-1.32s2.33,.45,3.14,1.35c.81,.9,1.25,1.99,1.32,3.28h-9.12c.05-1.33,.5-2.43,1.37-3.31m23.98,10.36c-.85,.49-1.8,.74-2.86,.74-.87,0-1.64-.16-2.3-.47-.87-.4-1.31-1-1.31-1.77,0-1.59,1.06-2.56,3.2-2.92,.87-.11,1.74-.23,2.61-.34,.96-.16,1.7-.4,2.2-.72v2.89c0,1.11-.52,1.98-1.54,2.6m3.17-13.63c-1.27-.77-2.88-1.16-4.81-1.16-5.13,0-7.8,1.96-8.03,5.89h3.88c.16-1.85,1.46-2.77,3.9-2.77s3.67,.79,3.67,2.37c0,.97-.54,1.62-1.61,1.94l-3.69,.54c-2.18,.32-3.73,.74-4.62,1.27-1.46,.87-2.18,2.29-2.18,4.25,0,1.65,.61,2.93,1.84,3.87,1.09,.87,2.49,1.31,4.21,1.31,2.62,0,4.66-.72,6.12-2.17,.27,1.44,1.27,2.17,3.01,2.17,.8,0,1.62-.15,2.46-.44v-2.68h-.95c-.61,0-.93-.44-.93-1.33v-9.08c0-1.74-.75-3.06-2.25-3.96"/><path class="cls-4" d="M247.93,173.17c1.04,.26,1.95,.72,2.72,1.4,.76,.67,1.35,1.44,1.76,2.3,.41,.86,.65,1.64,.72,2.35,.07,.62,.46,.97,1.19,1.06,.75-.08,1.13-.63,1.13-1.61v-6.25c0-.39-.09-.67-.27-.86-.18-.18-.42-.27-.72-.27-.25,0-.46,.09-.63,.27-.17,.18-.34,.38-.51,.59-.18,.2-.38,.32-.6,.34-.23-.02-.61-.16-1.15-.41-.53-.25-1.09-.46-1.66-.63-.56-.17-1.23-.27-1.98-.29v2.02Zm-5.76,20.72c-.77-.89-1.3-1.79-1.59-2.69-.3-.9-.55-1.71-.76-2.41-.11-.57-.49-.86-1.13-.86-.32,0-.59,.13-.81,.38-.21,.25-.32,.59-.32,1.03v7.17c0,.25,.1,.5,.31,.75,.21,.25,.44,.38,.69,.38,.29,0,.61-.2,.94-.58,.33-.39,.65-.58,.95-.58s.76,.13,1.32,.39c.56,.27,1.11,.49,1.65,.67,.54,.18,1.18,.27,1.93,.27v-2.02c-1.35-.38-2.4-1.02-3.17-1.91m-.67-21.33c-1.33,.79-2.32,1.8-2.97,3.01-.65,1.21-1,2.54-1.04,4,.04,1.89,.65,3.65,1.82,5.27,1.16,1.61,2.76,2.7,4.8,3.28,1.96,.53,3.45,1.2,4.46,2.02,1.03,.81,1.54,1.68,1.54,2.59,0,1.35-1.08,2.38-3.23,3.08v2.02c1.78,0,3.39-.41,4.83-1.24,1.45-.83,2.59-1.93,3.4-3.3,.82-1.36,1.23-2.79,1.23-4.28,0-1.3-.31-2.56-.94-3.77-.63-1.22-1.63-2.34-3-3.34-1.38-1-3.07-1.8-5.08-2.4-1-.29-1.81-.77-2.41-1.43-.6-.65-.93-1.35-.97-2.08,.07-1.37,.88-2.31,2.47-2.8v-2.02c-1.95,.14-3.58,.61-4.91,1.4"/><path class="cls-6" d="M264.03,192.69c-.8-1.13-1.19-2.55-1.19-4.26s.4-3.09,1.19-4.23c.91-1.31,2.19-1.97,3.84-1.97s2.92,.66,3.83,1.97c.8,1.14,1.2,2.55,1.2,4.23s-.4,3.12-1.2,4.26c-.91,1.31-2.19,1.97-3.83,1.97s-2.93-.66-3.84-1.97m10.42,2.45c1.55-1.69,2.32-3.93,2.32-6.71s-.77-4.99-2.32-6.67c-1.61-1.76-3.81-2.63-6.58-2.63s-4.96,.86-6.54,2.59c-1.58,1.72-2.37,3.96-2.37,6.72s.78,5.02,2.32,6.71c1.61,1.76,3.81,2.64,6.58,2.64s4.97-.88,6.58-2.64m18.88-14.45c-1.42-1.05-3.21-1.57-5.37-1.57-2.81,0-4.99,.91-6.53,2.74-1.46,1.71-2.19,3.97-2.19,6.78s.73,4.86,2.22,6.5c1.54,1.76,3.67,2.64,6.36,2.64,4.65,0,7.35-2.38,8.1-7.12h-3.9c-.19,1.24-.65,2.22-1.39,2.93-.74,.71-1.68,1.07-2.83,1.07-1.58,0-2.78-.63-3.64-1.9-.71-1.09-1.06-2.46-1.06-4.12,0-2.38,.56-4.12,1.68-5.21,.82-.79,1.88-1.19,3.19-1.19,2.37,0,3.72,1.1,4.05,3.29h3.9c-.18-2.08-1.05-3.69-2.59-4.83m9.77-1.08h-3.87v17.68h3.87v-17.68Zm0-6.73h-3.87v3.7h3.87v-3.7Zm20.36,15.27c0-2.49-.76-4.59-2.29-6.3-1.59-1.82-3.64-2.73-6.13-2.73s-4.64,.92-6.26,2.77c-1.52,1.78-2.29,3.97-2.29,6.57,0,2.78,.77,5.03,2.29,6.74,1.53,1.72,3.65,2.57,6.36,2.57,1.98,0,3.71-.53,5.18-1.6,1.47-1.06,2.41-2.54,2.82-4.43h-3.7c-.68,1.94-2.13,2.91-4.32,2.91-1.55,0-2.75-.52-3.6-1.57-.78-.95-1.17-2.16-1.17-3.64h13.02c.05-.43,.07-.87,.07-1.3m-11.72-4.6c.87-.87,1.97-1.32,3.29-1.32s2.32,.45,3.14,1.35c.81,.91,1.25,2,1.32,3.28h-9.12c.05-1.34,.5-2.44,1.38-3.32m15.81-1.05v10.44c0,1.6,.3,2.72,.93,3.36,.73,.78,2.05,1.16,3.96,1.16-.02,0,.82-.07,2.53-.21v-3.01c-.36,.07-.92,.1-1.65,.1-.83,0-1.37-.2-1.62-.61-.18-.3-.27-.9-.27-1.81v-9.42h3.55v-2.89h-3.55v-5.3h-3.88v5.3h-2.94v2.89h2.94Zm19.55,11.41c-.85,.5-1.8,.75-2.85,.75-.87,0-1.65-.16-2.3-.48-.87-.41-1.31-1-1.31-1.77,0-1.59,1.07-2.56,3.2-2.93,.87-.11,1.74-.23,2.62-.34,.96-.16,1.69-.4,2.2-.72v2.89c0,1.11-.51,1.98-1.54,2.59m3.17-13.63c-1.27-.78-2.88-1.16-4.81-1.16-5.13,0-7.79,1.96-8.02,5.89h3.87c.16-1.85,1.46-2.77,3.9-2.77s3.67,.79,3.67,2.38c0,.97-.54,1.62-1.61,1.93l-3.7,.55c-2.19,.32-3.73,.74-4.61,1.27-1.46,.87-2.19,2.28-2.19,4.25,0,1.64,.62,2.93,1.85,3.87,1.1,.87,2.5,1.3,4.21,1.3,2.61,0,4.66-.72,6.12-2.17,.27,1.44,1.27,2.17,3.01,2.17,.8,0,1.61-.15,2.45-.44v-2.68h-.96c-.61,0-.92-.44-.92-1.34v-9.08c0-1.73-.75-3.05-2.25-3.96m-5.2-3.17c1.62,0,2.93-.4,3.93-1.22,1-.82,1.58-2.01,1.74-3.58h-1.95c-.36,1.72-1.51,2.58-3.45,2.58-2.1,0-3.32-.86-3.65-2.58h-1.98c.27,3.2,2.06,4.8,5.37,4.8m12.89,5.39v10.44c0,1.6,.3,2.72,.92,3.36,.72,.78,2.05,1.16,3.96,1.16-.02,0,.82-.07,2.54-.21v-3.01c-.37,.07-.92,.1-1.66,.1-.83,0-1.37-.2-1.62-.61-.18-.3-.27-.9-.27-1.81v-9.42h3.55v-2.89h-3.55v-5.3h-3.87v5.3h-2.94v2.89h2.94Zm.55,20.32h1.88c.03,.62-.12,1.18-.42,1.68-.31,.49-.75,.83-1.35,.99v1.68c1.1-.23,1.98-.73,2.67-1.51,.69-.78,1.03-1.73,1.03-2.84v-3.7h-3.8v3.7Zm13.63-23.22h-3.87v17.68h3.87v-17.68Zm0-6.73h-3.87v3.7h3.87v-3.7Zm8.24,6.73h-3.87v17.68h3.87v-17.68Zm0-6.73h-3.87v3.7h3.87v-3.7Z"/><path class="cls-4" d="M249.54,222.79c1.25,.21,2.38,1.03,3.41,2.45,1.02,1.43,1.62,2.82,1.8,4.16,.13,1.16,.65,1.79,1.54,1.88,.73-.09,1.07-.58,.99-1.47v-7.76c0-.79-.37-1.19-1.13-1.19-.27,0-.57,.21-.91,.63-.33,.42-.63,.66-.91,.71-.3-.02-.99-.24-2.09-.66-1.1-.41-1.99-.67-2.7-.76v2.01Zm-7.67,.09c-1.68,1.31-2.94,2.98-3.76,5.02-.82,2.05-1.23,4.24-1.23,6.58,.05,2.35,.48,4.51,1.3,6.48,.82,1.97,2.07,3.54,3.75,4.72,1.67,1.17,3.7,1.76,6.07,1.76v-2.02c-.55-.06-1.05-.4-1.52-1-.47-.61-.71-1.27-.71-2v-16.11c-.07-1.95,.67-3.13,2.22-3.52v-2.01c-2.39,.09-4.43,.79-6.12,2.11m7.67,24.57c1.62-.08,3.18-.7,4.69-1.88,1.51-1.19,2.5-2.61,2.98-4.28,.02-.09,.04-.17,.05-.24,.02-.07,.02-.17,.02-.32,0-.4-.09-.71-.27-.94-.18-.21-.42-.32-.72-.32-.48,0-.81,.28-1,.82-.36,1.32-1.07,2.44-2.12,3.35-1.05,.91-2.26,1.51-3.63,1.78v2.02Z"/><path class="cls-6" d="M264.66,229.24h-3.87v17.68h3.87v-17.68Zm0-6.73h-3.87v3.7h3.87v-3.7Zm13.31,24.4l6.34-17.68h-4.04l-4.31,13.57h-.07l-4.48-13.57h-4.24l6.43,17.68h4.37Zm12.68-17.68h-3.88v17.68h3.88v-17.68Zm0-6.73h-3.88v3.7h3.88v-3.7Zm8.24,0h-3.88v24.4h3.88v-24.4Zm20.35,15.27c0-2.49-.77-4.59-2.29-6.3-1.6-1.82-3.64-2.74-6.12-2.74s-4.64,.93-6.26,2.77c-1.52,1.78-2.3,3.97-2.3,6.58,0,2.78,.77,5.03,2.3,6.74,1.53,1.71,3.65,2.56,6.35,2.56,1.99,0,3.72-.54,5.19-1.59,1.46-1.06,2.41-2.54,2.82-4.44h-3.7c-.68,1.95-2.12,2.92-4.31,2.92-1.55,0-2.76-.52-3.6-1.56-.78-.95-1.17-2.17-1.17-3.65h13.03c.04-.43,.07-.87,.07-1.3m-11.72-4.6c.87-.88,1.96-1.32,3.3-1.32s2.31,.45,3.13,1.35c.81,.9,1.26,1.99,1.32,3.28h-9.13c.05-1.33,.51-2.43,1.38-3.32"/></g></g></svg>