<?xml version="1.0" encoding="UTF-8"?><svg id="Layer_1" xmlns="http://www.w3.org/2000/svg" xmlns:xlink="http://www.w3.org/1999/xlink" viewBox="0 0 1540 600"><defs><style>.cls-1{fill:none;}.cls-2{clip-path:url(#clippath);}.cls-3{fill:#fff;}.cls-4{fill:#9a2926;}.cls-5{fill:#dc2728;}.cls-6{fill:#1c1c1a;}.cls-7{fill:#555251;}</style><clipPath id="clippath"><rect class="cls-1" x="1216.62" y="214.5" width="262.38" height="262.38"/></clipPath></defs><g><path class="cls-7" d="M956.64,141.05c0-.1,0-.2,.02-.3,.01-.09,.02-.2,.02-.32v-.26c0-1.87-.32-3.4-.97-4.58-.65-1.18-1.63-2.05-2.96-2.61-1.33-.55-2.94-.83-4.84-.83-1.11,0-2.17,.13-3.18,.4-1.01,.26-1.92,.68-2.71,1.26-.79,.58-1.47,1.31-2.05,2.19-.58,.88-1.03,1.95-1.36,3.22-.33,1.26-.49,2.7-.49,4.3,0,1.68,.16,3.17,.47,4.46,.32,1.29,.77,2.41,1.36,3.36,.59,.95,1.29,1.73,2.09,2.35,.8,.62,1.72,1.07,2.76,1.36s2.14,.43,3.3,.43c1.97,0,3.61-.32,4.9-.95s2.24-1.55,2.84-2.74c.61-1.2,.91-2.64,.91-4.32v-.87h3.95c-.03,.11-.03,.22,0,.34s.03,.25,.02,.4c-.01,.14-.02,.3-.02,.45,0,1.42-.16,2.72-.47,3.89-.32,1.17-.82,2.22-1.5,3.14-.69,.92-1.52,1.71-2.51,2.37-.99,.66-2.16,1.15-3.51,1.46-1.36,.32-2.88,.47-4.56,.47s-3.25-.2-4.7-.59c-1.45-.39-2.75-1-3.91-1.82-1.16-.82-2.15-1.84-2.98-3.08s-1.47-2.69-1.92-4.34c-.45-1.66-.67-3.53-.67-5.61s.22-3.74,.65-5.31,1.04-2.97,1.82-4.21c.78-1.24,1.74-2.26,2.9-3.08,1.16-.82,2.46-1.44,3.91-1.88,1.45-.43,3.08-.65,4.9-.65,1.71,0,3.24,.17,4.6,.51,1.36,.34,2.53,.84,3.51,1.48,.99,.64,1.8,1.41,2.43,2.29s1.11,1.89,1.44,3.02,.49,2.36,.49,3.67v.97c0,.15-.01,.32-.04,.53h-3.95Z"/><path class="cls-7" d="M966.98,134.93h4.07c-.05,1.26-.09,2.61-.1,4.05-.01,1.44-.02,3.01-.02,4.72v5.8c0,1.4,.22,2.57,.65,3.53,.43,.96,1.12,1.68,2.07,2.15,.95,.47,2.2,.71,3.75,.71,1.11,0,2.15-.13,3.12-.4,.97-.26,1.82-.7,2.53-1.32,.71-.62,1.28-1.4,1.7-2.33,.42-.93,.63-1.99,.63-3.18v-4.46c0-1.26,0-2.37-.02-3.32-.01-.95-.02-1.78-.02-2.49s0-1.35-.02-1.92c-.01-.57-.02-1.09-.02-1.56h4.03c-.03,1.03-.05,2.11-.06,3.26-.01,1.14-.02,2.38-.02,3.69v4.54c0,2.61,0,4.92,.02,6.93,.01,2.01,.03,3.78,.06,5.31h-4.03c.03-.71,.05-1.38,.06-2.01,.01-.63,.03-1.28,.04-1.95,.01-.67,.03-1.44,.06-2.31l.24,1.9-.87-.16,.95-1.58c-.34,1.42-.95,2.62-1.84,3.59-.88,.97-1.99,1.7-3.34,2.17-1.34,.47-2.91,.71-4.7,.71-1.45,0-2.72-.19-3.81-.57-1.09-.38-2.03-.93-2.8-1.66-.78-.72-1.35-1.63-1.72-2.72-.37-1.09-.55-2.36-.55-3.81,0-.97,0-1.82,.02-2.53,.01-.71,.02-1.36,.02-1.94s0-1.13,.02-1.66c.01-.53,.02-1.09,.02-1.7,0-1.34-.01-2.62-.04-3.83-.03-1.21-.05-2.43-.08-3.67Z"/><path class="cls-7" d="M1018.47,156.06c1.24,0,2.3-.08,3.18-.24s1.59-.39,2.13-.71c.54-.32,.94-.72,1.2-1.2,.26-.49,.39-1.05,.39-1.68s-.12-1.18-.38-1.64c-.25-.46-.68-.86-1.28-1.2-.61-.34-1.44-.63-2.51-.87-1.07-.24-2.42-.45-4.05-.63-1.87-.21-3.4-.5-4.6-.87-1.2-.37-2.16-.84-2.88-1.42-.72-.58-1.24-1.25-1.54-2.01s-.45-1.61-.45-2.53c0-1.13,.24-2.12,.73-2.96,.49-.84,1.16-1.54,2.01-2.09s1.94-.96,3.24-1.22c1.3-.26,2.81-.39,4.52-.39,1.37,0,2.62,.08,3.75,.26,1.13,.17,2.1,.45,2.9,.83s1.48,.85,2.03,1.4,.96,1.2,1.22,1.93c.26,.74,.4,1.58,.4,2.53,0,.16,0,.32-.02,.47-.01,.16-.02,.32-.02,.47s-.01,.36-.04,.59c-.11-.03-.27-.05-.49-.06-.22-.01-.45-.02-.67-.02h-1.66c-.3,0-.56,.01-.77,.04,0-.18,0-.4,.02-.63,.01-.24,.02-.4,.02-.47,0-.74-.11-1.37-.34-1.9-.22-.53-.61-.98-1.17-1.36s-1.26-.65-2.11-.81c-.86-.16-1.89-.24-3.1-.24s-2.17,.07-3.02,.22c-.86,.15-1.55,.38-2.09,.69-.54,.32-.94,.69-1.2,1.12-.26,.43-.39,.97-.39,1.6,0,.53,.1,1.02,.32,1.48,.21,.46,.61,.86,1.2,1.18,.59,.33,1.4,.61,2.43,.85,1.03,.24,2.34,.45,3.95,.63,1.87,.18,3.42,.47,4.66,.85,1.24,.38,2.23,.84,2.98,1.38,.75,.54,1.28,1.21,1.58,1.99,.3,.79,.45,1.74,.45,2.84s-.2,2.1-.61,2.98-1.05,1.61-1.92,2.19c-.87,.58-1.97,1.01-3.3,1.28-1.33,.28-2.9,.41-4.72,.41-1.58,0-2.98-.1-4.19-.3-1.21-.2-2.25-.49-3.12-.89-.87-.39-1.6-.89-2.19-1.48s-1.01-1.26-1.26-1.99c-.25-.74-.38-1.62-.38-2.65,0-.16,0-.3,.02-.42,.01-.12,.02-.25,.02-.39v-.49c.18,.03,.38,.05,.57,.06,.2,.01,.4,.03,.61,.04,.21,.01,.43,.02,.67,.02,.34,0,.67-.01,.97-.04,.3-.03,.56-.05,.77-.08-.05,.18-.08,.36-.08,.53v.42c0,.82,.16,1.52,.47,2.11,.32,.59,.78,1.07,1.38,1.42,.61,.36,1.39,.62,2.37,.79,.97,.17,2.09,.26,3.36,.26Z"/><path class="cls-7" d="M1039.05,164.19h-4.03c.03-1.37,.05-2.69,.06-3.97,.01-1.28,.03-2.54,.04-3.79,.01-1.25,.02-2.49,.02-3.73v-11.12c0-1.07,0-1.99-.02-2.78-.01-.79-.03-1.49-.04-2.11-.01-.62-.02-1.2-.02-1.76h3.99c-.03,.5-.04,.98-.04,1.44v1.44c0,.5-.02,1.01-.06,1.54-.04,.53-.08,1.16-.14,1.9l-.16-1.66,.83,.16-.99,1.34c.32-.95,.73-1.82,1.24-2.63s1.18-1.49,2.01-2.05c.83-.57,1.8-1.03,2.9-1.38s2.36-.53,3.75-.53c1.24,0,2.38,.18,3.43,.53s1.96,.88,2.73,1.56c.76,.68,1.41,1.52,1.93,2.51,.53,.99,.93,2.11,1.22,3.38s.43,2.67,.43,4.22c0,1.92-.24,3.65-.71,5.17-.47,1.53-1.14,2.83-1.99,3.91-.86,1.08-1.89,1.9-3.1,2.45-1.21,.55-2.62,.83-4.22,.83-.95,0-1.86-.09-2.75-.26s-1.69-.39-2.43-.65c-.74-.26-1.4-.59-1.99-.99-.59-.4-1.11-.82-1.54-1.28-.43-.46-.76-.94-.97-1.44l.95,1.03-.83,.39,.28-1.62c.05,.69,.08,1.31,.1,1.88,.01,.57,.02,1.11,.02,1.64v1.74c0,.76,0,1.52,.02,2.27,.01,.75,.03,1.56,.06,2.43Zm15.24-17.49c0-1.47-.16-2.78-.47-3.91-.32-1.13-.78-2.08-1.38-2.84s-1.36-1.34-2.25-1.74c-.9-.4-1.93-.59-3.12-.59-1.08,0-2.11,.15-3.1,.45-.99,.3-1.86,.75-2.61,1.34-.75,.59-1.34,1.36-1.78,2.31-.43,.95-.65,2.05-.65,3.32l.04,9.32-.51-1.22c.63,.58,1.39,1.08,2.27,1.5,.88,.42,1.83,.75,2.84,.99,1.01,.24,2.11,.36,3.3,.36s2.32-.21,3.24-.63,1.7-1.02,2.33-1.8,1.1-1.74,1.4-2.9,.45-2.47,.45-3.95Z"/><path class="cls-7" d="M1067.87,158.67h-4.11c.03-1.66,.05-3.43,.08-5.31,.03-1.88,.04-4.1,.04-6.65s-.01-4.66-.04-6.48c-.03-1.82-.05-3.58-.08-5.29h3.47c0,.68-.02,1.42-.06,2.19-.04,.78-.07,1.63-.1,2.57-.03,.93-.08,1.97-.16,3.1l-.2-2.57,.79,.12-.75,2.41c.21-1.42,.54-2.65,.99-3.67,.45-1.03,1.03-1.87,1.76-2.53,.72-.66,1.56-1.15,2.51-1.48,.95-.33,2.03-.49,3.24-.49,.87,0,1.68,.08,2.43,.24,.75,.16,1.43,.38,2.03,.67-.05,.21-.11,.47-.16,.79-.05,.32-.11,.65-.18,.99-.07,.34-.12,.68-.16,1.01-.04,.33-.07,.63-.1,.89-.66-.32-1.35-.55-2.07-.69-.72-.14-1.48-.22-2.27-.22-1.03,0-1.97,.15-2.82,.43-.86,.29-1.59,.75-2.21,1.38-.62,.63-1.1,1.47-1.44,2.51-.34,1.04-.51,2.27-.51,3.69v3.34c0,1.17,0,2.32,.02,3.46,.01,1.13,.03,2.19,.04,3.16,.01,.97,.02,1.79,.02,2.45Z"/><path class="cls-7" d="M1088.92,130.47c0,.26-.05,.51-.14,.73-.09,.22-.24,.42-.43,.59-.2,.17-.47,.3-.83,.38s-.82,.12-1.4,.12c-.4,0-.76-.03-1.11-.08-.34-.05-.62-.13-.83-.24-.21-.1-.38-.24-.51-.39-.13-.16-.22-.32-.26-.49-.04-.17-.06-.38-.06-.61,0-.29,.05-.55,.14-.77,.09-.22,.23-.41,.41-.55s.46-.26,.83-.34c.37-.08,.83-.12,1.38-.12,.45,0,.83,.03,1.14,.08,.32,.05,.58,.12,.79,.22,.21,.09,.38,.22,.51,.38,.13,.16,.22,.32,.28,.49,.05,.17,.08,.38,.08,.61Zm-.79,28.19h-3.99c.03-.97,.05-1.94,.06-2.9,.01-.96,.02-1.92,.02-2.88v-9.75c0-.99,0-1.93-.02-2.84-.01-.91-.03-1.8-.04-2.67-.01-.87-.02-1.76-.02-2.68h3.99c-.03,.92-.05,1.82-.06,2.68-.01,.87-.03,1.76-.04,2.67-.01,.91-.02,1.87-.02,2.88v6.83c0,1.09,0,2.11,.02,3.04,.01,.93,.03,1.86,.04,2.78,.01,.92,.03,1.87,.06,2.84Z"/><path class="cls-7" d="M1099.62,156.22c0-2.5,0-4.73-.02-6.69-.01-1.96-.03-3.71-.04-5.25-.01-1.54-.03-2.88-.06-4.03-.03-1.14-.05-2.15-.08-3.02-.03-.87-.05-1.63-.08-2.29h4.03c-.03,.82-.04,1.61-.04,2.39s0,1.55-.02,2.33c-.01,.78-.02,1.56-.02,2.35v2.65c0,.55,0,1.24,.02,2.05,.01,.82,.03,1.72,.04,2.72,.01,1,.03,2.06,.04,3.18,.01,1.12,.02,2.34,.02,3.65,0,1.11-.09,2.09-.26,2.96-.17,.87-.45,1.64-.83,2.31-.38,.67-.87,1.22-1.46,1.66-.59,.43-1.28,.77-2.05,1.01-.78,.24-1.67,.36-2.67,.36-.92,0-1.78-.08-2.57-.24-.79-.16-1.53-.43-2.21-.83,.05-.13,.1-.31,.14-.53,.04-.22,.08-.49,.12-.79,.04-.3,.07-.61,.1-.91,.03-.3,.05-.57,.08-.79s.05-.4,.08-.53c.53,.29,1.11,.53,1.76,.73,.64,.2,1.35,.3,2.11,.3,1.29,0,2.26-.38,2.9-1.12,.65-.75,.97-1.95,.97-3.61Zm4.54-25.75c0,.26-.04,.51-.12,.73s-.22,.42-.43,.59c-.21,.17-.5,.3-.87,.38-.37,.08-.79,.12-1.26,.12-.5,0-.9-.03-1.21-.08s-.57-.13-.81-.24c-.24-.1-.41-.24-.53-.39-.12-.16-.2-.32-.24-.49-.04-.17-.06-.38-.06-.61,0-.29,.04-.55,.12-.77,.08-.22,.22-.41,.43-.55s.49-.26,.85-.34,.83-.12,1.44-.12c.37,0,.72,.03,1.05,.08s.6,.12,.81,.22c.21,.09,.38,.22,.49,.38,.12,.16,.2,.32,.26,.49s.08,.38,.08,.61Z"/><path class="cls-7" d="M1115.77,130.47c0,.26-.05,.51-.14,.73-.09,.22-.24,.42-.43,.59-.2,.17-.47,.3-.83,.38s-.82,.12-1.4,.12c-.4,0-.76-.03-1.11-.08-.34-.05-.62-.13-.83-.24-.21-.1-.38-.24-.51-.39-.13-.16-.22-.32-.26-.49-.04-.17-.06-.38-.06-.61,0-.29,.05-.55,.14-.77,.09-.22,.23-.41,.41-.55s.46-.26,.83-.34c.37-.08,.83-.12,1.38-.12,.45,0,.83,.03,1.14,.08,.32,.05,.58,.12,.79,.22,.21,.09,.38,.22,.51,.38,.13,.16,.22,.32,.28,.49,.05,.17,.08,.38,.08,.61Zm-.79,28.19h-3.99c.03-.97,.05-1.94,.06-2.9,.01-.96,.02-1.92,.02-2.88v-9.75c0-.99,0-1.93-.02-2.84-.01-.91-.03-1.8-.04-2.67-.01-.87-.02-1.76-.02-2.68h3.99c-.03,.92-.05,1.82-.06,2.68-.01,.87-.03,1.76-.04,2.67-.01,.91-.02,1.87-.02,2.88v6.83c0,1.09,0,2.11,.02,3.04,.01,.93,.03,1.86,.04,2.78,.01,.92,.03,1.87,.06,2.84Z"/><path class="cls-7" d="M1144.91,158.67h-4.07c.05-1.24,.08-2.55,.1-3.95,.01-1.4,.03-2.96,.04-4.68,.01-1.72,.02-3.63,.02-5.71,0-1.45-.22-2.65-.67-3.61-.45-.96-1.15-1.68-2.11-2.17-.96-.49-2.21-.73-3.73-.73-1.13,0-2.17,.15-3.12,.43-.95,.29-1.8,.73-2.55,1.32-.75,.59-1.32,1.34-1.72,2.23-.39,.9-.59,1.97-.59,3.24v4.34c0,1.24,0,2.34,.02,3.3,.01,.96,.01,1.8,0,2.51-.01,.71,0,1.34,.02,1.9s.04,1.08,.04,1.58h-4.03c0-1.05,.01-2.14,.04-3.26,.03-1.12,.05-2.35,.06-3.69,.01-1.34,.02-2.84,.02-4.5,0-2.61-.01-4.92-.04-6.95-.03-2.03-.05-3.8-.08-5.33h3.99c0,.71-.01,1.39-.04,2.03-.03,.65-.05,1.3-.06,1.96-.01,.66-.02,1.42-.02,2.29l-.2-1.9,.83,.16-.95,1.58c.37-1.45,1-2.65,1.9-3.59,.89-.95,2.03-1.67,3.4-2.15,1.37-.49,2.91-.73,4.62-.73,1.45,0,2.72,.19,3.81,.57,1.09,.38,2.01,.94,2.76,1.68s1.31,1.67,1.68,2.78c.37,1.12,.55,2.44,.55,3.97v2.47c0,.7,0,1.32-.02,1.86-.01,.54-.02,1.07-.02,1.58v1.6c0,1.4,.01,2.7,.04,3.93,.03,1.22,.05,2.44,.08,3.65Z"/><path class="cls-7" d="M1151.7,134.93h4.07c-.05,1.26-.09,2.61-.1,4.05-.01,1.44-.02,3.01-.02,4.72v5.8c0,1.4,.22,2.57,.65,3.53,.43,.96,1.12,1.68,2.07,2.15,.95,.47,2.2,.71,3.75,.71,1.11,0,2.15-.13,3.12-.4,.97-.26,1.82-.7,2.53-1.32,.71-.62,1.28-1.4,1.7-2.33,.42-.93,.63-1.99,.63-3.18v-4.46c0-1.26,0-2.37-.02-3.32-.01-.95-.02-1.78-.02-2.49s0-1.35-.02-1.92c-.01-.57-.02-1.09-.02-1.56h4.03c-.03,1.03-.05,2.11-.06,3.26-.01,1.14-.02,2.38-.02,3.69v4.54c0,2.61,0,4.92,.02,6.93,.01,2.01,.03,3.78,.06,5.31h-4.03c.03-.71,.05-1.38,.06-2.01,.01-.63,.03-1.28,.04-1.95,.01-.67,.03-1.44,.06-2.31l.24,1.9-.87-.16,.95-1.58c-.34,1.42-.95,2.62-1.84,3.59-.88,.97-1.99,1.7-3.34,2.17-1.34,.47-2.91,.71-4.7,.71-1.45,0-2.72-.19-3.81-.57-1.09-.38-2.03-.93-2.8-1.66-.78-.72-1.35-1.63-1.72-2.72-.37-1.09-.55-2.36-.55-3.81,0-.97,0-1.82,.02-2.53,.01-.71,.02-1.36,.02-1.94s0-1.13,.02-1.66c.01-.53,.02-1.09,.02-1.7,0-1.34-.01-2.62-.04-3.83-.03-1.21-.05-2.43-.08-3.67Z"/><path class="cls-7" d="M1185.23,158.67h-4.03c.05-1.21,.08-2.43,.08-3.67s0-2.49,.02-3.75,.02-2.53,.02-3.81v-8.29c0-1.33,0-2.59-.02-3.77s-.03-2.37-.04-3.55c-.01-1.18-.03-2.42-.06-3.71h4.07c-.05,1.24-.08,2.45-.08,3.63s0,2.38-.02,3.59c-.01,1.21-.02,2.49-.02,3.85v12.22c0,1.24,0,2.45,.02,3.63,.01,1.18,.03,2.4,.06,3.63Z"/><path class="cls-7" d="M1192.81,134.58c.92,0,1.62,.26,2.11,.77,.49,.51,.73,1.23,.73,2.15s-.24,1.63-.71,2.13c-.47,.5-1.18,.75-2.13,.75-.9,0-1.59-.25-2.07-.75-.49-.5-.73-1.21-.73-2.13s.25-1.64,.75-2.15c.5-.51,1.18-.77,2.05-.77Zm0,18.44c.89,0,1.58,.24,2.07,.73,.49,.49,.73,1.2,.73,2.15s-.24,1.65-.71,2.17c-.47,.53-1.17,.79-2.09,.79s-1.62-.26-2.09-.79c-.47-.53-.71-1.25-.71-2.17s.25-1.67,.75-2.15c.5-.49,1.18-.73,2.05-.73Z"/></g><g><path class="cls-7" d="M74.52,158.67h-4.46c.05-1.42,.09-2.86,.12-4.32,.03-1.46,.04-3.05,.04-4.76v-5.73c0-3.13,0-5.89-.02-8.27s-.06-4.56-.14-6.54h12.16c1.74,0,3.31,.19,4.72,.57,1.41,.38,2.59,.99,3.55,1.82,.96,.83,1.72,1.91,2.27,3.24s.83,2.94,.83,4.84c0,1.42-.18,2.69-.55,3.79-.37,1.11-.88,2.06-1.52,2.86-.65,.8-1.45,1.46-2.43,1.97-.97,.51-2.06,.9-3.26,1.15-1.2,.25-2.49,.38-3.89,.38h-2.94c-.46,0-.93,0-1.42-.02-.49-.01-1.05-.03-1.68-.04-.63-.01-1.34-.02-2.13-.02v-3.47h.99c.45,0,1.02,0,1.72,.02,.7,.01,1.43,.03,2.21,.04,.78,.01,1.6,.02,2.47,.02,1.45,0,2.7-.12,3.75-.38,1.05-.25,1.93-.65,2.63-1.18,.7-.54,1.22-1.22,1.58-2.05s.53-1.85,.53-3.06-.17-2.34-.51-3.24c-.34-.89-.86-1.61-1.54-2.15-.69-.54-1.53-.94-2.55-1.21-1.01-.26-2.18-.39-3.49-.39h-1.38c-.55,0-1.16,0-1.82,.02-.66,.01-1.3,.02-1.94,.02s-1.2,0-1.72,.02c-.51,.01-.9,.03-1.17,.06l.71-1.78v8.13c0,2.66,0,5.2,.02,7.62,.01,2.42,.03,4.65,.06,6.69,.03,2.04,.09,3.82,.2,5.35Z"/><path class="cls-7" d="M103.07,158.67h-4.03c.05-1.21,.08-2.43,.08-3.67s0-2.49,.02-3.75c.01-1.26,.02-2.53,.02-3.81v-8.29c0-1.33,0-2.59-.02-3.77-.01-1.18-.03-2.37-.04-3.55-.01-1.18-.03-2.42-.06-3.71h4.07c-.05,1.24-.08,2.45-.08,3.63s0,2.38-.02,3.59c-.01,1.21-.02,2.49-.02,3.85v12.22c0,1.24,0,2.45,.02,3.63,.01,1.18,.03,2.4,.06,3.63Z"/><path class="cls-7" d="M131.42,158.67h-3.2c-.21,0-.38-.01-.51-.04-.13-.03-.24-.08-.34-.18-.09-.09-.15-.22-.18-.38-.03-.16-.04-.37-.04-.63,0-.45,0-.95,.02-1.52,.01-.57,.03-1.15,.06-1.74,.03-.59,.05-1.13,.08-1.6l.32,1.46-.99-.08,.79-1.5c-.24,1.45-.78,2.67-1.62,3.65-.84,.99-1.95,1.72-3.34,2.21-1.38,.49-3.03,.73-4.96,.73-1.32,0-2.48-.13-3.5-.4-1.01-.26-1.88-.66-2.61-1.18-.72-.53-1.26-1.2-1.62-2.01-.35-.82-.53-1.82-.53-3,0-1.61,.36-2.9,1.09-3.87,.72-.97,1.82-1.71,3.28-2.21s3.31-.75,5.55-.75c1.84,0,3.48,.07,4.92,.22,1.43,.14,2.59,.32,3.46,.53v1.86c-1.13-.21-2.36-.36-3.69-.43-1.33-.08-2.72-.12-4.17-.12-1.13,0-2.12,.09-2.96,.26-.84,.17-1.53,.43-2.07,.79s-.95,.8-1.24,1.34c-.29,.54-.43,1.18-.43,1.92,0,.66,.11,1.26,.34,1.8,.22,.54,.59,.99,1.09,1.34,.5,.36,1.12,.61,1.86,.77,.74,.16,1.62,.24,2.65,.24,1.34,0,2.53-.15,3.55-.45,1.03-.3,1.89-.76,2.59-1.36,.7-.6,1.22-1.32,1.56-2.15,.34-.83,.51-1.73,.51-2.71,0-.66,0-1.34,.02-2.03,.01-.7,.03-1.38,.06-2.05,.03-.67,.04-1.24,.04-1.72,0-.82-.13-1.61-.38-2.37-.25-.76-.65-1.4-1.18-1.92-.54-.51-1.22-.92-2.05-1.22-.83-.3-1.84-.45-3.02-.45s-2.13,.12-2.98,.38c-.86,.25-1.57,.63-2.13,1.13-.57,.5-.97,1.12-1.22,1.86-.25,.74-.36,1.58-.34,2.53h-2.41c-.24,0-.46,0-.67,.02-.21,.01-.42,.02-.63,.02-.03-1.03,.07-2.01,.3-2.94,.22-.93,.61-1.79,1.17-2.57s1.24-1.42,2.07-1.94c.83-.51,1.81-.93,2.94-1.24,1.13-.32,2.42-.47,3.87-.47,1.92,0,3.54,.24,4.86,.71,1.32,.47,2.39,1.11,3.22,1.92,.83,.8,1.43,1.76,1.8,2.86s.55,2.28,.55,3.51c0,.95-.01,1.85-.04,2.7-.03,.86-.05,1.71-.06,2.57-.01,.86-.02,1.74-.02,2.67,0,.74,.01,1.46,.04,2.17,.03,.71,.06,1.39,.1,2.03,.04,.64,.1,1.24,.18,1.78,.08,.54,.16,.97,.24,1.28Z"/><path class="cls-7" d="M135.33,134.93c.84,0,1.72,0,2.65,.02,.92,.01,1.89,.03,2.9,.04,1.01,.01,2.04,.03,3.08,.04s2.1,0,3.18-.02c1.08-.03,2.17-.04,3.28-.04s2.22-.03,3.36-.08c-.03,.37-.05,.74-.08,1.13-.03,.38-.04,.77-.04,1.16v1.22c-.68-.05-1.4-.08-2.15-.08s-1.51,0-2.29-.02c-.78-.01-1.58-.03-2.41-.06-.83-.03-1.64-.04-2.43-.04h-9.04v-3.28Zm3.55-4.94c.32,0,.65,0,1.01,.02,.36,.01,.69,.02,1.01,.02h.67c.21,0,.43,0,.65-.02,.22-.01,.44-.02,.65-.02-.03,1.45-.06,2.96-.1,4.54-.04,1.58-.06,3.24-.06,4.98s0,3.55-.02,5.43c-.01,1.88-.02,3.84-.02,5.86,0,1,.18,1.86,.53,2.59,.36,.72,.94,1.28,1.76,1.66,.82,.38,1.9,.57,3.24,.57,1.05,0,2.03-.1,2.94-.3,.91-.2,1.74-.43,2.51-.69,.03,.21,.05,.44,.08,.69,.03,.25,.06,.5,.1,.75s.08,.49,.12,.73c.04,.24,.07,.47,.1,.69,.03,.22,.07,.44,.12,.65-.71,.13-1.39,.27-2.03,.41-.65,.14-1.32,.25-2.01,.32-.7,.07-1.47,.1-2.31,.1-1.29,0-2.42-.11-3.4-.34-.97-.22-1.8-.57-2.49-1.03-.69-.46-1.25-1.02-1.7-1.68-.45-.66-.78-1.38-1.01-2.15-.22-.78-.34-1.64-.34-2.59v-6.16c0-1.16,0-2.37,.02-3.63,.01-1.26,.02-2.54,.02-3.83s0-2.58-.02-3.87c-.01-1.29-.02-2.53-.02-3.71Z"/><path class="cls-7" d="M157.2,139.75v-3.4c1.26,.03,2.61,.04,4.03,.04h4.38c1.5,0,3.01,0,4.52-.02,1.51-.01,2.97-.03,4.36-.06-.03,.45-.03,.98-.02,1.6,.01,.62,.02,1.23,.02,1.84-1.92-.08-3.88-.12-5.86-.14-1.99-.01-3.95-.01-5.88,0-1.94,.01-3.78,.06-5.55,.14Zm3.83-4.7c0-.89,.1-1.72,.3-2.47,.2-.75,.49-1.42,.89-2.01,.39-.59,.91-1.11,1.56-1.54,.65-.43,1.42-.76,2.33-.97,.91-.21,1.95-.32,3.14-.32,.76,0,1.48,.03,2.15,.1s1.32,.16,1.94,.3c.62,.13,1.22,.32,1.8,.55-.03,.18-.07,.42-.12,.71-.05,.29-.11,.58-.18,.87-.07,.29-.12,.6-.16,.93-.04,.33-.07,.6-.1,.81-.63-.29-1.35-.51-2.15-.65-.8-.14-1.65-.22-2.55-.22-1.21,0-2.18,.13-2.9,.39-.72,.26-1.26,.73-1.6,1.4-.34,.67-.51,1.56-.51,2.67v6.34c0,1.91,0,3.65,.02,5.21,.01,1.57,.02,3.01,.02,4.34s.02,2.58,.06,3.75c.04,1.17,.07,2.31,.1,3.42-.39-.03-.75-.04-1.07-.04h-1.95c-.33,0-.68,.01-1.05,.04,.05-1.45,.08-2.88,.1-4.3,.01-1.42,.03-2.84,.04-4.25,.01-1.41,.02-2.84,.02-4.28,0-.74-.01-1.65-.04-2.74-.03-1.09-.04-2.33-.04-3.71s-.01-2.82-.04-4.32Z"/><path class="cls-7" d="M200.48,146.5c0,2-.3,3.8-.89,5.39s-1.43,2.92-2.51,3.99c-1.08,1.07-2.36,1.88-3.85,2.43-1.49,.55-3.11,.83-4.88,.83s-3.39-.28-4.88-.83c-1.49-.55-2.76-1.36-3.81-2.43-1.05-1.07-1.87-2.4-2.45-3.99-.58-1.59-.87-3.39-.87-5.39s.3-3.76,.89-5.27c.59-1.51,1.43-2.78,2.53-3.79,1.09-1.01,2.37-1.78,3.83-2.29s3.05-.77,4.76-.77,3.3,.26,4.76,.77,2.74,1.28,3.83,2.29c1.09,1.01,1.95,2.28,2.59,3.79,.63,1.51,.95,3.27,.95,5.27Zm-3.83,.16c0-1.55-.2-2.89-.59-4.01s-.97-2.04-1.72-2.76c-.75-.72-1.63-1.26-2.63-1.6-1-.34-2.12-.51-3.36-.51s-2.32,.17-3.32,.51c-1,.34-1.88,.87-2.63,1.58-.75,.71-1.34,1.62-1.76,2.72-.42,1.11-.63,2.45-.63,4.03s.21,2.86,.63,4.01c.42,1.14,1,2.11,1.74,2.9,.74,.79,1.61,1.38,2.63,1.78,1.01,.4,2.13,.59,3.34,.59s2.4-.2,3.4-.59c1-.39,1.88-.99,2.63-1.78,.75-.79,1.32-1.76,1.7-2.9,.38-1.15,.57-2.47,.57-3.97Z"/><path class="cls-7" d="M210.12,158.67h-4.11c.03-1.66,.05-3.43,.08-5.31,.03-1.88,.04-4.1,.04-6.65s-.01-4.66-.04-6.48c-.03-1.82-.05-3.58-.08-5.29h3.48c0,.68-.02,1.42-.06,2.19-.04,.78-.07,1.63-.1,2.57-.03,.93-.08,1.97-.16,3.1l-.2-2.57,.79,.12-.75,2.41c.21-1.42,.54-2.65,.99-3.67,.45-1.03,1.03-1.87,1.76-2.53,.72-.66,1.56-1.15,2.51-1.48,.95-.33,2.03-.49,3.24-.49,.87,0,1.68,.08,2.43,.24,.75,.16,1.43,.38,2.03,.67-.05,.21-.11,.47-.16,.79-.05,.32-.11,.65-.18,.99-.07,.34-.12,.68-.16,1.01-.04,.33-.07,.63-.1,.89-.66-.32-1.35-.55-2.07-.69-.72-.14-1.48-.22-2.27-.22-1.03,0-1.97,.15-2.82,.43-.86,.29-1.59,.75-2.21,1.38-.62,.63-1.1,1.47-1.44,2.51-.34,1.04-.51,2.27-.51,3.69v3.34c0,1.17,0,2.32,.02,3.46,.01,1.13,.03,2.19,.04,3.16,.01,.97,.02,1.79,.02,2.45Z"/><path class="cls-7" d="M261.21,158.67h-3.95c.05-1.08,.08-2.4,.1-3.97,.01-1.57,.02-3.3,.02-5.21v-6.02c0-1.87-.4-3.27-1.2-4.21-.8-.93-2.14-1.4-4.01-1.4-.97,0-1.86,.14-2.67,.41-.8,.28-1.51,.7-2.11,1.26-.61,.57-1.09,1.28-1.46,2.13-.37,.86-.55,1.89-.55,3.1v9.69c0,.8,0,1.54,.02,2.21,.01,.67,.03,1.34,.06,1.99h-3.79c.03-.82,.05-1.7,.08-2.67,.03-.96,.05-2.05,.06-3.26,.01-1.21,.02-2.57,.02-4.09v-5.07c0-1.92-.4-3.36-1.2-4.3-.8-.95-2.18-1.42-4.13-1.42-.92,0-1.79,.14-2.61,.41s-1.53,.7-2.15,1.26c-.62,.57-1.1,1.27-1.44,2.11-.34,.84-.51,1.88-.51,3.12v9.69c0,.88,0,1.68,.02,2.39,.01,.71,.02,1.32,.02,1.82h-3.83c.05-1.63,.09-3.34,.1-5.11,.01-1.78,.02-3.88,.02-6.3,0-2.63,0-4.9-.02-6.81-.01-1.91-.05-3.74-.1-5.51h3.95c-.03,.68-.05,1.33-.06,1.93-.01,.61-.03,1.22-.04,1.84-.01,.62-.05,1.36-.1,2.23l-.2-1.78,.87,.2-.95,1.46c.4-1.4,.97-2.55,1.72-3.48,.75-.92,1.68-1.61,2.78-2.07,1.11-.46,2.4-.69,3.87-.69,1.08,0,2.08,.12,3,.38,.92,.25,1.69,.64,2.31,1.17s1.11,1.19,1.48,1.99c.37,.8,.57,1.76,.59,2.86l-.4-1.62,.83,.16-.91,1.42c.37-1.47,.95-2.69,1.74-3.63,.79-.95,1.77-1.64,2.94-2.07,1.17-.43,2.49-.65,3.97-.65,1.21,0,2.3,.15,3.28,.45,.97,.3,1.8,.76,2.47,1.38,.67,.62,1.18,1.4,1.52,2.35,.34,.95,.51,2.08,.51,3.4,0,.69,0,1.4-.02,2.15s-.03,1.49-.04,2.21c-.01,.72-.03,1.45-.04,2.17-.01,.72-.02,1.42-.02,2.07,0,1.29,.02,2.65,.06,4.07,.04,1.42,.07,2.7,.1,3.83Z"/><path class="cls-7" d="M289.37,158.67h-3.2c-.21,0-.38-.01-.51-.04-.13-.03-.24-.08-.34-.18-.09-.09-.15-.22-.18-.38-.03-.16-.04-.37-.04-.63,0-.45,0-.95,.02-1.52,.01-.57,.03-1.15,.06-1.74,.03-.59,.05-1.13,.08-1.6l.32,1.46-.99-.08,.79-1.5c-.24,1.45-.78,2.67-1.62,3.65-.84,.99-1.95,1.72-3.34,2.21-1.38,.49-3.03,.73-4.96,.73-1.32,0-2.48-.13-3.5-.4-1.01-.26-1.88-.66-2.61-1.18-.72-.53-1.26-1.2-1.62-2.01-.35-.82-.53-1.82-.53-3,0-1.61,.36-2.9,1.09-3.87,.72-.97,1.82-1.71,3.28-2.21s3.31-.75,5.55-.75c1.84,0,3.48,.07,4.92,.22,1.43,.14,2.59,.32,3.46,.53v1.86c-1.13-.21-2.36-.36-3.69-.43-1.33-.08-2.72-.12-4.17-.12-1.13,0-2.12,.09-2.96,.26-.84,.17-1.53,.43-2.07,.79s-.95,.8-1.24,1.34c-.29,.54-.43,1.18-.43,1.92,0,.66,.11,1.26,.34,1.8,.22,.54,.59,.99,1.09,1.34,.5,.36,1.12,.61,1.86,.77,.74,.16,1.62,.24,2.65,.24,1.34,0,2.53-.15,3.55-.45,1.03-.3,1.89-.76,2.59-1.36,.7-.6,1.22-1.32,1.56-2.15,.34-.83,.51-1.73,.51-2.71,0-.66,0-1.34,.02-2.03,.01-.7,.03-1.38,.06-2.05,.03-.67,.04-1.24,.04-1.72,0-.82-.13-1.61-.38-2.37-.25-.76-.65-1.4-1.18-1.92-.54-.51-1.22-.92-2.05-1.22-.83-.3-1.84-.45-3.02-.45s-2.13,.12-2.98,.38c-.86,.25-1.57,.63-2.13,1.13-.57,.5-.97,1.12-1.22,1.86-.25,.74-.36,1.58-.34,2.53h-2.41c-.24,0-.46,0-.67,.02-.21,.01-.42,.02-.63,.02-.03-1.03,.07-2.01,.3-2.94,.22-.93,.61-1.79,1.17-2.57s1.24-1.42,2.07-1.94c.83-.51,1.81-.93,2.94-1.24,1.13-.32,2.42-.47,3.87-.47,1.92,0,3.54,.24,4.86,.71,1.32,.47,2.39,1.11,3.22,1.92,.83,.8,1.43,1.76,1.8,2.86s.55,2.28,.55,3.51c0,.95-.01,1.85-.04,2.7-.03,.86-.05,1.71-.06,2.57-.01,.86-.02,1.74-.02,2.67,0,.74,.01,1.46,.04,2.17,.03,.71,.06,1.39,.1,2.03,.04,.64,.1,1.24,.18,1.78,.08,.54,.16,.97,.24,1.28Zm-11.1-28.39c1.05,0,1.95-.1,2.69-.3,.74-.2,1.34-.47,1.82-.83,.47-.36,.85-.81,1.12-1.36s.44-1.17,.49-1.86c.24,.03,.49,.05,.75,.06,.26,.01,.53,0,.79-.02,0,.87-.08,1.67-.24,2.39-.16,.72-.43,1.35-.81,1.88-.38,.53-.87,.97-1.46,1.32-.59,.36-1.31,.62-2.15,.79-.84,.17-1.84,.26-3,.26s-2.07-.08-2.9-.26c-.83-.17-1.55-.43-2.15-.79-.61-.35-1.09-.8-1.46-1.32-.37-.53-.65-1.15-.83-1.88-.18-.72-.26-1.52-.24-2.39,.24,.03,.51,.03,.81,.02,.3-.01,.56-.03,.77-.06,.05,.92,.31,1.72,.77,2.39,.46,.67,1.11,1.17,1.95,1.48,.84,.32,1.94,.47,3.28,.47Z"/><path class="cls-7" d="M325.97,128.1h4.03c-.03,1.13-.05,2.26-.08,3.38-.03,1.12-.05,2.3-.06,3.53-.01,1.24-.02,2.62-.02,4.17v5.31c0,1.97,0,3.79,.02,5.45,.01,1.66,.03,3.2,.06,4.62,.03,1.42,.05,2.79,.08,4.11h-4.03c.05-.47,.08-.94,.1-1.4,.01-.46,.02-.95,.02-1.48,0-.63,.02-1.26,.06-1.89s.08-1.3,.14-2.01l.16,1.74-.95-.16,.87-1.5c-.13,.76-.39,1.49-.77,2.17-.38,.68-.84,1.34-1.38,1.96-.54,.62-1.17,1.14-1.88,1.58-.71,.43-1.5,.79-2.37,1.07-.87,.28-1.83,.41-2.88,.41-1.53,0-2.92-.25-4.19-.75-1.26-.5-2.34-1.26-3.24-2.27-.9-1.01-1.58-2.28-2.05-3.79-.47-1.51-.71-3.27-.71-5.27s.25-3.82,.75-5.39c.5-1.57,1.22-2.89,2.15-3.97,.93-1.08,2.06-1.88,3.38-2.41,1.32-.53,2.78-.79,4.38-.79,1.42,0,2.7,.17,3.83,.49,1.13,.33,2.13,.82,3,1.46,.87,.65,1.58,1.44,2.13,2.39l-.87-.83,.75-.2-.32,1.3c-.03-.68-.05-1.31-.08-1.88-.03-.57-.04-1.13-.04-1.7v-3.83c0-.59,0-1.18,.02-1.78,.01-.59,0-1.21-.02-1.84Zm-15.4,18.88c0,1.58,.18,2.94,.53,4.09,.36,1.15,.87,2.08,1.54,2.8,.67,.72,1.47,1.26,2.41,1.6,.93,.34,1.99,.51,3.18,.51,1.05,0,2.05-.16,2.98-.49,.93-.33,1.76-.81,2.49-1.44,.72-.63,1.3-1.4,1.72-2.31,.42-.91,.63-1.96,.63-3.14v-9.2l.55,.99c-.69-.58-1.44-1.07-2.27-1.48-.83-.41-1.72-.71-2.69-.91-.96-.2-1.94-.3-2.94-.3-1.34,0-2.52,.2-3.53,.61-1.01,.41-1.86,.99-2.55,1.76-.69,.76-1.2,1.73-1.54,2.9-.34,1.17-.51,2.51-.51,4.01Z"/><path class="cls-7" d="M347.45,159.14c-1.45,0-2.78-.16-4.01-.47-1.22-.32-2.31-.8-3.26-1.44-.95-.64-1.76-1.47-2.45-2.47-.68-1-1.21-2.16-1.58-3.47-.37-1.32-.55-2.8-.55-4.46,0-2.13,.28-3.97,.85-5.53,.57-1.55,1.38-2.84,2.43-3.85,1.05-1.01,2.3-1.78,3.75-2.29s3.05-.77,4.82-.77c1.45,0,2.73,.15,3.85,.45,1.12,.3,2.09,.75,2.9,1.34,.82,.59,1.48,1.29,1.99,2.09,.51,.8,.88,1.71,1.09,2.71,.21,1,.32,2.08,.32,3.24v2.39c0,.36-.03,.69-.08,1.01-.4,0-.9,0-1.52,.02-.62,.01-1.34,.02-2.17,.02h-12.34c-1.03,0-1.99-.03-2.88-.08l.08-2.21c.71,.03,1.55,.04,2.53,.04h9.24c.95,0,1.8,0,2.57-.02,.76-.01,1.36-.05,1.78-.1l-.83,.83c.05-.26,.09-.59,.1-.99s.02-.8,.02-1.22c0-1.03-.13-1.95-.38-2.76-.25-.82-.66-1.51-1.22-2.07-.57-.57-1.26-1-2.09-1.3-.83-.3-1.85-.45-3.06-.45s-2.4,.19-3.42,.57c-1.01,.38-1.86,.97-2.55,1.76-.69,.79-1.2,1.8-1.56,3.02-.36,1.22-.53,2.68-.53,4.36,0,1.55,.18,2.92,.55,4.09,.37,1.17,.89,2.14,1.58,2.9s1.54,1.33,2.57,1.7c1.03,.37,2.2,.55,3.51,.55,1,0,1.89-.09,2.67-.28,.78-.18,1.42-.43,1.92-.75,.5-.32,.9-.7,1.19-1.14,.29-.45,.5-.95,.63-1.52,.13-.57,.21-1.18,.24-1.84,.16,0,.33,0,.51,.02,.18,.01,.38,.02,.59,.02h1.62c.29,0,.54-.01,.75-.04,.03,.71-.02,1.43-.14,2.15-.12,.72-.32,1.4-.59,2.03s-.67,1.21-1.16,1.74c-.5,.53-1.12,.97-1.86,1.34-.74,.37-1.64,.65-2.71,.85-1.07,.2-2.3,.3-3.69,.3Z"/><path class="cls-7" d="M383.78,158.67h-20.57v-2.8c.32-.32,.74-.75,1.28-1.3s1.13-1.17,1.78-1.86,1.33-1.44,2.05-2.27c.72-.83,1.44-1.64,2.15-2.45s1.4-1.59,2.07-2.37c.67-.78,1.28-1.48,1.84-2.11,.58-.68,1.13-1.33,1.66-1.93,.53-.61,1.03-1.16,1.52-1.66,.49-.5,.93-.95,1.32-1.34,.39-.4,.76-.72,1.11-.99l-.55,.79-.28-.75,1.22,.32c-.53,.05-1.15,.09-1.86,.12-.71,.03-1.47,.05-2.27,.08-.8,.03-1.64,.04-2.51,.04-1.42,0-2.66,0-3.71,.02-1.05,.01-1.97,.01-2.74,0-.78-.01-1.47-.01-2.07,0-.61,.01-1.22,.03-1.86,.06,.03-.18,.05-.38,.06-.57,.01-.2,.02-.42,.02-.67v-1.24c0-.26-.03-.54-.08-.83h20.34c0,.26,0,.5-.02,.71-.01,.21-.02,.43-.02,.67v.51c0,.21,0,.41,.02,.61s.02,.38,.02,.53c-.32,.32-.72,.74-1.2,1.28-.49,.54-1.02,1.13-1.6,1.78-.58,.65-1.18,1.32-1.82,2.03s-1.28,1.45-1.95,2.21-1.34,1.53-1.99,2.31c-.66,.78-1.3,1.53-1.94,2.27-.5,.55-1.01,1.12-1.52,1.7-.51,.58-1.03,1.15-1.56,1.7-.53,.55-1.04,1.05-1.54,1.5-.5,.45-.93,.83-1.3,1.15l.55-.87,.28,.71-1.22-.24c1.05-.05,2.18-.08,3.38-.08h3.26c1.63,0,3.12,0,4.46-.02,1.34-.01,2.51-.03,3.49-.06,.99-.03,1.76-.05,2.31-.08-.03,.13-.04,.31-.04,.53v1.2c0,.21,0,.45,.02,.73,.01,.28,.02,.59,.02,.93Z"/><path class="cls-7" d="M406.8,134.93h4.26c-.4,.89-.85,1.92-1.36,3.06-.51,1.15-1.05,2.38-1.6,3.69s-1.11,2.64-1.66,3.97-1.11,2.65-1.66,3.95c-.55,1.3-1.07,2.53-1.54,3.69-.47,1.16-.9,2.21-1.28,3.14-.38,.93-.68,1.68-.89,2.23h-2.29c-.37,0-.72,0-1.05-.02-.33-.01-.61-.01-.85,0-.24,.01-.43,.02-.59,.02-.21-.68-.56-1.6-1.05-2.74-.49-1.15-1.01-2.42-1.56-3.83s-1.16-2.89-1.82-4.44c-.66-1.55-1.33-3.11-2.01-4.66-.69-1.55-1.31-3.03-1.88-4.42-.57-1.4-1.1-2.61-1.6-3.63h4.54c.16,.47,.4,1.11,.71,1.92s.66,1.71,1.05,2.72c.38,1.01,.8,2.09,1.24,3.22,.45,1.13,.89,2.26,1.34,3.38,.45,1.12,.84,2.17,1.18,3.14,.45,1.18,.84,2.25,1.18,3.18,.34,.93,.62,1.74,.85,2.41,.22,.67,.39,1.27,.49,1.8l-.83-1.11h1.38l-.95,1.15c.21-.76,.53-1.75,.95-2.96,.42-1.21,1-2.72,1.74-4.54,.45-1.26,.94-2.61,1.48-4.05,.54-1.43,1.08-2.81,1.62-4.13,.54-1.32,1.01-2.51,1.42-3.59,.41-1.08,.74-1.92,1.01-2.53Z"/><path class="cls-7" d="M436.5,146.5c0,2-.3,3.8-.89,5.39s-1.43,2.92-2.51,3.99c-1.08,1.07-2.36,1.88-3.85,2.43-1.49,.55-3.11,.83-4.88,.83s-3.39-.28-4.88-.83c-1.49-.55-2.76-1.36-3.81-2.43-1.05-1.07-1.87-2.4-2.45-3.99-.58-1.59-.87-3.39-.87-5.39s.3-3.76,.89-5.27c.59-1.51,1.43-2.78,2.53-3.79,1.09-1.01,2.37-1.78,3.83-2.29s3.05-.77,4.76-.77,3.3,.26,4.76,.77,2.74,1.28,3.83,2.29c1.09,1.01,1.95,2.28,2.59,3.79,.63,1.51,.95,3.27,.95,5.27Zm-3.83,.16c0-1.55-.2-2.89-.59-4.01s-.97-2.04-1.72-2.76c-.75-.72-1.63-1.26-2.63-1.6-1-.34-2.12-.51-3.36-.51s-2.32,.17-3.32,.51c-1,.34-1.88,.87-2.63,1.58-.75,.71-1.34,1.62-1.76,2.72-.42,1.11-.63,2.45-.63,4.03s.21,2.86,.63,4.01c.42,1.14,1,2.11,1.74,2.9,.74,.79,1.61,1.38,2.63,1.78,1.01,.4,2.13,.59,3.34,.59s2.4-.2,3.4-.59c1-.39,1.88-.99,2.63-1.78,.75-.79,1.32-1.76,1.7-2.9,.38-1.15,.57-2.47,.57-3.97Z"/><path class="cls-7" d="M445.98,158.67h-4.03c.05-1.21,.08-2.43,.08-3.67s0-2.49,.02-3.75c.01-1.26,.02-2.53,.02-3.81v-8.29c0-1.33,0-2.59-.02-3.77-.01-1.18-.03-2.37-.04-3.55-.01-1.18-.03-2.42-.06-3.71h4.07c-.05,1.24-.08,2.45-.08,3.63s0,2.38-.02,3.59c-.01,1.21-.02,2.49-.02,3.85v12.22c0,1.24,0,2.45,.02,3.63,.01,1.18,.03,2.4,.06,3.63Z"/><path class="cls-7" d="M450.75,134.93c.84,0,1.72,0,2.65,.02,.92,.01,1.89,.03,2.9,.04,1.01,.01,2.04,.03,3.08,.04s2.1,0,3.18-.02c1.08-.03,2.17-.04,3.28-.04s2.22-.03,3.36-.08c-.03,.37-.05,.74-.08,1.13-.03,.38-.04,.77-.04,1.16v1.22c-.68-.05-1.4-.08-2.15-.08s-1.51,0-2.29-.02c-.78-.01-1.58-.03-2.41-.06-.83-.03-1.64-.04-2.43-.04h-9.04v-3.28Zm3.55-4.94c.32,0,.65,0,1.01,.02,.36,.01,.69,.02,1.01,.02h.67c.21,0,.43,0,.65-.02,.22-.01,.44-.02,.65-.02-.03,1.45-.06,2.96-.1,4.54-.04,1.58-.06,3.24-.06,4.98s0,3.55-.02,5.43c-.01,1.88-.02,3.84-.02,5.86,0,1,.18,1.86,.53,2.59,.36,.72,.94,1.28,1.76,1.66,.82,.38,1.9,.57,3.24,.57,1.05,0,2.03-.1,2.94-.3,.91-.2,1.74-.43,2.51-.69,.03,.21,.05,.44,.08,.69,.03,.25,.06,.5,.1,.75s.08,.49,.12,.73c.04,.24,.07,.47,.1,.69,.03,.22,.07,.44,.12,.65-.71,.13-1.39,.27-2.03,.41-.65,.14-1.32,.25-2.01,.32-.7,.07-1.47,.1-2.31,.1-1.29,0-2.42-.11-3.4-.34-.97-.22-1.8-.57-2.49-1.03-.69-.46-1.25-1.02-1.7-1.68-.45-.66-.78-1.38-1.01-2.15-.22-.78-.34-1.64-.34-2.59v-6.16c0-1.16,0-2.37,.02-3.63,.01-1.26,.02-2.54,.02-3.83s0-2.58-.02-3.87c-.01-1.29-.02-2.53-.02-3.71Z"/><path class="cls-7" d="M495.89,158.67h-3.2c-.21,0-.38-.01-.51-.04-.13-.03-.24-.08-.34-.18-.09-.09-.15-.22-.18-.38-.03-.16-.04-.37-.04-.63,0-.45,0-.95,.02-1.52,.01-.57,.03-1.15,.06-1.74,.03-.59,.05-1.13,.08-1.6l.32,1.46-.99-.08,.79-1.5c-.24,1.45-.78,2.67-1.62,3.65-.84,.99-1.95,1.72-3.34,2.21-1.38,.49-3.03,.73-4.96,.73-1.32,0-2.48-.13-3.5-.4-1.01-.26-1.88-.66-2.61-1.18-.72-.53-1.26-1.2-1.62-2.01-.35-.82-.53-1.82-.53-3,0-1.61,.36-2.9,1.09-3.87,.72-.97,1.82-1.71,3.28-2.21s3.31-.75,5.55-.75c1.84,0,3.48,.07,4.92,.22,1.43,.14,2.59,.32,3.46,.53v1.86c-1.13-.21-2.36-.36-3.69-.43-1.33-.08-2.72-.12-4.17-.12-1.13,0-2.12,.09-2.96,.26-.84,.17-1.53,.43-2.07,.79s-.95,.8-1.24,1.34c-.29,.54-.43,1.18-.43,1.92,0,.66,.11,1.26,.34,1.8,.22,.54,.59,.99,1.09,1.34,.5,.36,1.12,.61,1.86,.77,.74,.16,1.62,.24,2.65,.24,1.34,0,2.53-.15,3.55-.45,1.03-.3,1.89-.76,2.59-1.36,.7-.6,1.22-1.32,1.56-2.15,.34-.83,.51-1.73,.51-2.71,0-.66,0-1.34,.02-2.03,.01-.7,.03-1.38,.06-2.05,.03-.67,.04-1.24,.04-1.72,0-.82-.13-1.61-.38-2.37-.25-.76-.65-1.4-1.18-1.92-.54-.51-1.22-.92-2.05-1.22-.83-.3-1.84-.45-3.02-.45s-2.13,.12-2.98,.38c-.86,.25-1.57,.63-2.13,1.13-.57,.5-.97,1.12-1.22,1.86-.25,.74-.36,1.58-.34,2.53h-2.41c-.24,0-.46,0-.67,.02-.21,.01-.42,.02-.63,.02-.03-1.03,.07-2.01,.3-2.94,.22-.93,.61-1.79,1.17-2.57s1.24-1.42,2.07-1.94c.83-.51,1.81-.93,2.94-1.24,1.13-.32,2.42-.47,3.87-.47,1.92,0,3.54,.24,4.86,.71,1.32,.47,2.39,1.11,3.22,1.92,.83,.8,1.43,1.76,1.8,2.86s.55,2.28,.55,3.51c0,.95-.01,1.85-.04,2.7-.03,.86-.05,1.71-.06,2.57-.01,.86-.02,1.74-.02,2.67,0,.74,.01,1.46,.04,2.17,.03,.71,.06,1.39,.1,2.03,.04,.64,.1,1.24,.18,1.78,.08,.54,.16,.97,.24,1.28Z"/><path class="cls-7" d="M499.8,134.93c.84,0,1.72,0,2.65,.02,.92,.01,1.89,.03,2.9,.04,1.01,.01,2.04,.03,3.08,.04s2.1,0,3.18-.02c1.08-.03,2.17-.04,3.28-.04s2.22-.03,3.36-.08c-.03,.37-.05,.74-.08,1.13-.03,.38-.04,.77-.04,1.16v1.22c-.68-.05-1.4-.08-2.15-.08s-1.51,0-2.29-.02c-.78-.01-1.58-.03-2.41-.06-.83-.03-1.64-.04-2.43-.04h-9.04v-3.28Zm3.55-4.94c.32,0,.65,0,1.01,.02,.36,.01,.69,.02,1.01,.02h.67c.21,0,.43,0,.65-.02,.22-.01,.44-.02,.65-.02-.03,1.45-.06,2.96-.1,4.54-.04,1.58-.06,3.24-.06,4.98s0,3.55-.02,5.43c-.01,1.88-.02,3.84-.02,5.86,0,1,.18,1.86,.53,2.59,.36,.72,.94,1.28,1.76,1.66,.82,.38,1.9,.57,3.24,.57,1.05,0,2.03-.1,2.94-.3,.91-.2,1.74-.43,2.51-.69,.03,.21,.05,.44,.08,.69,.03,.25,.06,.5,.1,.75s.08,.49,.12,.73c.04,.24,.07,.47,.1,.69,.03,.22,.07,.44,.12,.65-.71,.13-1.39,.27-2.03,.41-.65,.14-1.32,.25-2.01,.32-.7,.07-1.47,.1-2.31,.1-1.29,0-2.42-.11-3.4-.34-.97-.22-1.8-.57-2.49-1.03-.69-.46-1.25-1.02-1.7-1.68-.45-.66-.78-1.38-1.01-2.15-.22-.78-.34-1.64-.34-2.59v-6.16c0-1.16,0-2.37,.02-3.63,.01-1.26,.02-2.54,.02-3.83s0-2.58-.02-3.87c-.01-1.29-.02-2.53-.02-3.71Z"/><path class="cls-7" d="M544.93,158.67h-3.2c-.21,0-.38-.01-.51-.04-.13-.03-.24-.08-.34-.18-.09-.09-.15-.22-.18-.38-.03-.16-.04-.37-.04-.63,0-.45,0-.95,.02-1.52,.01-.57,.03-1.15,.06-1.74,.03-.59,.05-1.13,.08-1.6l.32,1.46-.99-.08,.79-1.5c-.24,1.45-.78,2.67-1.62,3.65-.84,.99-1.95,1.72-3.34,2.21-1.38,.49-3.03,.73-4.96,.73-1.32,0-2.48-.13-3.5-.4-1.01-.26-1.88-.66-2.61-1.18-.72-.53-1.26-1.2-1.62-2.01-.35-.82-.53-1.82-.53-3,0-1.61,.36-2.9,1.09-3.87,.72-.97,1.82-1.71,3.28-2.21s3.31-.75,5.55-.75c1.84,0,3.48,.07,4.92,.22,1.43,.14,2.59,.32,3.46,.53v1.86c-1.13-.21-2.36-.36-3.69-.43-1.33-.08-2.72-.12-4.17-.12-1.13,0-2.12,.09-2.96,.26-.84,.17-1.53,.43-2.07,.79s-.95,.8-1.24,1.34c-.29,.54-.43,1.18-.43,1.92,0,.66,.11,1.26,.34,1.8,.22,.54,.59,.99,1.09,1.34,.5,.36,1.12,.61,1.86,.77,.74,.16,1.62,.24,2.65,.24,1.34,0,2.53-.15,3.55-.45,1.03-.3,1.89-.76,2.59-1.36,.7-.6,1.22-1.32,1.56-2.15,.34-.83,.51-1.73,.51-2.71,0-.66,0-1.34,.02-2.03,.01-.7,.03-1.38,.06-2.05,.03-.67,.04-1.24,.04-1.72,0-.82-.13-1.61-.38-2.37-.25-.76-.65-1.4-1.18-1.92-.54-.51-1.22-.92-2.05-1.22-.83-.3-1.84-.45-3.02-.45s-2.13,.12-2.98,.38c-.86,.25-1.57,.63-2.13,1.13-.57,.5-.97,1.12-1.22,1.86-.25,.74-.36,1.58-.34,2.53h-2.41c-.24,0-.46,0-.67,.02-.21,.01-.42,.02-.63,.02-.03-1.03,.07-2.01,.3-2.94,.22-.93,.61-1.79,1.17-2.57s1.24-1.42,2.07-1.94c.83-.51,1.81-.93,2.94-1.24,1.13-.32,2.42-.47,3.87-.47,1.92,0,3.54,.24,4.86,.71,1.32,.47,2.39,1.11,3.22,1.92,.83,.8,1.43,1.76,1.8,2.86s.55,2.28,.55,3.51c0,.95-.01,1.85-.04,2.7-.03,.86-.05,1.71-.06,2.57-.01,.86-.02,1.74-.02,2.67,0,.74,.01,1.46,.04,2.17,.03,.71,.06,1.39,.1,2.03,.04,.64,.1,1.24,.18,1.78,.08,.54,.16,.97,.24,1.28Zm-11.1-28.39c1.05,0,1.95-.1,2.69-.3,.74-.2,1.34-.47,1.82-.83,.47-.36,.85-.81,1.12-1.36s.44-1.17,.49-1.86c.24,.03,.49,.05,.75,.06,.26,.01,.53,0,.79-.02,0,.87-.08,1.67-.24,2.39-.16,.72-.43,1.35-.81,1.88-.38,.53-.87,.97-1.46,1.32-.59,.36-1.31,.62-2.15,.79-.84,.17-1.84,.26-3,.26s-2.07-.08-2.9-.26c-.83-.17-1.55-.43-2.15-.79-.61-.35-1.09-.8-1.46-1.32-.37-.53-.65-1.15-.83-1.88-.18-.72-.26-1.52-.24-2.39,.24,.03,.51,.03,.81,.02,.3-.01,.56-.03,.77-.06,.05,.92,.31,1.72,.77,2.39,.46,.67,1.11,1.17,1.95,1.48,.84,.32,1.94,.47,3.28,.47Z"/><path class="cls-7" d="M581.53,128.1h4.03c-.03,1.13-.05,2.26-.08,3.38-.03,1.12-.05,2.3-.06,3.53-.01,1.24-.02,2.62-.02,4.17v5.31c0,1.97,0,3.79,.02,5.45,.01,1.66,.03,3.2,.06,4.62,.03,1.42,.05,2.79,.08,4.11h-4.03c.05-.47,.08-.94,.1-1.4,.01-.46,.02-.95,.02-1.48,0-.63,.02-1.26,.06-1.89s.08-1.3,.14-2.01l.16,1.74-.95-.16,.87-1.5c-.13,.76-.39,1.49-.77,2.17-.38,.68-.84,1.34-1.38,1.96-.54,.62-1.17,1.14-1.88,1.58-.71,.43-1.5,.79-2.37,1.07-.87,.28-1.83,.41-2.88,.41-1.53,0-2.92-.25-4.19-.75-1.26-.5-2.34-1.26-3.24-2.27-.9-1.01-1.58-2.28-2.05-3.79-.47-1.51-.71-3.27-.71-5.27s.25-3.82,.75-5.39c.5-1.57,1.22-2.89,2.15-3.97,.93-1.08,2.06-1.88,3.38-2.41,1.32-.53,2.78-.79,4.38-.79,1.42,0,2.7,.17,3.83,.49,1.13,.33,2.13,.82,3,1.46,.87,.65,1.58,1.44,2.13,2.39l-.87-.83,.75-.2-.32,1.3c-.03-.68-.05-1.31-.08-1.88-.03-.57-.04-1.13-.04-1.7v-3.83c0-.59,0-1.18,.02-1.78,.01-.59,0-1.21-.02-1.84Zm-15.4,18.88c0,1.58,.18,2.94,.53,4.09,.36,1.15,.87,2.08,1.54,2.8,.67,.72,1.47,1.26,2.41,1.6,.93,.34,1.99,.51,3.18,.51,1.05,0,2.05-.16,2.98-.49,.93-.33,1.76-.81,2.49-1.44,.72-.63,1.3-1.4,1.72-2.31,.42-.91,.63-1.96,.63-3.14v-9.2l.55,.99c-.69-.58-1.44-1.07-2.27-1.48-.83-.41-1.72-.71-2.69-.91-.96-.2-1.94-.3-2.94-.3-1.34,0-2.52,.2-3.53,.61-1.01,.41-1.86,.99-2.55,1.76-.69,.76-1.2,1.73-1.54,2.9-.34,1.17-.51,2.51-.51,4.01Z"/><path class="cls-7" d="M603.02,159.14c-1.45,0-2.78-.16-4.01-.47-1.22-.32-2.31-.8-3.26-1.44-.95-.64-1.76-1.47-2.45-2.47-.68-1-1.21-2.16-1.58-3.47-.37-1.32-.55-2.8-.55-4.46,0-2.13,.28-3.97,.85-5.53,.57-1.55,1.38-2.84,2.43-3.85,1.05-1.01,2.3-1.78,3.75-2.29s3.05-.77,4.82-.77c1.45,0,2.73,.15,3.85,.45,1.12,.3,2.09,.75,2.9,1.34,.82,.59,1.48,1.29,1.99,2.09,.51,.8,.88,1.71,1.09,2.71,.21,1,.32,2.08,.32,3.24v2.39c0,.36-.03,.69-.08,1.01-.4,0-.9,0-1.52,.02-.62,.01-1.34,.02-2.17,.02h-12.34c-1.03,0-1.99-.03-2.88-.08l.08-2.21c.71,.03,1.55,.04,2.53,.04h9.24c.95,0,1.8,0,2.57-.02,.76-.01,1.36-.05,1.78-.1l-.83,.83c.05-.26,.09-.59,.1-.99s.02-.8,.02-1.22c0-1.03-.13-1.95-.38-2.76-.25-.82-.66-1.51-1.22-2.07-.57-.57-1.26-1-2.09-1.3-.83-.3-1.85-.45-3.06-.45s-2.4,.19-3.42,.57c-1.01,.38-1.86,.97-2.55,1.76-.69,.79-1.2,1.8-1.56,3.02-.36,1.22-.53,2.68-.53,4.36,0,1.55,.18,2.92,.55,4.09,.37,1.17,.89,2.14,1.58,2.9s1.54,1.33,2.57,1.7c1.03,.37,2.2,.55,3.51,.55,1,0,1.89-.09,2.67-.28,.78-.18,1.42-.43,1.92-.75,.5-.32,.9-.7,1.19-1.14,.29-.45,.5-.95,.63-1.52,.13-.57,.21-1.18,.24-1.84,.16,0,.33,0,.51,.02,.18,.01,.38,.02,.59,.02h1.62c.29,0,.54-.01,.75-.04,.03,.71-.02,1.43-.14,2.15-.12,.72-.32,1.4-.59,2.03s-.67,1.21-1.16,1.74c-.5,.53-1.12,.97-1.86,1.34-.74,.37-1.64,.65-2.71,.85-1.07,.2-2.3,.3-3.69,.3Z"/><path class="cls-7" d="M619.96,134.58c.92,0,1.62,.26,2.11,.77,.49,.51,.73,1.23,.73,2.15s-.24,1.63-.71,2.13c-.47,.5-1.18,.75-2.13,.75-.9,0-1.59-.25-2.07-.75-.49-.5-.73-1.21-.73-2.13s.25-1.64,.75-2.15c.5-.51,1.18-.77,2.05-.77Zm0,18.44c.89,0,1.59,.24,2.07,.73,.49,.49,.73,1.2,.73,2.15s-.24,1.65-.71,2.17c-.47,.53-1.17,.79-2.09,.79s-1.62-.26-2.09-.79c-.47-.53-.71-1.25-.71-2.17s.25-1.67,.75-2.15c.5-.49,1.18-.73,2.05-.73Z"/></g><g><rect class="cls-3" x="1216.61" y="214.5" width="262.38" height="262.38"/><path class="cls-5" d="M1225.81,467.69h244V223.69h-244v244Zm233.94-10.07h-223.88V233.75h223.88v223.88Z"/><rect class="cls-5" x="1302.63" y="319.44" width="44.62" height="44.62"/><polygon class="cls-5" points="1353.95 319.42 1353.95 364.06 1398.6 364.06 1353.95 319.42"/><rect class="cls-5" x="1302.63" y="268.11" width="44.62" height="44.62"/><polygon class="cls-5" points="1353.95 268.11 1353.95 312.76 1398.6 268.11 1353.95 268.11"/><polygon class="cls-5" points="1281.69 390.44 1273.46 390.44 1262.82 405.28 1262.82 390.44 1255.56 390.44 1255.56 422.81 1262.82 422.81 1262.82 408.25 1273.46 422.81 1281.87 422.81 1269.39 406.25 1281.69 390.44"/><g class="cls-2"><path class="cls-5" d="M1323.62,415.41c-.83,1.07-2.31,2.45-4.62,2.45-2.64,0-4.21-1.71-4.21-4.53v-12.07h-6.34v13.32c0,5.09,2.91,8.7,8.27,8.7,3.56,0,5.78-1.85,6.89-3.05v2.59h6.24v-21.55h-6.24v14.15Z"/><path class="cls-5" d="M1381.07,403.53c-1.3-1.25-3.51-2.73-6.61-2.73-6.01,0-10.17,5-10.17,11.34s4.11,11.14,10.17,11.14c3.28,0,5.46-1.52,6.61-2.68v2.23h6.24v-21.55h-6.24v2.27Zm0,12.39c-.88,.97-2.36,2.04-4.58,2.04-3.33,0-5.69-2.4-5.69-5.92s2.36-5.92,5.69-5.92c2.22,0,3.7,1.07,4.58,2.04v7.77Z"/><path class="cls-5" d="M1297.75,403.53c-1.3-1.25-3.51-2.73-6.61-2.73-6.01,0-10.17,5-10.17,11.34s4.11,11.14,10.17,11.14c3.28,0,5.45-1.52,6.61-2.68v2.23h6.25v-21.55h-6.25v2.27Zm0,12.39c-.88,.97-2.36,2.04-4.58,2.04-3.33,0-5.69-2.4-5.69-5.92s2.36-5.92,5.69-5.92c2.22,0,3.7,1.07,4.58,2.04v7.77Z"/><path class="cls-5" d="M1433.81,390.44v13.27c-1.11-1.16-3.37-2.91-6.84-2.91-6.06,0-10.17,4.99-10.17,11.33s4.21,11.14,10.17,11.14c3.47,0,5.73-1.71,6.84-2.92v2.46h6.24v-32.37h-6.24Zm0,25.2c-.83,1.07-2.41,2.32-4.81,2.32-3.33,0-5.68-2.41-5.68-5.92s2.35-5.92,5.68-5.92c2.4,0,3.98,1.24,4.81,2.31v7.21Z"/><path class="cls-5" d="M1405.03,400.8c-3.51,0-5.78,1.85-6.84,3.05v-2.59h-6.29v21.55h6.29v-14.15c.79-1.11,2.27-2.45,4.63-2.45,2.64,0,4.16,1.71,4.16,4.53v12.07h6.34v-13.32c0-5.09-2.92-8.69-8.28-8.69"/><path class="cls-5" d="M1346.46,395.2c2.13,0,3.37,.92,3.37,.92l1.02-4.81s-1.71-1.34-5.78-1.34c-5.27,0-8.55,3.05-8.55,8.73v2.55h-3.2v5.18h3.2v16.37h6.43v-16.37h7.3v-5.18h-7.3v-1.99c0-2.72,1.24-4.07,3.51-4.07"/><rect class="cls-5" x="1353.89" y="390.44" width="6.43" height="32.37"/></g><rect class="cls-3" x="931.92" y="214.5" width="262.38" height="262.38"/><path class="cls-5" d="M941.11,467.69h244V223.69h-244v244Zm233.94-10.07h-223.88V233.75h223.88v223.88Z"/><rect class="cls-5" x="974.48" y="314.83" width="7.31" height="23.8"/><path class="cls-5" d="M1011.67,328.46v10.16h-6.08v-8.77c0-1.49-.68-2.41-2.08-2.41-.99,0-1.7,.4-2.17,.88v10.3h-6.09v-8.77c0-1.49-.68-2.41-2.07-2.41-1.02,0-1.7,.54-2.15,1.05v10.13h-6.05v-16.15h6.05v1.7c.75-.82,2.28-2.04,4.66-2.04s4.05,1.05,4.9,2.79c.41-.54,2.18-2.79,5.44-2.79,3.77,0,5.64,2.62,5.64,6.32"/><path class="cls-5" d="M1032.54,330.47c0,4.72-2.92,8.5-7.17,8.5-2.34,0-3.84-1.12-4.66-1.94v8.4h-6.16v-22.95h6.16v1.6c.82-.82,2.31-1.94,4.66-1.94,4.29,0,7.17,3.64,7.17,8.33m-6.36,.1c0-1.94-1.29-3.26-3.13-3.26-1.12,0-1.87,.48-2.34,.92v4.62c.47,.48,1.23,.92,2.34,.92,1.84,0,3.13-1.29,3.13-3.2"/><rect class="cls-5" x="1035.05" y="314.83" width="6.36" height="23.8"/><path class="cls-5" d="M1044.22,317.99c0-1.77,1.29-2.99,3.23-2.99,2.08,0,3.2,1.16,3.2,2.92s-1.15,3-3.12,3-3.3-1.16-3.3-2.92m.07,4.49h6.29v16.15h-6.29v-16.15Z"/><path class="cls-5" d="M1053.13,330.57c0-4.59,2.96-8.43,8.33-8.43,4.52,0,6.23,1.77,6.23,1.77l-1.87,4.35s-.92-.88-2.96-.88-3.13,1.4-3.13,3.2,1.16,3.17,3.13,3.17,2.96-.89,2.96-.89l1.87,4.35s-1.7,1.8-6.23,1.8c-5.37,0-8.33-3.88-8.33-8.43"/><path class="cls-5" d="M1086.51,322.48v16.15h-6.16v-1.63c-.78,.82-2.27,1.97-4.69,1.97-4.29,0-7.18-3.64-7.18-8.33s2.89-8.5,7.18-8.5c2.34,0,3.91,1.16,4.69,2.01v-1.66h6.16Zm-6.16,10.33v-4.55c-.47-.48-1.22-.95-2.38-.95-1.84,0-3.13,1.33-3.13,3.26s1.29,3.2,3.13,3.2c1.16,0,1.9-.47,2.38-.95"/><path class="cls-5" d="M1102.08,322.38l-.4,5.99s-.38-.1-1.2-.1c-2.17,0-3.84,1.09-4.83,2.34v8.02h-6.25v-16.15h6.25v2.99c1.19-1.8,2.99-3.33,5.07-3.33,1.05,0,1.36,.24,1.36,.24"/><path class="cls-5" d="M1119.58,332.28h-10.41c.54,1.49,1.77,2.07,3.71,2.07,2.99,0,4.52-1.29,4.52-1.29l1.77,3.7s-2.14,2.21-6.8,2.21c-5.75,0-9.25-3.2-9.25-8.43,0-4.86,3.09-8.4,8.53-8.4,5,0,7.92,3.36,7.92,8.5v1.63Zm-5.54-3.61c0-1.12-.85-2.24-2.45-2.24-1.19,0-2.14,.71-2.51,2.24h4.96Z"/><path class="cls-5" d="M1139.71,322.48v16.15h-6.16v-1.63c-.78,.82-2.28,1.97-4.69,1.97-4.29,0-7.17-3.64-7.17-8.33s2.89-8.5,7.17-8.5c2.35,0,3.91,1.16,4.69,2.01v-1.66h6.16Zm-6.16,10.33v-4.55c-.48-.48-1.23-.95-2.38-.95-1.84,0-3.13,1.33-3.13,3.26s1.29,3.2,3.13,3.2c1.15,0,1.9-.47,2.38-.95"/><path class="cls-5" d="M981.75,364.24h4.93v5.07h-4.93v11.08h-6.36v-11.08h-1.83v-5.07h1.83v-1.25c0-4.42,2.65-6.74,6.97-6.74,3.4,0,4.79,1.06,4.79,1.06l-.85,4.66s-.85-.64-2.38-.64-2.18,.78-2.18,2.31v.61Z"/><path class="cls-5" d="M1005.69,364.24v16.15h-6.16v-1.63c-.78,.82-2.28,1.97-4.69,1.97-4.29,0-7.17-3.64-7.17-8.33s2.89-8.5,7.17-8.5c2.34,0,3.91,1.16,4.69,2.01v-1.66h6.16Zm-6.16,10.33v-4.55c-.48-.48-1.23-.95-2.38-.95-1.84,0-3.13,1.33-3.13,3.27s1.29,3.2,3.13,3.2c1.16,0,1.9-.47,2.38-.95"/><path class="cls-5" d="M1008.19,372.33c0-4.59,2.96-8.43,8.33-8.43,4.52,0,6.23,1.77,6.23,1.77l-1.87,4.35s-.92-.88-2.96-.88-3.13,1.4-3.13,3.2,1.16,3.16,3.13,3.16,2.96-.88,2.96-.88l1.87,4.35s-1.7,1.8-6.23,1.8c-5.37,0-8.33-3.88-8.33-8.43"/><path class="cls-5" d="M1040.01,374.04h-10.41c.54,1.49,1.77,2.07,3.71,2.07,2.99,0,4.52-1.29,4.52-1.29l1.77,3.7s-2.14,2.21-6.8,2.21c-5.75,0-9.25-3.2-9.25-8.43,0-4.86,3.09-8.4,8.53-8.4,5,0,7.92,3.37,7.92,8.5v1.63Zm-5.54-3.61c0-1.12-.85-2.24-2.45-2.24-1.19,0-2.14,.71-2.52,2.24h4.97Z"/><path class="cls-5" d="M991.82,398.35v23.8h-6.12v-1.63c-.78,.82-2.31,1.97-4.73,1.97-4.28,0-7.17-3.6-7.17-8.33s2.89-8.5,7.17-8.5c2.42,0,3.95,1.16,4.73,1.97v-9.28h6.12Zm-6.12,17.95v-4.49c-.48-.47-1.26-.98-2.41-.98-1.84,0-3.13,1.33-3.13,3.26s1.29,3.2,3.13,3.2c1.15,0,1.93-.51,2.41-.99"/><path class="cls-5" d="M994.67,401.51c0-1.77,1.29-2.99,3.23-2.99,2.07,0,3.19,1.16,3.19,2.92s-1.16,3-3.13,3-3.29-1.16-3.29-2.93m.07,4.49h6.29v16.15h-6.29v-16.15Z"/><path class="cls-5" d="M1011.53,406h4.93v5.07h-4.93v11.08h-6.36v-11.08h-1.83v-5.07h1.83v-1.26c0-4.42,2.65-6.73,6.97-6.73,3.4,0,4.79,1.06,4.79,1.06l-.85,4.66s-.85-.64-2.38-.64-2.18,.78-2.18,2.31v.62Z"/><path class="cls-5" d="M1033.9,415.8h-10.41c.54,1.49,1.77,2.07,3.71,2.07,2.99,0,4.52-1.29,4.52-1.29l1.77,3.71s-2.14,2.21-6.8,2.21c-5.75,0-9.25-3.2-9.25-8.43,0-4.86,3.09-8.4,8.53-8.4,5,0,7.92,3.36,7.92,8.5v1.63Zm-5.54-3.61c0-1.12-.85-2.24-2.45-2.24-1.19,0-2.14,.71-2.52,2.24h4.97Z"/><path class="cls-5" d="M1049.05,405.9l-.41,5.99s-.37-.1-1.19-.1c-2.17,0-3.84,1.09-4.83,2.34v8.02h-6.25v-16.15h6.25v2.99c1.19-1.8,2.99-3.33,5.07-3.33,1.06,0,1.36,.24,1.36,.24"/><path class="cls-5" d="M1066.56,415.8h-10.41c.54,1.49,1.77,2.07,3.71,2.07,2.99,0,4.52-1.29,4.52-1.29l1.77,3.71s-2.14,2.21-6.8,2.21c-5.75,0-9.25-3.2-9.25-8.43,0-4.86,3.09-8.4,8.53-8.4,5,0,7.92,3.36,7.92,8.5v1.63Zm-5.54-3.61c0-1.12-.85-2.24-2.45-2.24-1.19,0-2.14,.71-2.52,2.24h4.97Z"/><path class="cls-5" d="M1085.93,412.05v10.1h-6.22v-8.67c0-1.53-.78-2.51-2.21-2.51-1.09,0-1.84,.61-2.28,1.16v10.03h-6.19v-16.15h6.19v1.76c.75-.85,2.31-2.11,4.79-2.11,3.84,0,5.92,2.65,5.92,6.39"/><path class="cls-5" d="M1096.44,422.49c-4.32,0-6.97-2.28-6.97-6.67v-4.93h-1.8v-4.9h1.8v-5.51h6.36v5.51h4.96v4.9h-4.96v3.74c0,1.49,.71,2.27,2.17,2.27,1.53,0,2.38-.68,2.38-.68l.85,5.21s-1.42,1.05-4.79,1.05m-3.37,.92h5.24l-1.47,5.89h-4.96l1.19-5.89Z"/><path class="cls-5" d="M1120.37,406.01v16.15h-6.16v-1.63c-.78,.82-2.27,1.97-4.69,1.97-4.29,0-7.18-3.64-7.18-8.33s2.89-8.5,7.18-8.5c2.34,0,3.91,1.16,4.69,2.01v-1.66h6.16Zm-6.16,10.33v-4.55c-.48-.48-1.22-.95-2.38-.95-1.84,0-3.13,1.33-3.13,3.26s1.29,3.2,3.13,3.2c1.16,0,1.9-.47,2.38-.95"/><path class="cls-5" d="M1122.77,419.37c0-1.9,1.33-3.2,3.27-3.2,2.07,0,3.26,1.22,3.26,3.13s-1.22,3.2-3.2,3.2-3.33-1.26-3.33-3.13"/></g><g><path class="cls-4" d="M209.67,362.33c1.28-1.5,1.08-3.78-.46-5.1-1.54-1.32-3.81-1.17-5.1,.33-1.28,1.5-1.08,3.78,.46,5.09,1.54,1.32,3.82,1.17,5.11-.32m76.04-118.62c-2.6-2.37-6.37-2.43-8.45-.15-2.08,2.28-1.66,6.02,.94,8.39,2.59,2.36,6.36,2.43,8.44,.15,2.07-2.28,1.66-6.04-.93-8.39m-66.66-3.9c-2.99,.18-5.27,2.49-5.11,5.16,.17,2.67,2.7,4.68,5.69,4.5,2.99-.19,5.27-2.49,5.1-5.16-.16-2.67-2.71-4.68-5.69-4.49m-41.3,85.54c-2.23,.15-3.91,2.11-3.76,4.39,.16,2.28,2.07,4.01,4.3,3.87,2.23-.14,3.91-2.1,3.75-4.39-.14-2.28-2.07-4-4.29-3.87m4.51-47.58c-1.88-1.59-4.77-1.26-6.47,.74-1.69,2-1.55,4.91,.34,6.5,1.88,1.59,4.77,1.27,6.47-.74,1.69-2,1.55-4.91-.34-6.5m150.52,26.88c-3.83-.52-7.36,2.39-7.91,6.49-.56,4.11,2.08,7.84,5.91,8.37,3.82,.5,7.35-2.39,7.91-6.49,.55-4.11-2.08-7.84-5.91-8.37m-26.1,87.48c-3.71,2.76-4.63,7.8-2.05,11.25,2.58,3.45,7.66,4,11.37,1.23,3.71-2.78,4.62-7.8,2.03-11.26-2.58-3.45-7.66-4-11.36-1.23m-82.95,43.3c-4.86-1.35-9.87,1.45-11.19,6.24-1.33,4.8,1.52,9.77,6.38,11.12,4.87,1.34,9.88-1.45,11.21-6.25,1.32-4.8-1.53-9.77-6.4-11.11m-110.04-40.7c-5.05,2.69-6.96,8.89-4.31,13.89,2.67,4.99,8.89,6.85,13.94,4.16,5.04-2.69,6.96-8.89,4.3-13.88-2.65-5-8.89-6.86-13.92-4.17m.32-170.98l-.1-.06h-9.29c-12.7,36.15-16.05,88.15-1.58,127.59,17.05,46.46,51.39,62.99,71.74,71.47,29.88,12.45,70.59,8.61,96.03-5.3,.04-.02,.08-.05,.1-.06,.03-.01,.05-.03,.08-.04h0c29.54-15.48,46.22-46.41,50.06-67.95h.02c3.76-22.5,2.17-53.92-17.39-74.21-15.68-15.26-34.77-27.13-56.07-28.23h0c-20.27,.63-35.67,6.13-49.77,18.49-.01,.01-.01,.02-.03,.03h-.02c-9.69,10.7-17.21,26.1-17.5,42.74,.78,14.46,7.9,29.96,14.84,36.29,6.94,6.34,23.06,14.46,32.83,14.55,.95,0,.17-2.94,.17-2.94-11.1-1.06-10.32-3.91-10.32-3.91-.41-2.23,8.35-10.36,11.21-12.95-.81-.12-1.62-.28-2.41-.47l-4.31,3.17c-5.45,4.18-7.59,3.38-7.84-2.59-.11-2.65,.36-5.61,.48-6.78-.55-.52-1.09-1.05-1.6-1.6-2.31,5.57-2.19,11.24-2.17,11.26,.15,5.66-6.34,7.95-13.3,1.37-8.1-7.66-4.99-11.42-4.99-11.42,1.54-2.18,16.53-1.7,20.22-1.49-.54-.59-1.05-1.21-1.54-1.85l-6.85-1.13c-7.68-1.1-8.72-3.46-4.09-8.38,1.94-2.05,4.6-4.16,5.71-5.23-.01-.37-.03-.75-.03-1.12,0-.54,.01-1.07,.04-1.6-6.55,2.5-10.64,7.55-10.64,7.57-3.39,3.48-12.7,4.77-12.67-11.93,.03-11.84,7.73-10.93,7.73-10.93,3.03-.63,13.41,12.39,15.58,15.18,.06-1.08,.15-2.13,.32-3.18l-4.91-7.63c-5.22-6.82-4.17-9.58,3.41-10.08,3.89-.26,8.31,.48,9.13,.43,.23-.02,.42-.05,.61-.08,.35-.39,.71-.78,1.1-1.15,.23-.23,.46-.44,.69-.67-7.29-3.16-15.08-2.67-15.11-2.65-5.45,.27-6.85-4.09-6.85-4.09-2.9-4.97,5.74-14.9,6.27-15.5,20.29-16.65,16.34,17.83,15.77,22.16,.81-.76,1.65-1.48,2.52-2.14l2.06-10.11c1.54-9.22,4.62-10.46,11-4.92,3.27,2.84,6.14,6.84,6.83,7.44,.39,.35,.76,.61,1.1,.81,.92,.02,1.83,.07,2.73,.15-3.21-8.01-10.58-14.73-10.62-14.73-12.82-11.49,11.55-15.73,15.51-14.91,37.01,4.47-.57,27.18-4.78,29.65,1.19,.11,2.38,.27,3.54,.48l9.68-5.46c9.97-5.34,13.19-4.51,13.81,5.29,.32,5.03-.42,10.66-.59,11.72-.06,.34-.08,.65-.08,.94,.74,.79,1.43,1.6,2.1,2.45,4.08-9.08,3.96-19.33,3.92-19.36-.34-7.05,5.33-8.45,5.33-8.45,6.67-3.4,20.29,10.44,20.29,10.44,12.57,13.24,6.49,23.88,6.49,23.88-3.63,3.58-32.26-5.17-35.83-6.28,1.12,1.42,2.13,2.91,3.05,4.47l13.37,5.38c12.61,4.63,11.9,10.79,2.33,17.91-4.24,3.16-9.06,4.64-10.64,5.75-.29,1.82-.68,3.62-1.16,5.38,12.09-2.09,19.42-10,19.42-10.06,6.96-5.02,12.46-.41,12.46-.41,8.27,4.26,6.03,25.91,6.03,25.91-10.99,44.01-35.07-8.2-37.99-15.19-.54,1.96-1.19,3.85-1.96,5.7l4.82,15.26c3.08,12.83,2.2,19.13-10.99,17.08-6.12-.96-14.42-5.54-17-6.58-1.08,.58-2.2,1.13-3.33,1.63,3.89,3.77,15.5,10.4,21.25,11.94,13.46,3.6,14.94,10.81,14.94,10.81,3.07,9.92-20.31,22.82-20.31,22.82-26.23,9.55-28.17,1.24-28.17,1.24-4.2-5.87,8.99-40.2,11.43-46.41-1.79,.77-3.63,1.43-5.53,1.99-.56,1.16-2.28,4.93-7.23,16.76-6.73,16.03-12.13,15.03-18.98,1.69-3.25-6.33-6.49-16.48-7.44-19.2-3.71-1.16-7.26-2.65-10.63-4.41l-24.33,4.67c-17.24,2.97-16.36-7.26-14.32-12.9,2.79-7.68,9.22-17.98,10.58-20.7-2.25-4.64-3.95-9.6-5.03-14.77l-15.68-8.73c-19.27-12.15-19.82-22.27-1.42-30.81,8.48-3.94,19.58-6.22,23.23-7.31,1.47-3.16,3.15-6.22,5.01-9.14-21.15,2.11-40.78,9.86-40.81,9.95-13.34,5.93-23.84-3.09-23.84-3.09-12.18-10,1.09-48.64,1.09-48.64m43.1,167.48c6.47-10.41,42.14-21.46,47.77-23.37,3.81,25.01,15.28,38.22,5.69,47.33-9.53,9.06-29.47,2.45-31.98,1.63h0c-28.38-13.75-21.48-25.59-21.48-25.59m-47.08-80.85c7.19-4.64,51.7,15.91,58.51,19.11-13.12,12.74-19.56,31.77-19.52,31.83-4.36,11.46-14.76,11.07-14.76,11.07-13.46,2.36-19.42-8.06-23.95-24.31-4.83-17.36-.28-37.7-.28-37.7m-32.19-37.2c-6.14-2.19-13.04,1.4-15.43,8.06-2.37,6.66,.67,13.82,6.83,16.01,6.14,2.2,13.03-1.41,15.41-8.06,2.39-6.65-.66-13.81-6.81-16.01"/><path class="cls-4" d="M404.1,246.1c1.63,.4,2.79,1.97,3.48,4.69,.12,.66,.54,1.02,1.26,1.08,.88-.06,1.32-.57,1.32-1.55v-11.35c0-.37-.12-.7-.35-1.01-.24-.3-.56-.45-.97-.45-.62,0-1.08,.48-1.36,1.45-.41,1.28-.79,2.19-1.16,2.7-.35,.52-1.1,1.03-2.23,1.52v2.92Zm.1-15.83c3.9,.5,6.44,2.74,7.6,6.7,.25,.79,.73,1.21,1.45,1.27,.91-.06,1.36-.42,1.36-1.08v-9.67h-10.51l.1,2.78Zm-14.5-2.78c-1.09,0-1.7,.42-1.83,1.27-.03,.63,.17,1.04,.61,1.23,.44,.19,.89,.38,1.36,.59,.47,.2,.71,.61,.71,1.24v26.3c0,.57-.1,.96-.3,1.16-.21,.21-.54,.38-1.01,.54-.46,.15-.81,.34-1.03,.54-.22,.21-.34,.54-.34,1.01,0,.31,.17,.61,.5,.87,.33,.27,.68,.4,1.05,.4h12.56c1.63,0,2.52-.36,2.65-1.08,.09-.59,.04-.99-.17-1.19-.21-.2-.57-.4-1.12-.59-.53-.19-.9-.37-1.08-.52-.2-.15-.28-.5-.28-1.03v-30.72h-12.28Z"/><path class="cls-6" d="M434.27,238.36v14.1c0,4.41-1.99,6.62-5.97,6.62-3.1,0-4.66-1.94-4.66-5.82v-14.9h-5.32v15.4c0,6.35,3.01,9.53,9.06,9.53,1.34,0,2.66-.37,3.96-1.12,1.3-.76,2.28-1.73,2.94-2.92v3.38h5.31v-24.26h-5.31Zm16.3,24.26v-14.32c0-1.81,.54-3.34,1.63-4.55,1.08-1.23,2.5-1.83,4.25-1.83,3.17,0,4.76,1.81,4.76,5.44v15.26h5.32v-16.67c0-2.69-.77-4.74-2.27-6.15-1.52-1.41-3.61-2.11-6.31-2.11-3.3,0-5.81,1.45-7.53,4.33l-.1-.12v-3.54h-5.07v24.26h5.32Zm27.34-17.91c1.23-1.83,2.99-2.75,5.32-2.75,2.07,0,3.7,.75,4.92,2.27,1.2,1.51,1.81,3.58,1.81,6.24,0,2.33-.54,4.28-1.59,5.84-1.27,1.81-3,2.71-5.23,2.71s-3.91-.86-5.13-2.57c-1.07-1.53-1.59-3.43-1.59-5.7,0-2.47,.5-4.47,1.5-6.03m11.88-15.58v12.37c-1.58-2.54-4.28-3.81-8.11-3.81-2.94,0-5.35,1-7.27,3-2.2,2.29-3.3,5.51-3.3,9.63,0,3.83,.94,6.89,2.81,9.21,2,2.5,4.84,3.76,8.54,3.76s6.16-1.32,7.51-3.95h.1v3.29h5.05v-33.49h-5.32Zm23.93,28.85c-1.17,.68-2.47,1.03-3.92,1.03-1.19,0-2.25-.22-3.16-.65-1.2-.56-1.79-1.37-1.79-2.43,0-2.18,1.46-3.51,4.39-4.01,1.19-.15,2.39-.32,3.59-.48,1.32-.22,2.32-.54,3.02-.99v3.98c0,1.52-.72,2.7-2.12,3.55m4.34-18.71c-1.74-1.05-3.95-1.59-6.6-1.59-7.03,0-10.7,2.7-11.01,8.09h5.32c.22-2.54,2.01-3.81,5.35-3.81s5.02,1.08,5.02,3.26c0,1.33-.73,2.22-2.19,2.65l-5.07,.76c-3.01,.44-5.12,1.01-6.34,1.74-2.01,1.19-3,3.14-3,5.84,0,2.25,.85,4.02,2.54,5.31,1.49,1.19,3.43,1.78,5.76,1.78,3.6,0,6.4-.99,8.4-2.97,.39,1.98,1.76,2.97,4.14,2.97,1.08,0,2.21-.19,3.38-.59v-3.68h-1.32c-.85,0-1.27-.61-1.27-1.83v-12.48c0-2.37-1.03-4.18-3.1-5.43m10.55,3.05v14.34c0,2.18,.43,3.72,1.27,4.6,1.01,1.06,2.82,1.59,5.45,1.59-.03,0,1.12-.1,3.47-.28v-4.13c-.5,.09-1.26,.14-2.27,.14-1.14,0-1.87-.29-2.21-.85-.25-.4-.38-1.23-.38-2.48v-12.94h4.87v-3.97h-4.87v-7.27h-5.32v7.27h-4.03v3.97h4.03Zm.77,27.9h2.58c.03,.84-.17,1.6-.59,2.29-.43,.7-1.05,1.14-1.85,1.37v2.3c1.5-.32,2.72-1,3.66-2.07,.94-1.05,1.4-2.36,1.4-3.89v-5.07h-5.2v5.07Zm18.7-31.87h-5.31v24.26h5.31v-24.26Zm0-9.22h-5.31v5.07h5.31v-5.07Zm18.66,28.85c-1.16,.68-2.47,1.03-3.92,1.03-1.19,0-2.25-.22-3.16-.65-1.2-.56-1.8-1.37-1.8-2.43,0-2.18,1.47-3.51,4.39-4.01,1.19-.15,2.39-.32,3.59-.48,1.32-.22,2.34-.54,3.03-.99v3.98c0,1.52-.72,2.7-2.13,3.55m4.35-18.71c-1.75-1.05-3.96-1.59-6.62-1.59-7.02,0-10.7,2.7-11.01,8.09h5.32c.22-2.54,2-3.81,5.36-3.81s5.03,1.08,5.03,3.26c0,1.33-.74,2.22-2.21,2.65l-5.06,.76c-3,.44-5.12,1.01-6.34,1.74-2,1.19-3.01,3.14-3.01,5.84,0,2.25,.85,4.02,2.54,5.31,1.5,1.19,3.43,1.78,5.78,1.78,3.6,0,6.4-.99,8.4-2.97,.37,1.98,1.76,2.97,4.12,2.97,1.1,0,2.23-.19,3.38-.59v-3.68h-1.32c-.84,0-1.26-.61-1.26-1.83v-12.48c0-2.37-1.04-4.18-3.1-5.43m39.26,17.08c-1.21,1.77-2.96,2.66-5.21,2.66-2.1,0-3.77-.79-4.99-2.38-1.22-1.59-1.83-3.63-1.83-6.12,0-2.65,.59-4.73,1.76-6.27,1.18-1.52,2.85-2.28,5.06-2.28,2.09,0,3.78,.87,5.02,2.62,1.13,1.61,1.69,3.59,1.69,5.93s-.5,4.31-1.5,5.84m-11.88,15.25v-12.13c1.6,2.55,4.32,3.81,8.17,3.81,3.4,0,6.05-1.3,7.98-3.9,1.7-2.31,2.55-5.24,2.55-8.78,0-3.76-.94-6.8-2.81-9.12-2.03-2.54-4.88-3.8-8.54-3.8s-6.05,1.32-7.5,3.95h-.09v-3.28h-5.07v33.24h5.32Zm45.35-21.52c0-3.41-1.05-6.29-3.14-8.64-2.19-2.51-4.99-3.76-8.41-3.76s-6.36,1.27-8.58,3.8c-2.1,2.45-3.14,5.45-3.14,9.02,0,3.82,1.05,6.9,3.14,9.26,2.1,2.34,5.01,3.51,8.73,3.51,2.72,0,5.09-.73,7.11-2.18,2.01-1.46,3.31-3.49,3.87-6.09h-5.08c-.94,2.67-2.91,4-5.92,4-2.14,0-3.78-.72-4.94-2.14-1.06-1.31-1.59-2.98-1.59-5.01h17.87c.06-.59,.09-1.19,.09-1.78m-16.08-6.31c1.19-1.21,2.7-1.81,4.52-1.81s3.2,.62,4.31,1.85c1.12,1.24,1.72,2.74,1.81,4.5h-12.52c.06-1.83,.68-3.34,1.88-4.54m25.37,18.85v-14.32c0-1.81,.54-3.34,1.63-4.55,1.08-1.23,2.49-1.83,4.25-1.83,3.17,0,4.75,1.81,4.75,5.44v15.26h5.32v-16.67c0-2.69-.76-4.74-2.27-6.15-1.51-1.41-3.61-2.11-6.3-2.11-3.3,0-5.82,1.45-7.53,4.33l-.09-.12v-3.54h-5.07v24.26h5.32Zm23.27-20.29v14.34c0,2.18,.43,3.72,1.27,4.6,1,1.06,2.82,1.59,5.45,1.59-.04,0,1.12-.1,3.47-.28v-4.13c-.51,.09-1.27,.14-2.27,.14-1.14,0-1.87-.29-2.23-.85-.25-.4-.37-1.23-.37-2.48v-12.94h4.87v-3.97h-4.87v-7.27h-5.32v7.27h-4.03v3.97h4.03Zm19.29,20.29v-11.55c0-2.6,.65-4.65,1.94-6.16,1.19-1.44,2.75-2.16,4.66-2.16,.28,0,1.05,.08,2.3,.24v-5.17c-.94-.09-1.61-.14-2.01-.14-1.6,0-3.1,.56-4.51,1.67-1.41,1.11-2.27,2.34-2.58,3.69h-.09v-4.69h-5.02v24.26h5.31Zm27.15-24.26v14.1c.01,4.41-1.98,6.62-5.97,6.62-3.11,0-4.66-1.94-4.66-5.82v-14.9h-5.32v15.4c0,6.35,3.02,9.53,9.06,9.53,1.34,0,2.67-.37,3.96-1.12,1.3-.76,2.27-1.73,2.94-2.92v3.38h5.31v-24.26h-5.31Z"/><path class="cls-4" d="M403.23,298.37c1.97,.15,2.96,1.55,2.96,4.18v21.23c0,2.61-.99,4-2.96,4.18v2.77c3.28-.03,6.07-.86,8.35-2.51,2.28-1.64,4-3.8,5.14-6.44,1.14-2.64,1.71-5.43,1.71-8.37,0-3.1-.58-6.01-1.76-8.72-1.17-2.71-2.92-4.9-5.25-6.57-2.33-1.68-5.06-2.52-8.18-2.52v2.78Zm-13.94-2.78c-1.54-.09-2.36,.36-2.49,1.37l.19,.37c.19,.47,.66,.83,1.43,1.05,.76,.24,1.15,.88,1.15,1.91v26.21c0,.45-.11,.76-.3,.94-.21,.19-.53,.36-.97,.49-.43,.15-.77,.32-1.03,.52-.25,.21-.37,.52-.37,.92,.06,.9,.89,1.36,2.49,1.36h11.73v-35.13h-11.82Z"/><path class="cls-6" d="M444.76,318.2c0-3.41-1.05-6.29-3.15-8.64-2.18-2.5-4.99-3.75-8.39-3.75s-6.38,1.27-8.6,3.8c-2.09,2.45-3.13,5.46-3.13,9.02,0,3.83,1.04,6.91,3.13,9.26,2.1,2.34,5.02,3.52,8.74,3.52,2.72,0,5.09-.73,7.11-2.19,2.01-1.46,3.3-3.49,3.87-6.09h-5.08c-.94,2.67-2.91,4-5.93,4-2.13,0-3.77-.72-4.94-2.14-1.06-1.3-1.59-2.98-1.59-5.01h17.87c.06-.59,.1-1.18,.1-1.78m-16.09-6.3c1.19-1.22,2.7-1.81,4.53-1.81s3.18,.61,4.3,1.85c1.11,1.23,1.72,2.74,1.81,4.5h-12.52c.06-1.82,.7-3.34,1.88-4.54m31.71-1.15l-13.43,16.25v3.74h21.33v-4.28h-14.56l13.88-16.25v-3.72h-19.71v4.27h12.48Zm24.27,19.98l8.69-24.26h-5.54l-5.91,18.62h-.1l-6.15-18.62h-5.82l8.82,24.26h6.02Zm17.7-6.31c-1.1-1.56-1.65-3.5-1.65-5.84s.55-4.23,1.65-5.78c1.25-1.81,3-2.71,5.26-2.71s4.01,.9,5.26,2.71c1.09,1.56,1.64,3.48,1.64,5.78s-.55,4.29-1.64,5.84c-1.25,1.81-3,2.7-5.26,2.7s-4.01-.9-5.26-2.7m14.3,3.37c2.12-2.32,3.18-5.38,3.18-9.21s-1.06-6.84-3.18-9.16c-2.22-2.41-5.23-3.61-9.04-3.61s-6.8,1.18-8.97,3.54c-2.17,2.37-3.26,5.45-3.26,9.23s1.07,6.89,3.2,9.21c2.21,2.41,5.22,3.62,9.03,3.62s6.82-1.21,9.04-3.62m13.23-30.54h-5.31v33.48h5.31v-33.48Zm7.46,13.2v14.33c0,2.19,.42,3.72,1.27,4.6,1,1.06,2.81,1.6,5.44,1.6-.03,0,1.13-.1,3.48-.29v-4.14c-.5,.1-1.27,.14-2.27,.14-1.14,0-1.89-.28-2.23-.83-.25-.41-.37-1.24-.37-2.49v-12.92h4.87v-3.98h-4.87v-7.27h-5.32v7.27h-4.04v3.98h4.04Zm26.83,15.66c-1.16,.68-2.47,1.01-3.92,1.01-1.19,0-2.25-.21-3.16-.65-1.19-.56-1.79-1.37-1.79-2.43,0-2.18,1.47-3.51,4.4-4.01,1.19-.15,2.39-.31,3.59-.47,1.32-.23,2.32-.55,3.02-.99v3.97c0,1.53-.7,2.71-2.12,3.56m4.34-18.71c-1.75-1.06-3.95-1.59-6.61-1.59-7.04,0-10.7,2.69-11.01,8.08h5.32c.21-2.54,1.99-3.8,5.35-3.8s5.03,1.08,5.03,3.25c0,1.34-.74,2.23-2.21,2.66l-5.07,.74c-3.01,.44-5.12,1.02-6.33,1.74-2,1.19-3.01,3.14-3.01,5.83,0,2.26,.85,4.03,2.54,5.31,1.5,1.2,3.43,1.79,5.77,1.79,3.6,0,6.4-.99,8.4-2.98,.37,1.98,1.75,2.98,4.12,2.98,1.1,0,2.22-.2,3.39-.61v-3.68h-1.33c-.85,0-1.26-.6-1.26-1.83v-12.46c0-2.38-1.03-4.2-3.1-5.44m14.21,23.33v-11.55c0-2.59,.65-4.64,1.94-6.14,1.19-1.45,2.74-2.17,4.65-2.17,.29,0,1.06,.08,2.32,.25v-5.17c-.94-.1-1.61-.14-2.02-.14-1.59,0-3.1,.56-4.51,1.67-1.41,1.11-2.27,2.34-2.58,3.69h-.09v-4.69h-5.02v24.26h5.31Zm33.32-12.53c0-3.41-1.05-6.29-3.14-8.64-2.19-2.5-4.99-3.75-8.4-3.75s-6.37,1.27-8.6,3.8c-2.09,2.45-3.14,5.46-3.14,9.02,0,3.83,1.05,6.91,3.14,9.26,2.1,2.34,5.01,3.52,8.74,3.52,2.72,0,5.09-.73,7.11-2.19,2.01-1.46,3.3-3.49,3.87-6.09h-5.08c-.94,2.67-2.92,4-5.93,4-2.13,0-3.77-.72-4.93-2.14-1.06-1.3-1.6-2.98-1.6-5.01h17.87c.06-.59,.09-1.18,.09-1.78m-16.08-6.3c1.19-1.22,2.7-1.81,4.52-1.81s3.2,.61,4.31,1.85c1.11,1.23,1.72,2.74,1.81,4.5h-12.52c.06-1.82,.69-3.34,1.88-4.54m32.91,14.21c-1.17,.68-2.47,1.01-3.92,1.01-1.19,0-2.25-.21-3.16-.65-1.2-.56-1.79-1.37-1.79-2.43,0-2.18,1.46-3.51,4.4-4.01,1.19-.15,2.38-.31,3.58-.47,1.32-.23,2.33-.55,3.01-.99v3.97c0,1.53-.71,2.71-2.12,3.56m4.34-18.71c-1.75-1.06-3.95-1.59-6.6-1.59-7.04,0-10.71,2.69-11.02,8.08h5.32c.22-2.54,2-3.8,5.35-3.8s5.03,1.08,5.03,3.25c0,1.34-.74,2.23-2.21,2.66l-5.07,.74c-2.99,.44-5.12,1.02-6.34,1.74-2,1.19-2.99,3.14-2.99,5.83,0,2.26,.84,4.03,2.53,5.31,1.5,1.2,3.42,1.79,5.78,1.79,3.6,0,6.39-.99,8.4-2.98,.37,1.98,1.75,2.98,4.12,2.98,1.1,0,2.22-.2,3.38-.61v-3.68h-1.31c-.84,0-1.27-.6-1.27-1.83v-12.46c0-2.38-1.03-4.2-3.09-5.44"/><path class="cls-4" d="M401.85,365.75c1.43,.36,2.68,.99,3.73,1.92,1.05,.92,1.85,1.98,2.41,3.15,.56,1.18,.89,2.25,.99,3.23,.1,.85,.63,1.34,1.63,1.45,1.03-.12,1.55-.86,1.55-2.21v-8.57c0-.53-.12-.92-.37-1.17-.25-.25-.58-.37-.99-.37-.34,0-.63,.13-.87,.37-.24,.25-.47,.52-.7,.81-.25,.28-.52,.44-.83,.46-.32-.03-.84-.22-1.58-.56-.73-.34-1.49-.63-2.27-.86-.77-.24-1.69-.37-2.72-.4v2.77Zm-7.91,28.43c-1.05-1.22-1.78-2.45-2.19-3.69-.41-1.24-.76-2.34-1.04-3.31-.16-.78-.68-1.17-1.56-1.17-.44,0-.81,.17-1.11,.52-.29,.34-.45,.81-.45,1.41v9.84c0,.34,.14,.68,.42,1.03,.28,.34,.61,.52,.95,.52,.4,0,.83-.27,1.29-.79,.46-.53,.89-.79,1.3-.79s1.04,.17,1.81,.54c.77,.37,1.53,.67,2.27,.92,.74,.25,1.62,.37,2.65,.37v-2.77c-1.85-.52-3.3-1.4-4.35-2.62m-.92-29.28c-1.82,1.09-3.18,2.47-4.07,4.12-.9,1.66-1.37,3.49-1.43,5.49,.06,2.59,.9,5,2.5,7.23,1.59,2.21,3.79,3.71,6.59,4.5,2.69,.72,4.73,1.65,6.13,2.78,1.41,1.12,2.11,2.3,2.11,3.56,0,1.85-1.48,3.26-4.43,4.22v2.77c2.44,0,4.65-.56,6.63-1.7,1.99-1.14,3.55-2.65,4.67-4.53,1.13-1.87,1.69-3.83,1.69-5.87,0-1.78-.43-3.51-1.29-5.18-.86-1.68-2.23-3.21-4.12-4.58-1.9-1.37-4.21-2.47-6.97-3.29-1.37-.4-2.48-1.05-3.3-1.97-.83-.9-1.27-1.86-1.34-2.85,.1-1.88,1.21-3.17,3.39-3.85v-2.77c-2.67,.19-4.91,.83-6.74,1.92"/><path class="cls-6" d="M423.93,392.54c-1.1-1.56-1.64-3.5-1.64-5.84s.54-4.24,1.64-5.8c1.25-1.8,3.01-2.7,5.27-2.7s4,.9,5.25,2.7c1.1,1.56,1.65,3.5,1.65,5.8s-.55,4.29-1.65,5.84c-1.25,1.8-3,2.7-5.25,2.7s-4.01-.9-5.27-2.7m14.3,3.36c2.13-2.32,3.18-5.39,3.18-9.21s-1.05-6.84-3.18-9.16c-2.21-2.41-5.22-3.61-9.03-3.61s-6.8,1.17-8.97,3.55c-2.17,2.36-3.25,5.43-3.25,9.22s1.07,6.89,3.19,9.21c2.21,2.41,5.22,3.62,9.04,3.62s6.82-1.21,9.03-3.62m25.92-19.83c-1.95-1.44-4.41-2.16-7.37-2.16-3.85,0-6.84,1.25-8.97,3.76-2,2.35-3,5.45-3,9.3s1.01,6.67,3.05,8.93c2.12,2.41,5.03,3.62,8.73,3.62,6.38,0,10.08-3.27,11.11-9.77h-5.35c-.26,1.7-.89,3.05-1.91,4.02-1.01,.98-2.3,1.47-3.88,1.47-2.16,0-3.82-.87-4.99-2.61-.97-1.5-1.45-3.38-1.45-5.65,0-3.27,.77-5.65,2.3-7.15,1.13-1.08,2.58-1.64,4.38-1.64,3.25,0,5.11,1.5,5.55,4.51h5.35c-.25-2.85-1.45-5.06-3.56-6.63m13.41-1.48h-5.31v24.26h5.31v-24.26Zm0-9.23h-5.31v5.07h5.31v-5.07Zm27.94,20.95c0-3.41-1.05-6.29-3.14-8.64-2.19-2.5-5-3.75-8.41-3.75s-6.36,1.27-8.58,3.81c-2.09,2.44-3.14,5.45-3.14,9.02,0,3.81,1.05,6.91,3.14,9.25,2.1,2.36,5.01,3.53,8.73,3.53,2.72,0,5.09-.73,7.11-2.19,2.02-1.45,3.31-3.49,3.87-6.08h-5.08c-.94,2.66-2.92,4-5.93,4-2.12,0-3.77-.72-4.94-2.16-1.06-1.3-1.6-2.97-1.6-5h17.87c.06-.59,.1-1.19,.1-1.78m-16.08-6.31c1.19-1.2,2.7-1.81,4.52-1.81s3.18,.62,4.31,1.86c1.11,1.25,1.71,2.74,1.81,4.51h-12.52c.07-1.83,.69-3.35,1.89-4.55m21.7-1.45v14.33c0,2.2,.41,3.73,1.27,4.61,1,1.07,2.81,1.59,5.44,1.59-.03,0,1.13-.09,3.47-.28v-4.14c-.5,.1-1.26,.14-2.27,.14-1.14,0-1.88-.28-2.23-.84-.25-.41-.37-1.24-.37-2.49v-12.93h4.87v-3.97h-4.87v-7.27h-5.32v7.27h-4.03v3.97h4.03Zm26.83,15.65c-1.17,.68-2.47,1.03-3.92,1.03-1.19,0-2.26-.21-3.16-.65-1.19-.57-1.8-1.37-1.8-2.43,0-2.18,1.47-3.52,4.4-4.01,1.19-.15,2.39-.31,3.59-.46,1.32-.22,2.32-.56,3.01-.99v3.97c0,1.53-.7,2.72-2.12,3.55m4.34-18.7c-1.75-1.07-3.95-1.59-6.6-1.59-7.04,0-10.7,2.69-11.01,8.08h5.31c.21-2.54,2-3.81,5.35-3.81s5.03,1.09,5.03,3.27c0,1.34-.74,2.22-2.21,2.65l-5.07,.75c-3,.44-5.12,1.02-6.33,1.74-2.01,1.19-3.01,3.13-3.01,5.83,0,2.25,.85,4.03,2.54,5.31,1.5,1.19,3.43,1.79,5.78,1.79,3.59,0,6.39-.99,8.4-2.98,.37,1.98,1.75,2.98,4.13,2.98,1.1,0,2.21-.21,3.37-.61v-3.67h-1.32c-.84,0-1.27-.61-1.27-1.83v-12.46c0-2.38-1.03-4.19-3.09-5.43m-7.13-4.35c2.22,0,4.01-.56,5.4-1.68,1.37-1.13,2.17-2.76,2.39-4.91h-2.68c-.5,2.36-2.08,3.54-4.74,3.54-2.88,0-4.55-1.18-5.02-3.54h-2.72c.37,4.4,2.83,6.59,7.36,6.59m17.69,7.4v14.33c0,2.2,.41,3.73,1.26,4.61,.99,1.07,2.81,1.59,5.44,1.59-.03,0,1.13-.09,3.48-.28v-4.14c-.51,.1-1.27,.14-2.27,.14-1.14,0-1.88-.28-2.23-.84-.25-.41-.37-1.24-.37-2.49v-12.93h4.87v-3.97h-4.87v-7.27h-5.31v7.27h-4.04v3.97h4.04Zm.76,27.89h2.58c.04,.85-.16,1.61-.58,2.3-.42,.68-1.03,1.14-1.86,1.36v2.3c1.5-.31,2.72-1.01,3.67-2.07,.94-1.07,1.41-2.37,1.41-3.9v-5.07h-5.21v5.07Zm18.71-31.86h-5.31v24.26h5.31v-24.26Zm0-9.23h-5.31v5.07h5.31v-5.07Zm11.31,9.23h-5.31v24.26h5.31v-24.26Zm0-9.23h-5.31v5.07h5.31v-5.07Z"/><path class="cls-4" d="M404.05,433.85c1.72,.29,3.27,1.41,4.68,3.36,1.39,1.96,2.22,3.87,2.47,5.71,.18,1.59,.89,2.46,2.11,2.58,1-.12,1.47-.8,1.36-2.01v-10.64c0-1.09-.51-1.64-1.55-1.64-.37,0-.79,.29-1.25,.86-.45,.58-.87,.9-1.25,.97-.41-.03-1.36-.34-2.87-.91-1.5-.57-2.74-.92-3.71-1.05v2.76Zm-10.52,.13c-2.31,1.79-4.04,4.09-5.16,6.89-1.12,2.81-1.69,5.82-1.69,9.04,.06,3.23,.66,6.18,1.78,8.89,1.12,2.7,2.84,4.86,5.14,6.48,2.3,1.61,5.07,2.41,8.33,2.41v-2.78c-.75-.08-1.45-.55-2.08-1.37-.65-.83-.97-1.74-.97-2.75v-22.11c-.09-2.68,.92-4.29,3.05-4.83v-2.76c-3.29,.12-6.08,1.09-8.4,2.89m10.52,33.71c2.23-.1,4.37-.96,6.44-2.58,2.07-1.63,3.43-3.58,4.09-5.87,.03-.13,.05-.24,.06-.33,.03-.09,.03-.23,.03-.43,0-.56-.12-.98-.37-1.29-.25-.28-.58-.44-.99-.44-.66,0-1.12,.38-1.37,1.13-.5,1.81-1.47,3.34-2.91,4.6-1.45,1.25-3.1,2.07-4.98,2.44v2.78Z"/><path class="cls-6" d="M424.81,442.7h-5.31v24.26h5.31v-24.26Zm0-9.23h-5.31v5.07h5.31v-5.07Zm18.26,33.49l8.69-24.26h-5.54l-5.92,18.63h-.1l-6.15-18.63h-5.82l8.83,24.26h6Zm17.41-24.26h-5.32v24.26h5.32v-24.26Zm0-9.23h-5.32v5.07h5.32v-5.07Zm11.31,0h-5.32v33.49h5.32v-33.49Zm27.93,20.95c0-3.41-1.06-6.29-3.14-8.64-2.19-2.5-4.99-3.76-8.4-3.76s-6.37,1.28-8.59,3.8c-2.09,2.45-3.15,5.45-3.15,9.03,0,3.81,1.06,6.9,3.15,9.26,2.1,2.34,5.01,3.52,8.72,3.52,2.73,0,5.1-.74,7.12-2.19,2.01-1.45,3.3-3.48,3.87-6.09h-5.08c-.94,2.67-2.91,4-5.92,4-2.13,0-3.78-.71-4.94-2.14-1.07-1.31-1.6-2.98-1.6-5h17.88c.06-.59,.09-1.19,.09-1.78m-16.08-6.31c1.19-1.21,2.69-1.81,4.52-1.81s3.18,.62,4.3,1.85c1.11,1.24,1.72,2.74,1.81,4.51h-12.53c.07-1.83,.7-3.34,1.89-4.55"/></g></svg>