<svg width="20" height="21" viewBox="0 0 20 21" fill="none" xmlns="http://www.w3.org/2000/svg">
<path d="M7.172 14.3533C7.92211 13.6034 8.93934 13.1821 10 13.1821C11.0607 13.1821 12.0779 13.6034 12.828 14.3533M7 8.18127H7.01M13 8.18127H13.01M19 10.1813C19 11.3632 18.7672 12.5335 18.3149 13.6254C17.8626 14.7174 17.1997 15.7095 16.364 16.5452C15.5282 17.381 14.5361 18.0439 13.4442 18.4962C12.3522 18.9485 11.1819 19.1813 10 19.1813C8.8181 19.1813 7.64778 18.9485 6.55585 18.4962C5.46392 18.0439 4.47177 17.381 3.63604 16.5452C2.80031 15.7095 2.13738 14.7174 1.68508 13.6254C1.23279 12.5335 1 11.3632 1 10.1813C1 7.79433 1.94821 5.50514 3.63604 3.81731C5.32387 2.12949 7.61305 1.18127 10 1.18127C12.3869 1.18127 14.6761 2.12949 16.364 3.81731C18.0518 5.50514 19 7.79433 19 10.1813Z" stroke="#D95040" stroke-width="2" stroke-linecap="round" stroke-linejoin="round"/>
</svg>
