<svg width="277" height="197" viewBox="0 0 277 197" fill="none" xmlns="http://www.w3.org/2000/svg">
<path d="M275.968 154.94L275.997 154.911C257.476 156.04 238.951 156.994 220.423 157.772C220.187 155.123 219.715 152.5 219.012 149.935C237.433 149.456 255.851 148.893 274.267 148.246C274.371 148.234 274.466 148.184 274.536 148.106C274.605 148.028 274.644 147.927 274.644 147.823C274.644 147.718 274.605 147.618 274.536 147.54C274.466 147.462 274.371 147.412 274.267 147.4C255.781 148.078 237.291 148.644 218.797 149.096C214.503 133.894 205.239 119.421 194.505 107.972C194.173 104.102 194.156 102.081 192.501 98.2754C189.303 90.9397 185.778 89.4074 185.859 91.152C185.865 91.6134 185.942 92.0713 186.086 92.5098C185.504 91.7829 181.22 87.33 180.347 89.736C179.7 89.3177 178.965 89.0552 178.2 88.9691C177.435 88.8831 176.66 88.9759 175.937 89.2402C173.222 84.8528 168.596 84.8789 165.729 83.3438C160.175 80.3839 162.74 71.1655 166.818 67.7056C166.818 67.7056 184.365 67.3727 184.385 67.1517C184.693 63.0433 188.195 0.423648 188.195 0.423648C144.968 -0.432622 98.4542 0.3655 55.5346 1.29591C55.2438 1.29591 54.988 1.48781 55.0229 1.75094C57.6091 23.7756 63.9592 68.8613 63.9592 68.8613C65.0088 69.2742 160.042 67.7957 165.694 67.7143C163.263 70.3642 161.935 73.8426 161.982 77.4385C162.273 86.5973 169.557 82.6939 175.503 89.4002C171.646 91.0618 171.127 95.9552 172.624 99.4515C172.886 100.131 173.248 100.767 173.696 101.341C173.751 102.705 174.137 104.035 174.821 105.216C176.686 108.753 179.995 109.981 180.181 110.5C180.123 118.721 181.899 128.761 183.543 136.784C178.007 133.9 161.583 126.938 144.686 126.448C145.641 118.122 152.837 117.067 151.853 111.503C154.857 111.39 157.865 111.263 160.878 111.124C161.635 111.089 160.814 108.798 160.732 108.402C159.504 103.03 158.279 97.6619 157.056 92.2975C156.87 91.5706 156.012 86.6932 155.311 86.6932L145.937 86.8561C143.874 84.892 139.026 84.1695 137.046 86.4476C134.162 80.8549 125.164 81.6647 124.874 87.1119C122.402 85.4401 118.768 85.1072 116.535 87.3751C116.308 87.4739 72.3227 88.0627 65.7982 88.3302C65.7474 88.3384 65.6994 88.3589 65.6584 88.3899C65.6174 88.4208 65.5845 88.4614 65.5627 88.508C65.5409 88.5546 65.5309 88.6058 65.5334 88.6571C65.5359 88.7085 65.551 88.7584 65.5772 88.8027C65.6935 89.5659 61.9065 107.505 61.4514 111.817C61.3875 112.435 68.0297 112.348 68.7755 112.348C59.39 123.354 50.9349 135.765 48.3835 150.291C32.5374 150.047 16.6913 149.663 0.845229 149.71C0.768116 149.71 0.694161 149.74 0.639635 149.795C0.585108 149.849 0.554474 149.923 0.554474 150.001C0.554474 150.078 0.585108 150.152 0.639635 150.206C0.694161 150.261 0.768116 150.291 0.845229 150.291C16.6114 150.985 32.4313 151.049 48.2149 151.172C47.7496 154.051 47.5549 156.967 47.6333 159.882C31.9326 159.55 16.245 159.055 0.547206 158.799C0.198301 158.799 0.145965 159.347 0.500685 159.347C16.2014 160.157 31.9355 160.443 47.6682 160.681C48.0695 168.564 51.1805 178.255 58.9248 181.796C62.1056 188.054 68.8526 193.672 76.306 192.068C76.0952 193.194 75.8801 194.359 75.6707 195.525C75.5777 196.043 76.3642 196.27 76.4572 195.745C78.5841 184.232 80.7749 172.66 84.5504 161.549C84.6667 161.205 84.136 161.065 84.0139 161.404C80.3722 171.064 78.3268 181.203 76.4398 191.317C68.7479 192.43 62.6072 187.537 59.4307 180.905C57.7186 177.4 56.7284 173.587 56.5192 169.693C56.3099 165.798 56.8857 161.901 58.2124 158.233C62.1856 148.057 72.7734 140.737 83.1271 135.825C93.6811 130.817 105.018 127.663 116.642 126.502C117.464 134.269 126.383 136.896 133.195 136.489C140.007 136.082 144.027 134.006 144.608 127.137C144.697 127.207 169.168 127.685 190.29 141.791C196.496 145.933 202.13 151.26 205.44 158.024C208.662 164.556 209.787 172.509 206.914 179.367C202.765 189.273 195.168 190.706 190.145 191.603C188.377 180.947 184.952 170.633 179.995 161.036C179.867 160.786 179.458 160.943 179.582 161.211C184.756 172.37 188.289 184.22 190.069 196.392C190.126 196.771 190.831 196.87 190.831 196.392C190.768 195.065 190.593 193.745 190.308 192.448C195.793 191.96 200.868 189.336 204.437 185.141C216.119 182.181 221.142 169.654 220.472 158.584C239.032 157.826 257.582 156.864 276.122 155.699C276.586 155.656 276.448 154.94 275.968 154.94ZM64.026 59.8029V59.8261C61.0778 41.3269 58.8056 22.9265 56.1757 4.42006C99.7772 3.66846 144.537 3.98393 187.548 3.25705L184.193 57.7938C166.033 58.3287 66.3564 58.9001 64.026 59.8029ZM151.688 110.814C151.421 110.051 150.925 109.388 150.268 108.916C151.016 107.716 151.419 106.333 151.431 104.919H152.218C152.583 106.858 152.948 108.8 153.314 110.746L151.688 110.814ZM150.46 100.158C150.713 99.963 150.945 99.7423 151.153 99.4995C151.491 101.055 151.783 102.605 152.074 104.162H151.444C151.496 102.761 151.155 101.374 150.458 100.158H150.46ZM160.411 110.442C158.182 110.547 155.953 110.644 153.724 110.733C153.555 108.775 153.164 106.84 152.821 104.906C154.912 104.984 157.006 104.929 159.091 104.742C159.526 106.643 159.966 108.544 160.41 110.443L160.411 110.442ZM158.94 104.091H158.953H158.941L152.69 104.143C152.337 102.326 151.985 100.512 151.635 98.7014L157.676 98.5269L158.94 104.091ZM157.496 97.8393L151.81 98.0079C151.924 97.3207 151.878 96.6167 151.676 95.9501C151.474 95.2834 151.123 94.672 150.647 94.1627C150.549 93.7266 150.461 93.2716 150.357 92.8281L156.335 92.7002L157.496 97.8393ZM155.276 87.4565C155.592 88.9597 155.877 90.4687 156.175 91.9777L150.19 92.0766C149.892 90.5496 149.504 89.0418 149.026 87.5611L155.276 87.4565ZM149.788 93.6263C149.081 93.3008 148.281 93.2409 147.533 93.4576C147.595 93.2774 147.647 93.0956 147.69 92.9096L149.612 92.8747L149.788 93.6263ZM148.361 87.5728C148.63 89.0988 148.986 90.6083 149.426 92.094L147.813 92.1231C147.984 90.5151 147.541 88.9018 146.571 87.6077L148.361 87.5728ZM113.127 88.2008H113.146L115.943 88.1485C115.352 89.066 115.143 90.1785 115.362 91.2479L112.89 91.9588C113.001 90.7594 113.127 89.3638 113.127 88.2008ZM112.341 88.2008L112.306 92.2612C112.059 92.4062 111.822 92.566 111.595 92.7395L104.714 92.8529C104.784 91.3447 104.742 89.8334 104.586 88.3316L112.341 88.2008ZM109.299 98.7406L109.276 98.7581H104.714V93.6495L110.711 93.5449C110.079 94.2354 109.622 95.0667 109.376 95.9696C109.131 96.8726 109.105 97.8211 109.299 98.7363V98.7406ZM104.736 105.47V105.482L108.711 105.435C108.771 106.702 109.241 107.915 110.051 108.891C109.569 109.219 109.18 109.668 108.924 110.192C108.668 110.716 108.552 111.298 108.588 111.88H104.663C104.712 109.744 104.736 107.606 104.736 105.466V105.47ZM109.042 103.726C108.911 104.027 108.819 104.344 108.769 104.669L104.742 104.716V99.4719H109.512C109.829 100.338 110.397 101.091 111.143 101.634C110.239 102.088 109.504 102.818 109.042 103.718V103.726ZM104.172 111.918C98.1688 111.956 92.1671 111.956 86.167 111.918C86.3472 109.419 86.1844 107.847 87.7806 105.69L104.019 105.502C104.054 107.639 104.102 109.772 104.172 111.91V111.918ZM88.4319 104.896C89.9509 103.367 91.0975 101.508 91.7829 99.4646H95.41C95.381 101.243 95.381 103.025 95.381 104.807V104.819L88.4319 104.896ZM96.3462 88.4916L103.961 88.3578C103.862 89.8648 103.847 91.3761 103.915 92.8848L96.259 93.0128C96.2997 91.511 96.3172 90.002 96.3462 88.4916ZM96.2358 93.8109H96.259L103.938 93.6772V98.7653H96.0962C96.1485 97.1168 96.1892 95.4697 96.2358 93.8124V93.8109ZM96.0729 99.4515H103.944C103.959 101.196 103.98 102.944 104.008 104.695L95.8156 104.788C95.9377 103.013 96.0148 101.237 96.0729 99.453V99.4515ZM88.743 88.6195L95.7051 88.4974L95.5554 93.0259L88.4581 93.1422C88.6665 91.6444 88.7617 90.133 88.743 88.6209V88.6195ZM88.3869 93.9345L95.5249 93.8051L95.4028 98.7479H91.9588C92.1449 97.9556 92.4603 96.6443 91.5096 96.2082C90.4498 95.7183 89.6749 97.944 87.9275 98.7305C88.0787 97.1342 88.2318 95.538 88.3869 93.9417V93.9345ZM82.1705 88.7416V88.7707L88.1775 88.6602C87.9643 90.1596 87.8318 91.6693 87.7806 93.1829H87.391C88.0147 91.6608 84.6405 90.6708 81.7213 93.1829C81.8027 92.4167 82.2171 89.2388 82.1705 88.7431V88.7416ZM87.7167 93.9868H87.692C87.595 95.5675 87.4981 97.1463 87.4012 98.7232H85.1595C84.7234 97.441 85.1595 94.4404 86.3225 93.9868H87.6905V93.9519L87.7167 93.9868ZM81.4306 88.7823L81.1849 93.289L78.4765 93.3355C77.3978 91.1098 78.0738 89.4016 76.9791 88.8666L81.4306 88.7823ZM80.8491 94.1075C80.509 94.5233 80.2236 94.9811 80.0001 95.4697L78.9156 94.1467L80.8491 94.1075ZM71.5537 88.9655L76.2159 88.8899C74.7825 89.5892 74.5426 92.0533 74.5426 93.4053L72.346 93.4576C71.606 92.8281 71.2862 93.4925 70.7381 93.4925L71.5246 88.9655H71.5537ZM74.7767 96.3535V96.3768V96.3506C73.99 95.8086 73.3538 95.0758 72.9275 94.2209H74.5644C74.5762 94.9354 74.6472 95.6478 74.7767 96.3506V96.3535ZM69.9167 98.5444L69.9284 98.5211C70.1542 97.0945 70.3853 95.6708 70.6218 94.2499C70.4895 95.7038 70.6745 97.169 71.1641 98.5444H69.9167ZM71.3618 99.2495C71.9564 101.237 72.7661 103.06 73.2255 105.076C71.8008 105.099 70.3737 105.128 68.9442 105.163C69.2349 103.194 69.5257 101.218 69.8164 99.2495H71.3618ZM66.0831 88.9887V88.948C67.6736 88.9771 69.2582 88.948 70.8486 88.948C70.5811 90.4629 70.3194 91.9719 70.0563 93.4867C68.4659 93.5274 66.8754 93.5856 65.2908 93.6495C65.6534 92.1143 65.918 90.5576 66.0831 88.9887ZM65.1789 94.2848V94.2441H69.9284C69.7016 95.6659 69.4675 97.0819 69.2407 98.5037H64.4157C64.6672 97.0993 64.923 95.6892 65.1789 94.2848ZM64.2935 99.0576H64.3168C65.9159 99.1448 67.5151 99.1855 69.1142 99.2146C68.8395 101.189 68.5197 103.17 68.258 105.152C66.5551 105.198 64.8537 105.262 63.1538 105.344C63.5415 103.25 63.9291 101.155 64.3168 99.0576H64.2935ZM67.5689 111.666C65.6979 111.637 63.8283 111.637 61.9573 111.637L61.9748 111.579C62.3402 109.641 62.7172 107.698 63.1058 105.752L68.1518 105.88C67.8545 107.797 67.6599 109.728 67.5689 111.666ZM67.9818 111.678H67.9992L68.8613 105.88H73.384C73.4231 106.267 73.4231 106.656 73.384 107.043C72.0116 108.594 70.6518 110.148 69.3047 111.705L67.9818 111.678ZM58.0772 156.356V156.345C56.377 160.219 55.5268 164.412 55.584 168.643C55.6411 172.873 56.6043 177.042 58.4087 180.868C44.3377 171.354 47.3382 150.307 53.3205 136.901C58.2211 125.901 65.9886 116.507 73.9349 107.581C75.098 106.258 71.3371 97.361 71.2149 95.2341C71.1219 93.6205 71.7964 93.289 72.378 94.436C72.8969 95.4217 73.823 96.89 75.0122 97.1691C75.4847 98.5444 75.8394 98.0952 75.787 97.88C75.2913 95.4798 74.435 92.0068 76.0371 89.8625C77.2001 88.3127 77.1507 91.1505 77.267 91.7102C77.5403 93.0259 78.7527 95.5845 79.7835 96.0265C79.4229 97.0586 80.0291 96.6966 80.0742 96.5629C82.1371 91.1389 88.4465 91.9021 86.4126 93.2483C85.8679 93.5706 85.4066 94.0164 85.0657 94.5497C84.7248 95.083 84.5139 95.6889 84.4501 96.3187C83.6985 101.44 87.7472 100.607 90.6838 97.0993C91.8963 95.6543 91.966 98.7712 90.0253 101.929C88.3883 104.592 86.1568 105.553 85.8951 109.052C85.1682 117.629 83.4237 127.838 82.2301 135.377C72.6498 140.041 62.7671 146.369 58.0772 156.356ZM83.053 134.99V134.973C84.469 127.577 85.4823 120.11 86.0884 112.604H108.639C109.484 117.481 115.532 118.128 116.511 125.708C104.905 126.838 93.5831 129.979 83.053 134.99ZM144.431 123.256C144.071 124.4 143.836 125.58 143.732 126.775C143.143 132.939 140.534 134.979 133.68 135.56C126.391 136.155 118.531 133.865 117.43 126.024C116.456 119.045 114.232 119.666 110.63 114.777C109.558 113.315 108.594 110.622 110.595 109.487C111.596 110.585 112.85 111.423 114.248 111.928C117.39 118.973 118.455 127.107 127.58 128.004C145.223 129.646 141.278 120.038 146.866 111.654C147.934 111.141 148.903 110.443 149.727 109.592C150.361 110.122 150.798 110.849 150.969 111.657C151.141 112.465 151.035 113.308 150.671 114.049C149.326 117.422 145.905 118.774 144.434 123.256H144.431ZM180.377 90.6431H180.355C180.85 91.7422 181.35 92.8437 181.853 93.9476C181.142 93.0317 177.645 89.2155 176.474 91.2494C175.892 92.3092 177.132 93.901 177.637 94.8503C175.683 95.1915 173.938 96.275 172.765 97.8742C170.978 91.1083 177.548 87.7298 180.377 90.6431ZM173.818 100.549C173.527 99.8615 173.236 99.168 172.945 98.4804C174.237 96.953 175.979 95.8741 177.922 95.3984C178.742 97.0864 179.274 98.9003 179.495 100.764C179.886 104.493 177.036 101.83 175.655 100.555C175.122 100.059 174.213 99.7626 173.818 100.549ZM205.286 184.004L205.27 184.029L205.282 184.006C210.101 177.256 210.301 168.546 207.509 160.929C203.552 150.155 194.141 142.611 184.289 137.337C182.389 128.545 181.156 119.622 180.601 110.644C180.63 109.282 175.974 108.343 174.542 102.989C174.273 102.004 173.738 99.4573 175.497 101.288C177.256 103.118 180.251 104.806 180.111 100.786C179.948 96.0308 176.715 92.8674 177 91.7902C177.368 90.444 180.064 92.9779 180.489 93.4213C181.625 94.6687 182.655 96.0094 183.567 97.4293C183.729 97.6692 184.12 97.4759 183.975 97.2142C183.649 96.6327 183.299 96.0512 182.925 95.4697C183.17 94.9739 180.549 90.3596 181.008 89.9221C181.608 89.3507 183.572 90.9949 184.032 91.3904C186.468 93.494 186.579 94.8983 187.406 95.9988C187.438 96.0294 187.48 96.0479 187.524 96.0512C187.576 96.0556 187.628 96.0391 187.668 96.0054C187.709 95.9716 187.734 95.9233 187.739 95.8709C187.568 95.1288 187.268 94.4226 186.852 93.7847C186.707 92.9517 186.054 91.7 186.416 91.2043C186.596 91.0473 187.586 91.7989 187.714 91.9035C188.674 92.8214 189.473 93.8948 190.075 95.0786C194.521 102.688 193.186 107.581 193.938 108.317C204.979 120.751 216.772 138.959 219.155 155.384C220.809 166.704 217.221 179.985 205.286 184.004Z" fill="#003334"/>
</svg>
