<svg width="200" height="159" viewBox="0 0 200 159" fill="none" xmlns="http://www.w3.org/2000/svg">
<path d="M15.334 58.1805V146.575C15.3336 148.052 15.6241 149.514 16.1888 150.878C16.7535 152.242 17.5814 153.481 18.6252 154.525C19.669 155.57 20.9083 156.398 22.2722 156.963C23.6361 157.528 25.098 157.819 26.5744 157.819H187.91C189.386 157.819 190.848 157.528 192.212 156.963C193.576 156.398 194.815 155.57 195.859 154.525C196.903 153.481 197.731 152.242 198.296 150.878C198.86 149.514 199.151 148.052 199.15 146.575V58.1805C199.15 56.2074 198.631 54.269 197.644 52.5601C196.658 50.8512 195.239 49.4321 193.53 48.4452L112.861 1.87124C111.152 0.885259 109.214 0.366211 107.241 0.366211C105.268 0.366211 103.33 0.885259 101.621 1.87124L20.9542 48.4452C19.2451 49.4316 17.8259 50.8507 16.8393 52.5596C15.8527 54.2686 15.3335 56.2072 15.334 58.1805Z" fill="white"/>
<path d="M14.9581 58.1808V145.291C14.9581 146.103 14.9349 146.918 15.0161 147.727C15.2418 149.869 16.0532 151.907 17.3613 153.618C18.6695 155.328 20.4237 156.646 22.4314 157.425C24.5629 158.242 26.7002 158.184 28.9158 158.184H184.968C186.455 158.184 188.004 158.277 189.483 158.077C191.605 157.775 193.604 156.896 195.261 155.536C196.919 154.177 198.171 152.388 198.882 150.366C199.35 148.888 199.565 147.342 199.517 145.793V65.0045C199.517 62.7512 199.534 60.4979 199.517 58.2475C199.514 56.3628 199.058 54.5064 198.188 52.8345C197.318 51.1626 196.059 49.724 194.517 48.6398C193.911 48.2164 193.256 47.8626 192.615 47.4798L184.089 42.5498L169.589 34.1717L152.279 24.1783L135.076 14.2864L121.214 6.27082L113.631 1.89182C112.004 0.893432 110.179 0.263843 108.283 0.047418C105.717 -0.193282 103.263 0.496918 101.056 1.78742L94.0064 5.84742L80.472 13.6571L63.4055 23.5171L46.0055 33.5598L31.1981 42.0974L22.1791 47.3174C21.7093 47.5871 21.2366 47.8568 20.7697 48.1323C19.0162 49.1633 17.5594 50.6306 16.541 52.3915C15.5226 54.1523 14.9773 56.1468 14.9581 58.1808C14.9581 58.2785 14.9969 58.3722 15.066 58.4412C15.1351 58.5103 15.2288 58.5491 15.3264 58.5491C15.4241 58.5491 15.5178 58.5103 15.5869 58.4412C15.6559 58.3722 15.6947 58.2785 15.6947 58.1808C15.7127 56.2563 16.2329 54.3698 17.2039 52.7081C18.1749 51.0463 19.563 49.667 21.2308 48.7065C21.8456 48.3469 22.4633 47.9931 23.081 47.6393L32.6481 42.1264L47.644 33.4699L64.957 23.4736L81.6871 13.805L94.856 6.20122C97.0774 4.92328 99.295 3.64342 101.509 2.36162C104.316 0.746318 107.567 0.262018 110.678 1.29152C111.705 1.67336 112.689 2.15922 113.616 2.74152L121.82 7.47142L135.932 15.6175L153.01 25.4775L170.085 35.3375L184.196 43.4865L192.383 48.2164C193.279 48.6934 194.131 49.2505 194.926 49.881C196.153 50.938 197.134 52.2508 197.8 53.7272C198.466 55.2036 198.801 56.8079 198.78 58.4273V66.0253V145.923C198.78 147.791 198.525 149.612 197.696 151.32C196.79 153.15 195.393 154.692 193.662 155.775C191.931 156.857 189.933 157.438 187.891 157.451C186.667 157.451 185.446 157.451 184.225 157.451H28.8781C26.4856 157.451 24.2004 157.486 21.9442 156.418C20.0859 155.523 18.5161 154.125 17.4133 152.382C16.3106 150.638 15.7192 148.621 15.7063 146.558C15.7063 145.944 15.7063 145.326 15.7063 144.711V58.1808C15.7063 58.0816 15.6669 57.9864 15.5968 57.9163C15.5266 57.8461 15.4315 57.8067 15.3322 57.8067C15.233 57.8067 15.1379 57.8461 15.0677 57.9163C14.9976 57.9864 14.9581 58.0816 14.9581 58.1808Z" fill="#003334"/>
<path d="M39.9794 135.996C37.2273 111.819 36.8387 53.6566 39.382 29.4561C39.4922 28.4063 39.6285 27.2985 40.2694 26.4604C40.9712 25.5382 42.1399 25.1206 43.2506 24.7929C47.6383 23.5024 52.1913 22.8905 56.7269 22.2931C93.9136 17.3834 131.521 13.0131 168.864 16.5714C170.83 16.757 172.924 17.0238 174.423 18.3114C176.477 20.0862 176.691 23.137 176.743 25.8514C177.569 60.5219 178.397 95.1914 179.229 129.86" fill="#003334"/>
<path d="M40.2615 135.996C39.4292 128.546 39.029 121.053 38.739 113.568C38.3417 104.053 38.1445 94.5292 38.0778 85.0085C38.0111 75.3718 38.0778 65.7322 38.333 56.0984C38.5418 48.1698 38.8376 40.2296 39.5278 32.3184C39.5916 31.5557 39.6641 30.7959 39.7395 30.0361C39.8729 28.7195 39.9367 27.1999 41.0126 26.2661C42.1726 25.2598 44.0054 24.9698 45.4496 24.6131C47.1055 24.2071 48.7759 23.8794 50.455 23.5981C57.2671 22.4381 64.1604 21.7044 71.0131 20.8518C84.7533 19.1379 98.5225 17.6299 112.338 16.6874C126.154 15.7449 140.024 15.3766 153.866 15.9595C157.311 16.1045 160.756 16.3104 164.199 16.5772C165.907 16.7106 167.615 16.8498 169.317 17.0267C170.767 17.1775 172.27 17.395 173.522 18.1635C175.915 19.6135 176.231 22.6846 176.321 25.2279C176.44 28.7079 176.483 32.1618 176.562 35.6273C176.882 49.6092 177.204 63.5891 177.527 77.5671C177.848 91.5954 178.174 105.622 178.505 119.646C178.59 123.047 178.675 126.449 178.76 129.851C178.774 130.492 179.772 130.495 179.757 129.851C179.415 115.591 179.071 101.332 178.725 87.0733C178.375 72.8614 178.023 58.6514 177.669 44.4433L177.403 33.6785C177.321 30.3928 177.403 27.0549 177.113 23.7779C176.895 21.339 176.185 18.787 173.966 17.4356C172.835 16.7454 171.51 16.4612 170.213 16.2756C168.587 16.0581 166.945 15.945 165.312 15.8116C151.279 14.6516 137.182 14.6023 123.112 15.2316C109.041 15.8609 95.0396 17.1862 81.0616 18.8073C74.0465 19.6222 67.043 20.5096 60.0395 21.4173C56.6842 21.8581 53.3202 22.2612 49.9823 22.8325C48.3032 23.1225 46.6328 23.456 44.9827 23.8707C43.6081 24.2187 42.0566 24.529 40.8676 25.3439C38.9478 26.6605 39.0087 29.1951 38.8173 31.2831C38.6607 32.969 38.5254 34.6549 38.4113 36.3407C38.1213 40.3282 37.9415 44.3244 37.7936 48.3206C37.4456 57.8007 37.3296 67.2895 37.3383 76.7783C37.3499 86.6538 37.5172 96.5273 37.84 106.399C38.13 114.713 38.507 123.036 39.2494 131.324C39.3886 132.873 39.5394 134.419 39.7192 135.964C39.7598 136.324 40.3253 136.327 40.2847 135.964L40.2615 135.996Z" fill="#003334"/>
<path d="M193.53 74.2351L112.861 120.809C111.152 121.795 109.214 122.314 107.241 122.314C105.268 122.314 103.33 121.795 101.621 120.809L20.9542 74.2351C19.2455 73.2482 17.8266 71.8291 16.8401 70.1202C15.8536 68.4113 15.3341 66.4729 15.334 64.4998V58.1807V146.576C15.3336 148.052 15.6241 149.514 16.1888 150.878C16.7535 152.242 17.5814 153.482 18.6252 154.526C19.669 155.57 20.9083 156.398 22.2722 156.963C23.6361 157.528 25.098 157.819 26.5744 157.819H187.91C189.386 157.819 190.848 157.528 192.212 156.963C193.576 156.398 194.815 155.57 195.859 154.526C196.903 153.482 197.731 152.242 198.296 150.878C198.86 149.514 199.151 148.052 199.15 146.576V64.5056C199.149 66.4778 198.629 68.415 197.643 70.1227C196.656 71.8305 195.238 73.2487 193.53 74.2351Z" fill="white"/>
<path d="M193.346 73.9162L184.031 79.287L162.229 91.8759L137.097 106.376L117.812 117.526L113.201 120.189C109.608 122.262 105.467 122.555 101.775 120.479C98.3417 118.541 94.9429 116.538 91.5296 114.566L69.3011 101.721L44.2509 87.262L25.5517 76.4653L21.4569 74.1018C20.2783 73.4456 19.2193 72.5945 18.3249 71.5846C16.3297 69.2646 15.7004 66.4864 15.7004 63.511V58.1808C15.7004 58.0831 15.6616 57.9894 15.5926 57.9204C15.5235 57.8513 15.4298 57.8125 15.3321 57.8125C15.2345 57.8125 15.1408 57.8513 15.0717 57.9204C15.0026 57.9894 14.9638 58.0831 14.9638 58.1808V135.095C14.9638 138.836 14.9638 142.576 14.9638 146.315C14.9402 148.179 15.3576 150.022 16.1822 151.695C17.0067 153.367 18.2149 154.821 19.7082 155.937C21.8368 157.509 24.3627 158.184 26.9785 158.184H181.421H187.801C189.802 158.187 191.77 157.679 193.52 156.71C195.27 155.74 196.744 154.34 197.803 152.643C199.131 150.479 199.511 148.09 199.511 145.607V64.4999C199.511 64.4022 199.472 64.3085 199.403 64.2395C199.334 64.1704 199.241 64.1316 199.143 64.1316C199.045 64.1316 198.951 64.1704 198.882 64.2395C198.813 64.3085 198.775 64.4022 198.775 64.4999C198.758 66.4052 198.248 68.2738 197.295 69.9239C196.343 71.5739 194.979 72.9493 193.337 73.9162C193.258 73.968 193.202 74.0481 193.18 74.14C193.159 74.2319 193.173 74.3285 193.221 74.41C193.269 74.4915 193.346 74.5516 193.436 74.5779C193.527 74.6042 193.624 74.5947 193.708 74.5513C195.459 73.5173 196.913 72.0487 197.929 70.2876C198.945 68.5266 199.489 66.533 199.508 64.4999H198.772V140.146C198.772 144.232 199.352 148.881 197.032 152.468C196.016 154.013 194.63 155.278 192.999 156.147C191.368 157.017 189.545 157.463 187.697 157.445H27.0336C24.3975 157.445 21.8629 156.737 19.7836 155.061C17.017 152.834 15.7091 149.571 15.7091 146.071V58.1808C15.7091 58.0831 15.6703 57.9894 15.6013 57.9204C15.5322 57.8513 15.4385 57.8125 15.3408 57.8125C15.2432 57.8125 15.1495 57.8513 15.0804 57.9204C15.0113 57.9894 14.9725 58.0831 14.9725 58.1808V63.772C14.9725 66.585 15.6047 69.2385 17.336 71.515C18.6903 73.2956 20.4651 74.3744 22.3414 75.4561L37.7607 84.3591L62.3005 98.5285L86.2777 112.37L100.511 120.595C100.801 120.766 101.108 120.943 101.41 121.114C102.766 121.889 104.263 122.387 105.813 122.579C107.363 122.771 108.936 122.654 110.441 122.233C112.108 121.755 113.564 120.827 115.049 119.968L131.251 110.624L155.936 96.3709L179.681 82.6539L193.085 74.9167L193.714 74.5513C193.79 74.4985 193.843 74.4191 193.863 74.3289C193.884 74.2386 193.869 74.144 193.823 74.064C193.776 73.984 193.701 73.9244 193.613 73.897C193.525 73.8696 193.429 73.8765 193.346 73.9162Z" fill="#003334"/>
<path d="M107.242 45.7917C97.9906 45.7917 90.4883 56.5478 90.4883 69.8124C90.4883 83.077 97.9906 93.8331 107.242 93.8331C116.493 93.8331 124.001 83.0799 124.001 69.8124C124.001 56.5449 116.495 45.7917 107.242 45.7917ZM107.242 84.4777C103.3 84.4777 100.105 77.9121 100.105 69.8124C100.105 61.7127 103.295 55.1471 107.242 55.1471C111.188 55.1471 114.381 61.7127 114.381 69.8124C114.381 77.9121 111.186 84.4661 107.242 84.4661V84.4777Z" fill="white"/>
<path d="M8.36333 10.1855C3.36496 15.7862 0.648625 23.0578 0.75083 30.5638C0.78563 32.8838 1.04083 35.3198 1.80933 37.5238C2.48793 39.4784 3.65663 41.4649 5.57933 42.3958C7.77753 43.4601 10.3295 42.8569 12.2029 41.4127C14.2329 39.8496 15.4248 37.3759 16.1556 34.9776C16.4282 34.0786 16.5616 32.8055 15.6655 32.1994C14.6331 31.5034 13.2933 32.3415 12.5364 33.0694C10.8283 34.7369 10.3179 37.3962 10.2483 39.6901C10.1755 42.2705 10.7477 44.8282 11.9129 47.1315C12.2014 47.7034 12.5319 48.253 12.9018 48.7758C13.1918 49.1731 13.8385 48.8048 13.563 48.3872C12.2378 46.4107 11.4019 44.1473 11.1241 41.7839C10.8805 39.5799 11.0429 37.1062 12.0579 35.0965C12.5219 34.1772 13.2179 33.2869 14.1923 32.8722C14.6331 32.6837 15.2392 32.6286 15.4683 33.1622C15.6074 33.595 15.6074 34.0605 15.4683 34.4933C15.1698 35.621 14.7365 36.7086 14.1778 37.7326C13.6427 38.791 12.9195 39.7433 12.0434 40.5427C10.4252 41.9666 8.00373 42.7177 5.97083 41.7433C4.21053 40.8994 3.15493 39.1072 2.52563 37.3295C1.85224 35.2685 1.4944 33.1175 1.46423 30.9495C1.23068 24.0493 3.43281 17.2869 7.68473 11.8472C8.0308 11.4122 8.38943 10.9859 8.76063 10.5683C9.00423 10.2986 8.60693 9.89553 8.36043 10.1681L8.36333 10.1855Z" fill="white"/>
<path d="M27.6484 154.104C33.2454 152.892 38.767 151.36 44.2538 149.725C49.4738 148.167 54.6744 146.573 59.8558 144.943C64.9076 143.356 69.9391 141.703 74.9126 139.888C79.8281 138.093 84.6914 136.147 89.4416 133.949C94.2252 131.754 98.8674 129.263 103.341 126.49C103.892 126.148 104.438 125.8 104.98 125.446C105.299 125.234 105.003 124.721 104.69 124.93C100.269 127.752 95.6772 130.296 90.9409 132.548C86.1878 134.816 81.3129 136.826 76.3771 138.664C71.4413 140.503 66.4794 142.159 61.4827 143.76C56.3497 145.401 51.1993 146.981 46.046 148.55C40.5911 150.212 35.1188 151.822 29.5682 153.135C28.8867 153.298 28.1994 153.454 27.515 153.608C27.1902 153.68 27.3265 154.188 27.6513 154.104H27.6484Z" fill="white"/>
<path d="M22.8835 17.2065C23.0267 17.7058 23.215 18.1912 23.4461 18.6565C23.6645 19.1495 23.9014 19.6328 24.1566 20.1065C24.6596 21.0418 25.2315 21.9384 25.8676 22.789C26.0938 23.079 26.6158 22.789 26.3838 22.499C25.7572 21.6609 25.1885 20.7811 24.6815 19.8658C24.4292 19.4105 24.1914 18.9436 23.971 18.4709C23.7506 17.9982 23.5911 17.4936 23.3533 17.0209C23.2141 16.757 22.8168 16.9426 22.8835 17.2181V17.2065Z" fill="white"/>
<path d="M35.154 11.2006C35.8703 13.6656 36.5431 16.1509 37.3087 18.6043C37.3411 18.659 37.3906 18.7015 37.4495 18.7253C37.5084 18.749 37.5735 18.7528 37.6348 18.736C37.6961 18.7192 37.7501 18.6828 37.7886 18.6323C37.8272 18.5817 37.8481 18.52 37.8481 18.4564C37.1637 15.9798 36.3778 13.5264 35.6441 11.0643C35.6219 11.0042 35.578 10.9546 35.5209 10.9254C35.4639 10.8962 35.398 10.8895 35.3362 10.9067C35.2745 10.9238 35.2215 10.9636 35.1877 11.0181C35.154 11.0725 35.1419 11.1377 35.154 11.2006Z" fill="white"/>
<path d="M47.6211 8.6457C47.8274 11.3813 47.8642 14.1271 47.7313 16.8672C47.7168 17.2297 48.2678 17.2268 48.291 16.8672C48.4457 14.1266 48.3914 11.3781 48.1286 8.6457C48.0996 8.3238 47.595 8.318 47.6211 8.6457Z" fill="white"/>
<path d="M60.5139 8.34698L58.626 15.1243C58.6049 15.2012 58.6151 15.2834 58.6545 15.3527C58.694 15.422 58.7593 15.4729 58.8363 15.494C58.9132 15.5152 58.9953 15.5049 59.0647 15.4655C59.134 15.4261 59.1849 15.3607 59.206 15.2838L61.004 8.48618C61.0145 8.42373 61.0015 8.35958 60.9674 8.30621C60.9333 8.25284 60.8805 8.21407 60.8194 8.19744C60.7583 8.1808 60.6932 8.18749 60.6367 8.2162C60.5802 8.24491 60.5365 8.2936 60.5139 8.35278V8.34698Z" fill="white"/>
</svg>
