<svg width="20" height="21" viewBox="0 0 20 21" fill="none" xmlns="http://www.w3.org/2000/svg">
<path d="M7.66347 15.6813H12.3364M9.99995 1.68127V2.68127M16.3639 4.31731L15.6568 5.02442M19 10.6812H18M2 10.6812H1M4.34309 5.02442L3.63599 4.31731M6.46441 14.2168C4.51179 12.2642 4.51179 9.09839 6.46441 7.14576C8.41703 5.19314 11.5829 5.19314 13.5355 7.14576C15.4881 9.09839 15.4881 12.2642 13.5355 14.2168L12.9884 14.7639C12.3555 15.3968 11.9999 16.2552 11.9999 17.1502V17.6813C11.9999 18.7858 11.1045 19.6813 9.99995 19.6813C8.89538 19.6813 7.99995 18.7858 7.99995 17.6813V17.1502C7.99995 16.2552 7.6444 15.3968 7.01151 14.7639L6.46441 14.2168Z" stroke="#FCD34D" stroke-width="2" stroke-linecap="round" stroke-linejoin="round"/>
</svg>
