<svg width="14" height="13" viewBox="0 0 14 13" fill="none" xmlns="http://www.w3.org/2000/svg">
<path d="M4.8 0.750488L3.10036 1.00102L0 6.50138L3.10036 12.0017L4.8 12.2523L1.50036 6.50138L4.8 0.750488ZM9.15588 0.750488L10.8555 1.00102L13.9559 6.50138L10.8555 11.9989L9.15588 12.2494L12.4555 6.49853L9.15588 0.750488Z" fill="black"/>
<path d="M4.80013 0.750534L6.97807 0.5V6.50143H1.50049L4.80013 0.750534Z" fill="#F3F3F3"/>
<path d="M4.80013 12.2495L6.97807 12.5V6.50146H1.50049L4.80013 12.2495Z" fill="#D9D9D9"/>
<path d="M9.15596 12.2495L6.97803 12.5V6.50146H12.4556L9.15596 12.2495Z" fill="#BCBCBC"/>
<path d="M9.15596 0.750534L6.97803 0.5V6.50143H12.4556L9.15596 0.750534Z" fill="#E9E9E9"/>
</svg>
