<svg width="20" height="21" viewBox="0 0 20 21" fill="none" xmlns="http://www.w3.org/2000/svg">
<path fill-rule="evenodd" clip-rule="evenodd" d="M10 0.576172C4.48 0.576172 0 5.05617 0 10.5762C0 16.0962 4.48 20.5762 10 20.5762C15.51 20.5762 20 16.0962 20 10.5762C20 5.05617 15.51 0.576172 10 0.576172ZM16.605 5.18617C17.8357 6.68548 18.5167 8.56054 18.535 10.5002C18.254 10.4462 15.434 9.87117 12.592 10.2292C12.527 10.0882 12.472 9.93617 12.408 9.78417C12.231 9.36722 12.043 8.95507 11.844 8.54817C14.989 7.26817 16.421 5.42417 16.605 5.18617ZM10 2.05117C12.17 2.05117 14.154 2.86417 15.662 4.19917C15.51 4.41517 14.219 6.14017 11.182 7.27917C9.783 4.70917 8.232 2.60417 7.993 2.27917C8.65086 2.12539 9.32441 2.04887 10 2.05117ZM6.367 2.85417C7.51144 4.44048 8.56867 6.08792 9.534 7.78917C5.542 8.85217 2.017 8.82917 1.638 8.82917C1.91283 7.5363 2.48261 6.32439 3.3029 5.28796C4.12319 4.25154 5.17182 3.41862 6.367 2.85417ZM1.453 10.5862V10.3262C1.823 10.3362 5.965 10.3912 10.228 9.11117C10.478 9.58817 10.705 10.0762 10.922 10.5642C10.813 10.5972 10.694 10.6292 10.586 10.6622C6.182 12.0822 3.839 15.9652 3.644 16.2912C2.23384 14.7256 1.45264 12.6932 1.453 10.5862ZM10 19.1232C8.10143 19.1264 6.25667 18.4926 4.761 17.3232C4.913 17.0082 6.649 13.6672 11.464 11.9862C11.486 11.9762 11.497 11.9762 11.518 11.9642C12.3303 14.0596 12.9407 16.2278 13.341 18.4392C12.2858 18.8932 11.1487 19.126 10 19.1232ZM14.761 17.6582C14.675 17.1382 14.219 14.6432 13.102 11.5742C15.781 11.1512 18.124 11.8452 18.416 11.9432C18.2336 13.0963 17.8148 14.1992 17.1858 15.1827C16.5568 16.1662 15.7313 17.009 14.761 17.6582Z" fill="#9CA3AF"/>
</svg>
