<svg width="20" height="21" viewBox="0 0 20 21" fill="none" xmlns="http://www.w3.org/2000/svg">
<path fill-rule="evenodd" clip-rule="evenodd" d="M10 0.576172C4.477 0.576172 0 5.06017 0 10.5932C0 15.0182 2.865 18.7732 6.839 20.0972C7.339 20.1892 7.521 19.8802 7.521 19.6142C7.521 19.3772 7.513 18.7462 7.508 17.9112C4.726 18.5162 4.139 16.5682 4.139 16.5682C3.685 15.4102 3.029 15.1022 3.029 15.1022C2.121 14.4822 3.098 14.4942 3.098 14.4942C4.101 14.5642 4.629 15.5262 4.629 15.5262C5.521 17.0562 6.97 16.6142 7.539 16.3582C7.631 15.7112 7.889 15.2702 8.175 15.0202C5.955 14.7672 3.62 13.9072 3.62 10.0692C3.62 8.97617 4.01 8.08117 4.649 7.38117C4.546 7.12817 4.203 6.10917 4.747 4.73117C4.747 4.73117 5.587 4.46117 7.497 5.75717C8.31277 5.53469 9.15444 5.42136 10 5.42017C10.85 5.42417 11.705 5.53517 12.504 5.75717C14.413 4.46117 15.251 4.73017 15.251 4.73017C15.797 6.10917 15.453 7.12817 15.351 7.38117C15.991 8.08117 16.379 8.97617 16.379 10.0692C16.379 13.9172 14.04 14.7642 11.813 15.0122C12.172 15.3212 12.491 15.9322 12.491 16.8672C12.491 18.2052 12.479 19.2862 12.479 19.6142C12.479 19.8822 12.659 20.1942 13.167 20.0962C15.1583 19.4283 16.8893 18.1515 18.1155 16.4462C19.3416 14.741 20.0009 12.6935 20 10.5932C20 5.06017 15.522 0.576172 10 0.576172Z" fill="#9CA3AF"/>
</svg>
