<svg width="20" height="21" viewBox="0 0 20 21" fill="none" xmlns="http://www.w3.org/2000/svg">
<path fill-rule="evenodd" clip-rule="evenodd" d="M10.315 0.576172C12.745 0.576172 13.099 0.589172 14.123 0.636172C15.187 0.685172 15.914 0.854172 16.55 1.10117C17.2175 1.35205 17.8222 1.74553 18.322 2.25417C18.8306 2.75395 19.2241 3.35867 19.475 4.02617C19.722 4.66217 19.891 5.38917 19.94 6.45317C19.988 7.52017 20 7.86017 20 10.5762V10.6562C20 13.2992 19.988 13.6432 19.94 14.6992C19.891 15.7632 19.722 16.4902 19.475 17.1262C19.2241 17.7937 18.8306 18.3984 18.322 18.8982C17.8222 19.4068 17.2175 19.8003 16.55 20.0512C15.914 20.2982 15.187 20.4672 14.123 20.5162C13.056 20.5642 12.716 20.5762 10 20.5762H9.92C7.277 20.5762 6.933 20.5642 5.877 20.5162C4.813 20.4672 4.086 20.2982 3.45 20.0512C2.7825 19.8003 2.17777 19.4068 1.678 18.8982C1.16936 18.3984 0.775874 17.7937 0.525 17.1262C0.278 16.4902 0.109 15.7632 0.0599999 14.6992C0.0129999 13.6752 0 13.3202 0 10.8912V10.2612C0 7.83117 0.0129999 7.47717 0.0599999 6.45317C0.109 5.38917 0.278 4.66217 0.525 4.02617C0.775874 3.35867 1.16936 2.75395 1.678 2.25417C2.17777 1.74553 2.7825 1.35205 3.45 1.10117C4.086 0.854172 4.813 0.685172 5.877 0.636172C6.901 0.589172 7.256 0.576172 9.685 0.576172H10.315ZM10.234 2.37817H9.766C7.31 2.37817 6.982 2.38917 5.959 2.43617C4.984 2.48117 4.455 2.64317 4.102 2.78017C3.635 2.96217 3.302 3.17817 2.952 3.52817C2.602 3.87817 2.386 4.21117 2.204 4.67817C2.067 5.03117 1.904 5.56017 1.86 6.53517C1.813 7.55817 1.802 7.88617 1.802 10.3422V10.8102C1.802 13.2662 1.813 13.5942 1.86 14.6172C1.905 15.5922 2.067 16.1212 2.204 16.4742C2.386 16.9402 2.603 17.2742 2.952 17.6242C3.302 17.9742 3.635 18.1902 4.102 18.3722C4.455 18.5092 4.984 18.6722 5.959 18.7162C7.013 18.7642 7.329 18.7742 10 18.7742H10.08C12.677 18.7742 12.997 18.7642 14.04 18.7162C15.016 18.6712 15.545 18.5092 15.898 18.3722C16.364 18.1902 16.698 17.9742 17.048 17.6242C17.398 17.2742 17.614 16.9412 17.796 16.4742C17.933 16.1212 18.096 15.5922 18.14 14.6172C18.188 13.5622 18.198 13.2472 18.198 10.5762V10.4962C18.198 7.89917 18.188 7.57917 18.14 6.53617C18.095 5.56017 17.933 5.03117 17.796 4.67817C17.6358 4.24374 17.3802 3.85077 17.048 3.52817C16.7254 3.19603 16.3324 2.94043 15.898 2.78017C15.545 2.64317 15.016 2.48017 14.041 2.43617C13.018 2.38917 12.69 2.37817 10.234 2.37817ZM10 5.44117C10.6743 5.44117 11.3421 5.57399 11.9651 5.83205C12.5881 6.09011 13.1542 6.46835 13.631 6.94518C14.1078 7.42201 14.4861 7.98809 14.7441 8.61109C15.0022 9.2341 15.135 9.90183 15.135 10.5762C15.135 11.2505 15.0022 11.9182 14.7441 12.5413C14.4861 13.1643 14.1078 13.7303 13.631 14.2072C13.1542 14.684 12.5881 15.0622 11.9651 15.3203C11.3421 15.5784 10.6743 15.7112 10 15.7112C8.63811 15.7112 7.33201 15.1702 6.36901 14.2072C5.40601 13.2442 4.865 11.9381 4.865 10.5762C4.865 9.21428 5.40601 7.90818 6.36901 6.94518C7.33201 5.98218 8.63811 5.44117 10 5.44117ZM10 7.24317C9.11603 7.24317 8.26827 7.59433 7.64321 8.21939C7.01815 8.84444 6.667 9.69221 6.667 10.5762C6.667 11.4601 7.01815 12.3079 7.64321 12.933C8.26827 13.558 9.11603 13.9092 10 13.9092C10.884 13.9092 11.7317 13.558 12.3568 12.933C12.9818 12.3079 13.333 11.4601 13.333 10.5762C13.333 9.69221 12.9818 8.84444 12.3568 8.21939C11.7317 7.59433 10.884 7.24317 10 7.24317ZM15.338 4.03817C15.6563 4.03817 15.9615 4.1646 16.1865 4.38964C16.4116 4.61469 16.538 4.91991 16.538 5.23817C16.538 5.55643 16.4116 5.86166 16.1865 6.0867C15.9615 6.31174 15.6563 6.43817 15.338 6.43817C15.0197 6.43817 14.7145 6.31174 14.4895 6.0867C14.2644 5.86166 14.138 5.55643 14.138 5.23817C14.138 4.91991 14.2644 4.61469 14.4895 4.38964C14.7145 4.1646 15.0197 4.03817 15.338 4.03817Z" fill="#9CA3AF"/>
</svg>
