<svg width="20" height="17" viewBox="0 0 20 17" fill="none" xmlns="http://www.w3.org/2000/svg">
<path d="M6.29 16.8296C13.837 16.8296 17.965 10.5766 17.965 5.15457C17.965 4.97657 17.965 4.79957 17.953 4.62457C18.7562 4.0431 19.4493 3.32318 20 2.49857C19.2511 2.83057 18.4566 3.04833 17.643 3.14457C18.4996 2.63163 19.1408 1.82492 19.447 0.87457C18.6417 1.35246 17.7607 1.6893 16.842 1.87057C16.2234 1.21234 15.405 0.776404 14.5136 0.630275C13.6222 0.484145 12.7075 0.635969 11.9111 1.06224C11.1147 1.48851 10.4811 2.16544 10.1083 2.98823C9.7355 3.81102 9.64437 4.73375 9.849 5.61357C8.21759 5.53181 6.6216 5.1079 5.16465 4.36934C3.70769 3.63078 2.42233 2.59409 1.392 1.32657C0.867318 2.22977 0.706589 3.29899 0.942536 4.31653C1.17848 5.33408 1.79337 6.22345 2.662 6.80357C2.00926 6.78467 1.37063 6.60907 0.8 6.29157V6.34357C0.800389 7.29087 1.1284 8.20887 1.7284 8.94193C2.3284 9.67498 3.16347 10.178 4.092 10.3656C3.48781 10.5303 2.85389 10.5542 2.239 10.4356C2.50116 11.251 3.01168 11.9642 3.69913 12.4752C4.38658 12.9862 5.21657 13.2695 6.073 13.2856C5.22212 13.9541 4.24779 14.4484 3.20573 14.7401C2.16367 15.0318 1.07432 15.1152 0 14.9856C1.8766 16.1899 4.06019 16.8287 6.29 16.8256" fill="#9CA3AF"/>
</svg>
